<svg xmlns="http://www.w3.org/2000/svg" class="" id="FxSymbol0-08d" role="presentation" viewBox="0 0 50 50" focusable="false" xmlns:xlink="http://www.w3.org/1999/xlink" xmlns:svg="http://www.w3.org/2000/svg">
<g>
<title/>
<path class="msportalfx-svg-c04" fill="#7a7a7a" d="M 19 42 h 12 v 3 H 19 Z m 3 8 h 5 l 3.638 -3 h -11.5 Z"/>
<path class="msportalfx-svg-c01" fill="#ffffff" d="M 19.175 39.9 a 0.41 0.41 0 0 1 -0.419 -0.392 c -0.172 -5.371 -3.152 -8.821 -6.033 -12.158 c -2.868 -3.321 -5.577 -6.458 -5.577 -11.29 C 7.145 5.981 13.653 0.2 25 0.2 s 17.855 5.781 17.855 15.86 c 0 4.832 -2.709 7.969 -5.577 11.29 c -2.881 3.337 -5.861 6.788 -6.033 12.158 a 0.41 0.41 0 0 1 -0.419 0.392 H 19.175 Z"/>
<path class="msportalfx-svg-c15" fill="#59b4d9" d="M 24 1.187 c 0 -0.573 -0.486 -1.041 -1.058 -1.003 C 12.645 0.863 7.045 6.695 7.045 16.06 c 0 9.825 11.272 12.876 11.61 23.451 a 0.513 0.513 0 0 0 0.52 0.489 H 23 a 1 1 0 0 0 1 -1 V 1.187 Z"/>
<path class="msportalfx-svg-c16" fill="#3999c6" d="M 26.045 1.187 c 0 -0.573 0.486 -1.041 1.058 -1.003 C 37.4 0.863 43 6.695 43 16.06 c 0 9.825 -11.272 12.876 -11.61 23.451 a 0.513 0.513 0 0 1 -0.52 0.489 h -3.825 a 1 1 0 0 1 -1 -1 V 1.187 Z"/>
<path class="msportalfx-svg-c01" fill="#ffffff" d="M 31.092 15.776 l -0.895 -1.788 L 25 16.586 l -5.197 -2.598 l -0.895 1.788 l 5.472 2.736 h 1.24 Z m -0.2 16.1 l -0.895 -1.788 L 25 32.586 l -4.997 -2.498 l -0.895 1.788 l 5.272 2.636 h 1.24 Z M 19.833 8.397 L 19.201 6.5 l -4.34 1.447 l -3.4 -3.4 c -0.488 0.461 -0.931 0.961 -1.34 1.489 l 3.325 3.325 L 12 13.701 l 1.897 0.633 l 1.484 -4.452 l 4.452 -1.485 Z m 19.608 -2.924 a 13.23 13.23 0 0 0 -1.433 -1.396 l -3.869 3.869 l -4.34 -1.446 l -0.632 1.897 l 4.452 1.484 l 1.484 4.452 L 37 13.701 l -1.447 -4.34 l 3.888 -3.888 Z m 0.629 18.61 l -4.608 -1.769 l -0.393 -4.436 l -1.992 0.177 l 0.414 4.674 L 30 25.864 l 1.337 1.488 l 3.494 -3.139 l 3.955 1.519 a 34.31 34.31 0 0 0 1.284 -1.649 Z M 20 25.864 l -3.491 -3.136 l 0.414 -4.674 l -1.992 -0.177 l -0.393 4.436 l -4.608 1.77 c 0.407 0.56 0.838 1.108 1.285 1.649 l 3.955 -1.519 l 3.494 3.139 L 20 25.864 Z"/>
</g>
</svg>