<svg xmlns="http://www.w3.org/2000/svg" class="" id="FxSymbol0-056" role="presentation" viewBox="0 0 60 60" focusable="false" xmlns:svg="http://www.w3.org/2000/svg" xmlns:xlink="http://www.w3.org/1999/xlink">
<g>
<title/>
<title>Microsoft Genomics icon</title>
<path class="msportalfx-svg-c10" fill="#ff8c00" d="M 26.525 38.635 c -0.242 -0.154 -0.443 -0.259 -0.619 -0.4 c -1.435 -1.132 -2.948 -2.181 -4.277 -3.427 a 6.979 6.979 0 0 1 -1.249 -7.88 a 12.787 12.787 0 0 1 3.327 -3.608 a 52.382 52.382 0 0 1 9.386 -5.683 a 31.349 31.349 0 0 0 6.3 -3.793 a 16.8 16.8 0 0 0 5.919 -9.729 a 12.209 12.209 0 0 0 0.165 -1.238 a 2.537 2.537 0 1 0 -5.033 -0.64 c -0.71 4.342 -3.311 7.315 -6.962 9.469 c -1.737 1.025 -3.585 1.859 -5.365 2.812 a 40.761 40.761 0 0 0 -9 6.147 c -1.716 1.627 -3.334 3.339 -4 5.706 A 11.7 11.7 0 0 0 18.158 38.5 c 0.916 0.934 1.943 1.76 2.942 2.609 a 0.752 0.752 0 0 0 0.643 0.156 c 1.579 -0.836 3.137 -1.716 4.782 -2.63 Z m 6.886 9.13 c 0.55 0.347 1.053 0.668 1.56 0.984 a 10.593 10.593 0 0 1 5.225 7.758 c 0.062 0.432 0.09 0.87 0.157 1.3 a 2.515 2.515 0 0 0 2.739 2.183 a 2.463 2.463 0 0 0 2.27 -2.542 a 14.466 14.466 0 0 0 -3.451 -9.3 a 34.445 34.445 0 0 0 -2.946 -2.781 a 0.735 0.735 0 0 0 -0.642 -0.145 c -1.618 0.814 -3.217 1.66 -4.912 2.543 Z"/>
<path class="msportalfx-svg-c15" fill="#59b4d9" d="M 20.285 5.363 a 10.03 10.03 0 0 0 1.738 3.231 h 10.936 a 19.116 19.116 0 0 1 -1.829 1.222 c -0.351 0.207 -0.709 0.4 -1.067 0.6 h -6.19 a 13.561 13.561 0 0 0 1.191 0.839 c 0.507 0.315 1.01 0.637 1.56 0.983 c -1.7 0.883 -3.294 1.729 -4.912 2.537 a 0.736 0.736 0 0 1 -0.642 -0.145 a 34.379 34.379 0 0 1 -2.946 -2.781 a 14.466 14.466 0 0 1 -3.451 -9.3 A 2.463 2.463 0 0 1 16.942 0.01 a 2.515 2.515 0 0 1 2.739 2.182 c 0.067 0.432 0.1 0.869 0.157 1.3 c 0 0.018 0.008 0.033 0.01 0.051 h 17.255 V 3.6 a 11.97 11.97 0 0 1 -1 1.763 Z m -5.559 50.519 a 16.8 16.8 0 0 1 5.919 -9.729 a 31.342 31.342 0 0 1 6.3 -3.793 a 52.408 52.408 0 0 0 9.386 -5.683 c 0.324 -0.267 0.646 -0.537 0.961 -0.815 H 26.46 a 22.566 22.566 0 0 1 -1.119 -0.975 a 5.4 5.4 0 0 1 -0.724 -0.843 h 14.4 a 7.7 7.7 0 0 0 0.637 -0.975 a 6.019 6.019 0 0 0 0.655 -2.307 H 23.434 a 7.264 7.264 0 0 1 0.032 -1.818 h 16.8 a 6.8 6.8 0 0 0 -1.36 -3.181 H 24.94 a 14.547 14.547 0 0 1 1.828 -1.818 h 10.15 c -0.921 -0.737 -1.864 -1.452 -2.79 -2.183 c -0.175 -0.138 -0.376 -0.243 -0.619 -0.4 c 1.646 -0.914 3.2 -1.793 4.782 -2.633 a 0.752 0.752 0 0 1 0.643 0.155 c 1 0.849 2.026 1.675 2.942 2.608 a 11.7 11.7 0 0 1 3.05 12.129 c -0.67 2.367 -2.288 4.08 -4 5.707 a 40.765 40.765 0 0 1 -9 6.147 c -1.78 0.954 -3.628 1.788 -5.365 2.812 a 18.674 18.674 0 0 0 -2.194 1.521 h 7.311 l 0.117 0.073 a 12.659 12.659 0 0 1 2.216 1.745 H 22.468 a 12.115 12.115 0 0 0 -2.054 3.274 h 15.83 a 10.626 10.626 0 0 1 0.586 1.817 h -17 c -0.085 0.344 -0.176 0.682 -0.235 1.044 a 2.537 2.537 0 1 1 -5.033 -0.641 a 12.223 12.223 0 0 1 0.164 -1.238 Z"/>
</g>
</svg>