<svg xmlns="http://www.w3.org/2000/svg" class="" id="FxSymbol0-091" role="presentation" viewBox="0 0 18 18" focusable="false" xmlns:xlink="http://www.w3.org/1999/xlink" xmlns:svg="http://www.w3.org/2000/svg">
<g>
<title/>
<path class="msportalfx-svg-c15" fill="#59b4d9" d="M 8.77 10.25 v -3 h 0.11 c 0.47 0 0.66 -0.33 0.66 -1 a 0.78 0.78 0 0 0 -0.93 -0.87 H 3.08 a 0.78 0.78 0 0 0 -0.8 0.75 v 0.36 a 0.8 0.8 0 0 0 0.83 0.76 h 0.1 v 3 L 0 16.23 L 1.11 18 h 9.26 l 1.31 -1.77 Z M 5 13.79 l -1.4 2.34 H 1.69 L 5 10.25 v -3 h 1.91 v 3 l 2 3.54 H 5 Z"/>
<path class="msportalfx-svg-c02" fill="#e5e5e5" d="M 4.99 13.79 L 3.6 16.13 H 1.69 l 3.36 -5.88 V 7.26 h 1.86 v 2.99 l 1.97 3.54 H 4.99 Z"/>
<path class="msportalfx-svg-c03" fill="#a0a1a2" d="M 11.76 0 h -0.26 a 6.85 6.85 0 0 0 -5.87 4 l -0.17 0.49 h 1 L 6.63 4 h 1.44 L 8 4.49 h 1 V 4 h 2 v 2 h -0.6 a 3.54 3.54 0 0 1 0 0.44 a 2.9 2.9 0 0 1 -0.05 0.56 H 11 v 2 h -1 v 1 h 1 v 2 h -0.32 l 0.53 1 h 0.54 A 6.43 6.43 0 0 0 18 6.5 A 6.51 6.51 0 0 0 11.76 0 Z m -4.6 3 a 5.91 5.91 0 0 1 2.4 -2 a 4.84 4.84 0 0 0 -1.27 2 H 7.16 Z M 11 3 H 9.21 A 3.7 3.7 0 0 1 11 0.83 V 3 Z m 6.23 3 h -1.76 a 5.87 5.87 0 0 0 -0.29 -2 h 1.4 a 4.82 4.82 0 0 1 0.66 2 Z m -1 -3 h -1.3 a 4.82 4.82 0 0 0 -1.13 -1.94 A 6.21 6.21 0 0 1 16.22 3 Z M 12 0.83 A 3.26 3.26 0 0 1 13.94 3 H 12 V 0.83 Z M 12 4 h 2.3 a 7 7 0 0 1 0.32 2 H 12 V 4 Z m 0 3 h 2.62 a 7.14 7.14 0 0 1 -0.32 2 H 12 V 7 Z m 0 5 v -2 h 2 a 3.72 3.72 0 0 1 -2 2 Z m 1.52 0 A 6 6 0 0 0 15 10 h 1.16 a 6.63 6.63 0 0 1 -2.64 2 Z m 3.14 -3 h -1.48 a 7.69 7.69 0 0 0 0.35 -2 h 1.71 a 5.94 5.94 0 0 1 -0.58 2 Z"/>
</g>
</svg>