<svg xmlns="http://www.w3.org/2000/svg" class="" id="FxSymbol0-092" role="presentation" viewBox="0 0 18 18" focusable="false" xmlns:xlink="http://www.w3.org/1999/xlink" xmlns:svg="http://www.w3.org/2000/svg">
<g>
<title/>
<path fill="#c9c9c9" d="M 3.25 2 h 0.3 v 10 h -0.3 Z m 11.5 0 h 0.3 v 10 h -0.3 Z M 9 2 h 0.3 v 2 H 9 Z m 2.88 0 h 0.3 v 2 h -0.3 Z M 6.13 2 h 0.3 v 2 h -0.3 Z"/>
<path class="msportalfx-svg-c03" fill="#a0a1a2" d="M 0 0 v 13 h 3.21 l 0.51 -1 H 1 V 2 h 16 v 10 h -3.29 l 0.5 1 H 18 V 0 H 0 Z"/>
<path class="msportalfx-svg-c15" fill="#59b4d9" d="M 11.71 6.94 a 0.78 0.78 0 0 0 1 -0.73 v -0.46 a 0.86 0.86 0 0 0 -0.93 -0.67 H 6 a 0.83 0.83 0 0 0 -1 0.67 v 0.51 a 0.77 0.77 0 0 0 1 0.68 V 10 l -3.22 6.2 L 4 18 h 9.5 l 1.25 -1.8 l -3.04 -6.2 V 6.94 Z"/>
<path fill="#d5ecf6" d="M 12 13.81 H 8.01 l -1.44 2.37 H 4.62 l 3.42 -6.11 V 6.95 h 1.98 v 3.12 L 12 13.81 Z"/>
<path fill="#c9c9c9" d="M 1 4.01 h 16 v 0.3 H 1 Z m 3.36 3.15 H 1 v -0.3 h 3.07 l 0.29 0.3 Z m 12.64 0 h -3.74 l 0.32 -0.3 H 17 v 0.3 Z M 1 9.709 l 4 -0.004 v 0.3 l -4 0.004 Z m 11.725 0.289 v -0.3 l 4.27 0.005 v 0.3 Z"/>
</g>
</svg>