<svg xmlns="http://www.w3.org/2000/svg" class="" id="FxSymbol0-094" role="presentation" viewBox="0 0 18 18" focusable="false" xmlns:xlink="http://www.w3.org/1999/xlink" xmlns:svg="http://www.w3.org/2000/svg">
<g>
<title/>
<path class="msportalfx-svg-c03" fill="#a0a1a2" d="M 2.95 4.205 l 0.177 -0.177 l 1.046 1.047 l -0.176 0.177 Z m 12.1 5.525 h 1.67 v 0.3 h -1.67 Z m 0.055 -2.687 l 1.3 -0.462 l 0.08 0.226 l -1.3 0.462 Z m -3.463 -3.76 l 0.41 -1.401 l 0.24 0.07 l -0.41 1.401 Z M 5.41 2.338 l 0.201 -0.111 l 0.585 1.06 l -0.202 0.11 Z M 8.52 1.5 h 0.3 v 1.67 h -0.3 Z"/>
<path class="msportalfx-svg-c03" fill="#a0a1a2" d="M 2.95 4.205 l 0.177 -0.177 l 1.046 1.047 l -0.176 0.177 Z m 12.1 5.525 h 1.67 v 0.3 h -1.67 Z m 0.055 -2.687 l 1.3 -0.462 l 0.08 0.226 l -1.3 0.462 Z m -3.463 -3.76 l 0.41 -1.401 l 0.24 0.07 l -0.41 1.401 Z M 5.41 2.338 l 0.201 -0.111 l 0.585 1.06 l -0.202 0.11 Z M 10.74 7.2 c -0.44 0.52 -0.64 0.57 -1.65 1.74 a 2.67 2.67 0 0 1 1.31 1.25 c 0.79 -0.92 1.15 -1.17 1.67 -1.78 l 3 -4.83 Z m -2.4 3.41 l 0.76 1.26 a 1.21 1.21 0 0 0 0.64 -1.07 a 1.31 1.31 0 0 0 -1.4 -1.24 v 1 Z"/>
<path class="msportalfx-svg-c03" fill="#a0a1a2" d="M 15.29 2.58 A 9.1 9.1 0 0 0 8.94 0 A 8.94 8.94 0 0 0 0 8.92 v 1.27 A 2.15 2.15 0 0 0 1.72 12 l 0.48 -0.85 A 1.22 1.22 0 0 1 0.81 9.88 v -1.6 s 0.2 -0.92 0.29 -1.25 A 8 8 0 0 1 9 0.72 a 8.18 8.18 0 0 1 8.24 8.11 v 1.06 c 0 1.29 -0.85 1.3 -1.69 1.3 h -5.12 C 10.32 12 10 12 10 12 h 6.07 A 1.68 1.68 0 0 0 18 10.19 V 8.83 a 8.68 8.68 0 0 0 -2.71 -6.25 Z"/>
<path class="msportalfx-svg-c15" fill="#59b4d9" d="M 8 11 V 8.3 h 0.1 c 0.42 -0.02 0.6 -0.3 0.6 -0.9 a 0.7 0.7 0 0 0 -0.84 -0.79 h -5 a 0.7 0.7 0 0 0 -0.72 0.74 v 0.26 a 0.72 0.72 0 0 0 0.84 0.68 V 11 l -2.9 5.4 l 1 1.6 h 8.36 l 1.18 -1.6 Z m -3.41 3.2 l -1.26 2.11 H 1.61 l 3 -5.31 V 8.3 h 1.71 V 11 l 1.78 3.2 H 4.59 Z"/>
<path fill="#d5ecf6" d="M 4.59 14.2 l -1.26 2.11 H 1.61 L 4.64 11 V 8.3 h 1.68 V 11 l 1.78 3.2 H 4.59 Z"/>
</g>
</svg>