<svg xmlns="http://www.w3.org/2000/svg" class="" id="FxSymbol0-096" role="presentation" viewBox="0 0 1332.4 1029.97" focusable="false" xmlns:xlink="http://www.w3.org/1999/xlink" xmlns:svg="http://www.w3.org/2000/svg">
<g>
<title/>
<title>Artboard 1</title>
<path class="msportalfx-svg-c15" fill="#59b4d9" d="M 784.1 243.171 v 122.952 l -235.8 -75.279 V 0 H 0 v 420.366 h 271.42 l 29.328 189.229 H 94.758 v 420.38 h 548.3 v -292.06 L 784.1 662.4 v 1.147 h 548.3 V 243.171 Z m 342.929 254.687 a 69.685 69.685 0 0 1 -120.206 25.571 L 820.652 623.1 L 784.1 642.679 L 643.061 718.19 l -36.554 19.574 L 435.8 829.176 a 69.69 69.69 0 1 1 -90.564 -46.1 l -12.717 -82.1 l -14.165 -91.384 l -29.327 -189.226 l -5.669 -36.554 l -12.007 -77.451 a 69.654 69.654 0 1 1 72.427 -66.766 q -0.084 2.056 -0.289 4.105 l 168.261 53.728 l 36.55 11.665 l 235.8 75.293 l 36.554 11.665 l 175.007 55.869 a 69.687 69.687 0 0 1 131.366 45.938 Z"/>
<path class="msportalfx-svg-c15" fill="#59b4d9" d="M 990.43 480.674 l -169.777 -54.2 l -36.553 -11.681 l -235.8 -75.279 l -36.55 -11.679 L 334.637 271.3 a 69.488 69.488 0 0 1 -27.77 27.033 a 75.166 75.166 0 0 1 -6.939 3.183 l 12.758 82.3 l 5.669 36.554 l 29.328 189.23 l 14.152 91.384 l 12.1 78.052 a 71.439 71.439 0 0 1 14.343 2.554 a 69.4 69.4 0 0 1 33.89 22.006 l 184.34 -98.7 l 36.554 -19.574 L 784.1 609.814 l 36.554 -19.574 l 172.537 -92.381 a 69.045 69.045 0 0 1 -2.761 -17.185 Z M 784.1 590.089 L 643.061 665.6 v -56.005 H 365.276 l -29.327 -189.229 H 548.3 v -62.6 l 235.8 75.279 Z"/>
</g>
</svg>