<svg xmlns="http://www.w3.org/2000/svg" class="" id="FxSymbol0-099" role="presentation" viewBox="0 0 60 60" focusable="false" xmlns:xlink="http://www.w3.org/1999/xlink" xmlns:svg="http://www.w3.org/2000/svg">
<g>
<title/>
<title>1- Icon - Query 60x60 Color</title>
<path fill="#0078d4" d="M 60 0 H 0 l 60 60 V 0 Z"/>
<rect class="msportalfx-svg-c13" fill="#b8d432" transform="rotate(-45 13.428 46.58)" x="-3.108" y="43.585" width="33.071" height="5.991" rx="0.941"/>
<rect class="msportalfx-svg-c13" fill="#b8d432" transform="rotate(-45 9.216 33.814)" x="-1.347" y="30.819" width="21.126" height="5.991" rx="0.941"/>
<path class="msportalfx-svg-c15" fill="#59b4d9" d="M 17.747 17.747 l 24.506 24.506 L 60 24.506 V 0 H 35.494 L 17.747 17.747 Z"/>
<rect class="msportalfx-svg-c13" fill="#b8d432" transform="rotate(-45 26.062 50.785)" x="15.498" y="47.789" width="21.126" height="5.991" rx="0.941"/>
<path class="msportalfx-svg-c01" opacity="0.2" fill="#ffffff" d="M 60 60 V 0 L 30 30 l 30 30 Z"/>
<rect class="msportalfx-svg-c01" fill="#ffffff" transform="rotate(-45 33.479 18)" x="30.484" y="15.004" width="5.991" height="5.991" rx="1.333"/>
<rect class="msportalfx-svg-c01" fill="#ffffff" transform="rotate(-45 41.952 9.527)" x="38.957" y="6.532" width="5.991" height="5.991" rx="1.333"/>
<rect class="msportalfx-svg-c01" fill="#ffffff" transform="rotate(-45 41.952 26.473)" x="38.957" y="23.477" width="5.991" height="5.991" rx="1.333"/>
<rect class="msportalfx-svg-c01" fill="#ffffff" transform="rotate(-45 50.425 18)" x="47.429" y="15.004" width="5.991" height="5.991" rx="1.333"/>
</g>
</svg>