<svg xmlns="http://www.w3.org/2000/svg" class="" id="FxSymbol0-082" role="presentation" viewBox="0 0 50 50" focusable="false" xmlns:xlink="http://www.w3.org/1999/xlink" xmlns:svg="http://www.w3.org/2000/svg">
<g>
<title/>
<path class="msportalfx-svg-c14" fill="#7fba00" d="M 9.5 18 h -4 a 0.5 0.5 0 0 1 -0.5 -0.5 v -3 a 0.5 0.5 0 0 1 0.5 -0.5 h 4 a 0.5 0.5 0 0 1 0.5 0.5 v 3 a 0.5 0.5 0 0 1 -0.5 0.5 Z m 0 7 h -4 a 0.5 0.5 0 0 1 -0.5 -0.5 v -3 a 0.5 0.5 0 0 1 0.5 -0.5 h 4 a 0.5 0.5 0 0 1 0.5 0.5 v 3 a 0.5 0.5 0 0 1 -0.5 0.5 Z m 0 -14 h -4 a 0.5 0.5 0 0 1 -0.5 -0.5 v -3 a 0.5 0.5 0 0 1 0.5 -0.5 h 4 a 0.5 0.5 0 0 1 0.5 0.5 v 3 a 0.5 0.5 0 0 1 -0.5 0.5 Z"/>
<path class="msportalfx-svg-c04" fill="#7a7a7a" d="M 0 1.5 v 6 a 0.5 0.5 0 0 0 0.5 0.5 h 2 a 0.5 0.5 0 0 0 0.5 -0.5 v -3 a 0.5 0.5 0 0 1 0.5 -0.5 h 21 a 0.5 0.5 0 0 1 0.5 0.5 v 3 a 0.5 0.5 0 0 0 0.5 0.5 h 2 a 0.5 0.5 0 0 0 0.5 -0.5 v -6 a 0.5 0.5 0 0 0 -0.5 -0.5 H 0.5 a 0.5 0.5 0 0 0 -0.5 0.5 Z"/>
<path class="msportalfx-svg-c14" fill="#7fba00" d="M 20.5 27 h -4 a 0.5 0.5 0 0 1 -0.5 -0.5 v -3 a 0.5 0.5 0 0 1 0.5 -0.5 h 4 a 0.5 0.5 0 0 1 0.5 0.5 v 3 a 0.5 0.5 0 0 1 -0.5 0.5 Z m 0 7 h -4 a 0.5 0.5 0 0 1 -0.5 -0.5 v -3 a 0.5 0.5 0 0 1 0.5 -0.5 h 4 a 0.5 0.5 0 0 1 0.5 0.5 v 3 a 0.5 0.5 0 0 1 -0.5 0.5 Z m 0 -14 h -4 a 0.5 0.5 0 0 1 -0.5 -0.5 v -3 a 0.5 0.5 0 0 1 0.5 -0.5 h 4 a 0.5 0.5 0 0 1 0.5 0.5 v 3 a 0.5 0.5 0 0 1 -0.5 0.5 Z"/>
<path class="msportalfx-svg-c04" fill="#7a7a7a" d="M 11 10.5 v 6 a 0.5 0.5 0 0 0 0.5 0.5 h 2 a 0.5 0.5 0 0 0 0.5 -0.5 v -3 a 0.5 0.5 0 0 1 0.5 -0.5 h 21 a 0.5 0.5 0 0 1 0.5 0.5 v 3 a 0.5 0.5 0 0 0 0.5 0.5 h 2 a 0.5 0.5 0 0 0 0.5 -0.5 v -6 a 0.5 0.5 0 0 0 -0.5 -0.5 h -27 a 0.5 0.5 0 0 0 -0.5 0.5 Z"/>
<path class="msportalfx-svg-c14" fill="#7fba00" d="M 31.5 36 h -4 a 0.5 0.5 0 0 1 -0.5 -0.5 v -3 a 0.5 0.5 0 0 1 0.5 -0.5 h 4 a 0.5 0.5 0 0 1 0.5 0.5 v 3 a 0.5 0.5 0 0 1 -0.5 0.5 Z m 7 -4 h -4 a 0.5 0.5 0 0 1 -0.5 -0.5 v -3 a 0.5 0.5 0 0 1 0.5 -0.5 h 4 a 0.5 0.5 0 0 1 0.5 0.5 v 3 a 0.5 0.5 0 0 1 -0.5 0.5 Z m 0 7 h -4 a 0.5 0.5 0 0 1 -0.5 -0.5 v -3 a 0.5 0.5 0 0 1 0.5 -0.5 h 4 a 0.5 0.5 0 0 1 0.5 0.5 v 3 a 0.5 0.5 0 0 1 -0.5 0.5 Z m 7 -3 h -4 a 0.5 0.5 0 0 1 -0.5 -0.5 v -3 a 0.5 0.5 0 0 1 0.5 -0.5 h 4 a 0.5 0.5 0 0 1 0.5 0.5 v 3 a 0.5 0.5 0 0 1 -0.5 0.5 Z m -14 7 h -4 a 0.5 0.5 0 0 1 -0.5 -0.5 v -3 a 0.5 0.5 0 0 1 0.5 -0.5 h 4 a 0.5 0.5 0 0 1 0.5 0.5 v 3 a 0.5 0.5 0 0 1 -0.5 0.5 Z m 0 -14 h -4 a 0.5 0.5 0 0 1 -0.5 -0.5 v -3 a 0.5 0.5 0 0 1 0.5 -0.5 h 4 a 0.5 0.5 0 0 1 0.5 0.5 v 3 a 0.5 0.5 0 0 1 -0.5 0.5 Z"/>
<path class="msportalfx-svg-c16" fill="#3999c6" d="M 22 19.5 v 6 a 0.5 0.5 0 0 0 0.5 0.5 h 2 a 0.5 0.5 0 0 0 0.5 -0.5 v -3 a 0.5 0.5 0 0 1 0.5 -0.5 h 21 a 0.5 0.5 0 0 1 0.5 0.5 v 3 a 0.5 0.5 0 0 0 0.5 0.5 h 2 a 0.5 0.5 0 0 0 0.5 -0.5 v -6 a 0.5 0.5 0 0 0 -0.5 -0.5 h -27 a 0.5 0.5 0 0 0 -0.5 0.5 Z m 28 29 v -6 a 0.5 0.5 0 0 0 -0.5 -0.5 h -2 a 0.5 0.5 0 0 0 -0.5 0.5 v 3 a 0.5 0.5 0 0 1 -0.5 0.5 h -21 a 0.5 0.5 0 0 1 -0.5 -0.5 v -3 a 0.5 0.5 0 0 0 -0.5 -0.5 h -2 a 0.5 0.5 0 0 0 -0.5 0.5 v 6 a 0.5 0.5 0 0 0 0.5 0.5 h 27 a 0.5 0.5 0 0 0 0.5 -0.5 Z"/>
<path class="msportalfx-svg-c04" fill="#7a7a7a" d="M 11 28 H 3.5 a 0.5 0.5 0 0 1 -0.5 -0.5 v -3 a 0.5 0.5 0 0 0 -0.5 -0.5 h -2 a 0.5 0.5 0 0 0 -0.5 0.5 v 6 a 0.5 0.5 0 0 0 0.5 0.5 H 11 v -3 Z m 11 9 h -7.5 a 0.5 0.5 0 0 1 -0.5 -0.5 v -3 a 0.5 0.5 0 0 0 -0.5 -0.5 h -2 a 0.5 0.5 0 0 0 -0.5 0.5 v 6 a 0.5 0.5 0 0 0 0.5 0.5 H 22 v -3 Z"/>
</g>
</svg>