<svg xmlns="http://www.w3.org/2000/svg" class="" id="FxSymbol0-0bf" role="presentation" viewBox="-526.909 -96 50 50" focusable="false" xmlns:xlink="http://www.w3.org/1999/xlink" xmlns:svg="http://www.w3.org/2000/svg">
<g>
<title/>
<path class="msportalfx-svg-c19" fill="#0072c6" d="M -526.909 -96 h 50 v 50 h -50 Z"/>
<g class="msportalfx-svg-c01" fill="#ffffff">
<path d="M -500.409 -76.375 c -0.25 0.125 -0.375 0.125 -0.75 0.25 v 12.875 c 0.375 0.125 0.875 0.375 1.25 0.75 l 5.75 -4.625 c -0.125 -0.25 -0.125 -0.75 -0.125 -1.125 s 0.125 -1 0.25 -1.375 l -6.375 -6.75 Z m -9.5 6.75 c 0.25 0.375 0.375 1 0.375 1.5 c 0 0.375 -0.125 0.875 -0.25 1.25 l 5.75 4.625 c 0.25 -0.25 0.75 -0.5 1.125 -0.75 v -13.125 c -0.25 -0.125 -0.375 -0.125 -0.5 -0.25 l -6.5 6.75 Z"/>
<path d="M -501.909 -91 l -20 23.75 l 20 16.25 l 20 -16.25 l -20 -23.75 Z m 10.875 26.125 c -0.75 0 -1.375 -0.25 -2 -0.75 l -5.75 4.75 c 0.125 0.25 0.125 0.5 0.125 0.875 c 0 1.75 -1.375 3.25 -3.25 3.25 s -3.25 -1.375 -3.25 -3.25 c 0 -0.25 0 -0.5 0.125 -0.75 l -6.125 -4.75 c -0.5 0.375 -1.125 0.5 -1.75 0.5 c -1.75 0 -3.25 -1.375 -3.25 -3.25 c 0 -1.75 1.375 -3.25 3.25 -3.25 c 0.5 0 1 0.125 1.5 0.375 l 6.375 -7 c -0.125 -0.375 -0.25 -0.875 -0.25 -1.375 c 0 -1.75 1.375 -3.25 3.25 -3.25 s 3.25 1.375 3.25 3.25 c 0 0.5 -0.125 1.125 -0.375 1.5 l 6.25 7 a 3.85 3.85 0 0 1 1.625 -0.375 c 1.75 0 3.25 1.375 3.25 3.25 a 3.027 3.027 0 0 1 -3 3.25 Z"/>
</g>
</g>
</svg>