<svg xmlns="http://www.w3.org/2000/svg" class="fxs-portal-svg" id="FxSymbol0-0be" role="presentation" viewBox="0 0 50 50" focusable="false" xmlns:xlink="http://www.w3.org/1999/xlink" xmlns:svg="http://www.w3.org/2000/svg">
<g>
<title/>
<title>icons_072216</title>
<path class="msportalfx-svg-c19" fill="#0072c6" d="M 0 2 h 11 v 11 H 0 Z m 13 0 h 12 v 11 H 13 Z m 14 0 h 11 v 11 H 27 Z M 0 15 h 11 v 11 H 0 Z m 13 0 h 12 v 11 H 13 Z m 14 0 h 11 v 11 H 27 Z M 0 28 h 11 v 12 H 0 Z m 13 0 h 12 v 12 H 13 Z m 14 0 h 11 v 12 H 27 Z"/>
<path class="msportalfx-svg-c01" fill="#ffffff" d="M 30.808 45.742 a 0.311 0.311 0 0 1 -0.161 -0.042 l -10.462 -6 a 0.309 0.309 0 0 1 -0.161 -0.273 V 27.4 a 0.319 0.319 0 0 1 0.161 -0.276 a 0.332 0.332 0 0 1 0.319 0 l 10.46 6 a 0.32 0.32 0 0 1 0.156 0.275 v 12.028 a 0.313 0.313 0 0 1 -0.156 0.273 a 0.319 0.319 0 0 1 -0.157 0.042 m 2.954 0.058 a 0.311 0.311 0 0 0 0.161 -0.042 l 10.462 -6 a 0.309 0.309 0 0 0 0.161 -0.273 V 27.454 a 0.319 0.319 0 0 0 -0.161 -0.276 a 0.332 0.332 0 0 0 -0.319 0 l -10.46 6 a 0.32 0.32 0 0 0 -0.156 0.275 v 12.029 a 0.313 0.313 0 0 0 0.156 0.273 a 0.319 0.319 0 0 0 0.157 0.042"/>
<path class="msportalfx-svg-c01" fill="#ffffff" d="M 32.316 49.322 a 0.306 0.306 0 0 1 -0.157 -0.045 l -10.494 -6.014 a 0.315 0.315 0 0 1 -0.159 -0.276 a 0.308 0.308 0 0 1 0.159 -0.27 l 10.427 -5.976 a 0.325 0.325 0 0 1 0.315 0 l 10.5 6.018 a 0.317 0.317 0 0 1 0.158 0.27 a 0.321 0.321 0 0 1 -0.158 0.275 l -10.432 5.973 a 0.312 0.312 0 0 1 -0.159 0.045"/>
<path class="msportalfx-svg-c01" fill="#ffffff" d="M 32.316 41 a 0.306 0.306 0 0 1 -0.157 -0.045 l -10.494 -6.011 a 0.315 0.315 0 0 1 -0.159 -0.276 a 0.308 0.308 0 0 1 0.159 -0.27 l 10.427 -5.976 a 0.325 0.325 0 0 1 0.315 0 L 42.9 34.44 a 0.317 0.317 0 0 1 0.158 0.27 a 0.321 0.321 0 0 1 -0.158 0.275 l -10.425 5.973 a 0.312 0.312 0 0 1 -0.159 0.045"/>
<path class="msportalfx-svg-c15" fill="#59b4d9" d="M 30.808 48.461 a 0.311 0.311 0 0 1 -0.161 -0.042 l -10.462 -6 a 0.309 0.309 0 0 1 -0.161 -0.273 V 30.118 a 0.319 0.319 0 0 1 0.161 -0.276 a 0.332 0.332 0 0 1 0.319 0 l 10.46 6 a 0.32 0.32 0 0 1 0.156 0.275 v 12.029 a 0.313 0.313 0 0 1 -0.156 0.273 a 0.319 0.319 0 0 1 -0.157 0.042 m 2.961 0 a 0.331 0.331 0 0 1 -0.161 -0.042 a 0.314 0.314 0 0 1 -0.157 -0.273 V 36.191 a 0.321 0.321 0 0 1 0.157 -0.275 l 10.458 -5.994 a 0.328 0.328 0 0 1 0.32 0 a 0.318 0.318 0 0 1 0.156 0.272 v 11.955 a 0.316 0.316 0 0 1 -0.156 0.273 l -10.462 6 a 0.291 0.291 0 0 1 -0.156 0.042"/>
<path class="msportalfx-svg-c01" opacity="0.5" fill="#ffffff" d="M 33.768 48.461 a 0.331 0.331 0 0 1 -0.161 -0.042 a 0.314 0.314 0 0 1 -0.157 -0.273 V 36.191 a 0.321 0.321 0 0 1 0.157 -0.275 l 10.458 -5.994 a 0.328 0.328 0 0 1 0.32 0 a 0.318 0.318 0 0 1 0.156 0.272 v 11.955 a 0.316 0.316 0 0 1 -0.156 0.273 l -10.462 6 a 0.291 0.291 0 0 1 -0.156 0.042"/>
<path class="msportalfx-svg-c16" fill="#3999c6" d="M 32.316 33.842 a 0.306 0.306 0 0 1 -0.157 -0.045 l -10.494 -6.015 a 0.315 0.315 0 0 1 -0.159 -0.276 a 0.308 0.308 0 0 1 0.159 -0.27 l 10.427 -5.976 a 0.325 0.325 0 0 1 0.315 0 l 10.5 6.018 a 0.317 0.317 0 0 1 0.158 0.27 a 0.321 0.321 0 0 1 -0.158 0.275 L 32.475 33.8 a 0.312 0.312 0 0 1 -0.159 0.045"/>
</g>
</svg>