<svg xmlns="http://www.w3.org/2000/svg" class="" id="FxSymbol0-0bc" role="presentation" viewBox="-568.4 -96 40 40" focusable="false" xmlns:xlink="http://www.w3.org/1999/xlink" xmlns:svg="http://www.w3.org/2000/svg">
<g>
<title/>
<path class="msportalfx-svg-c97" fill="#ffb900" d="M -568.4 -96 h 40 v 40 h -40 Z"/>
<g class="msportalfx-svg-c01" fill="#ffffff">
<path d="M -547.2 -80.3 c -0.2 0.1 -0.3 0.1 -0.6 0.2 v 10.3 c 0.3 0.1 0.7 0.3 1 0.6 l 4.6 -3.7 c -0.1 -0.2 -0.1 -0.6 -0.1 -0.9 c 0 -0.3 0.1 -0.8 0.2 -1.1 l -5.1 -5.4 Z m -7.6 5.4 c 0.2 0.3 0.3 0.8 0.3 1.2 c 0 0.3 -0.1 0.7 -0.2 1 l 4.6 3.7 c 0.2 -0.2 0.6 -0.4 0.9 -0.6 v -10.5 c -0.2 -0.1 -0.3 -0.1 -0.4 -0.2 l -5.2 5.4 Z"/>
<path d="M -548.4 -92 l -16 19 l 16 13 l 16 -13 l -16 -19 Z m 8.7 20.9 c -0.6 0 -1.1 -0.2 -1.6 -0.6 l -4.6 3.8 c 0.1 0.2 0.1 0.4 0.1 0.7 c 0 1.4 -1.1 2.6 -2.6 2.6 s -2.6 -1.1 -2.6 -2.6 c 0 -0.2 0 -0.4 0.1 -0.6 l -4.9 -3.8 c -0.4 0.3 -0.9 0.4 -1.4 0.4 c -1.4 0 -2.6 -1.1 -2.6 -2.6 c 0 -1.4 1.1 -2.6 2.6 -2.6 c 0.4 0 0.8 0.1 1.2 0.3 l 5.1 -5.6 c -0.1 -0.3 -0.2 -0.7 -0.2 -1.1 c 0 -1.4 1.1 -2.6 2.6 -2.6 s 2.6 1.1 2.6 2.6 c 0 0.4 -0.1 0.9 -0.3 1.2 l 5 5.6 c 0.4 -0.2 0.9 -0.3 1.3 -0.3 c 1.4 0 2.6 1.1 2.6 2.6 c 0.1 1.5 -1.1 2.6 -2.4 2.6 Z"/>
</g>
</g>
</svg>