<svg xmlns="http://www.w3.org/2000/svg" class="" id="FxSymbol0-0b8" role="presentation" viewBox="0 0 212 250" focusable="false" xmlns:xlink="http://www.w3.org/1999/xlink" xmlns:svg="http://www.w3.org/2000/svg">
<g>
<title/>
<path fill="#58b4d9" d="M 129.979 0.04 c 33.738 1.193 60.724 28.925 60.724 62.962 v 36.786 h 1.806 c 10.497 0 19.007 8.506 19.007 19.005 v 112.202 c 0 10.496 -8.501 19.005 -19.007 19.005 H 19.491 C 8.994 250 0.484 241.494 0.484 230.995 V 118.793 c 0 -10.496 8.501 -19.005 19.007 -19.005 h 1.806 V 63.002 c 0 -34.036 26.995 -61.769 60.725 -62.962 h 47.957 Z M 61.157 99.788 h 90.932 V 57.831 c 0 -13.812 -11.192 -25.008 -24.998 -25.008 H 86.155 c -13.802 0 -24.998 11.197 -24.998 25.008 v 41.957 Z m 22.017 74.71 l 39.824 -15.287 c 3.695 3.467 8.598 5.579 13.979 5.579 c 11.495 0 20.813 -9.64 20.813 -21.531 c 0 -11.891 -9.318 -21.53 -20.813 -21.53 c -10.188 0 -18.666 7.573 -20.462 17.574 l -65.044 24.968 a 10.445 10.445 0 0 0 -6.505 7.7 c -1.505 5.166 1.177 10.709 6.294 12.673 l 65.148 25.008 c 1.536 10.323 10.16 18.227 20.569 18.227 c 11.495 0 20.813 -9.639 20.813 -21.53 c 0 -11.891 -9.318 -21.531 -20.813 -21.531 c -5.154 0 -9.871 1.938 -13.506 5.149 l -40.297 -15.469 Z"/>
</g>
</svg>