<svg xmlns="http://www.w3.org/2000/svg" class="" id="FxSymbol0-0bb" role="presentation" viewBox="0 0 50 50" focusable="false" xmlns:xlink="http://www.w3.org/1999/xlink" xmlns:svg="http://www.w3.org/2000/svg">
<g>
<title/>
<path class="msportalfx-svg-c17" fill="#804998" d="M 49 25 c 0 13.254 -10.746 24 -24.001 24 S 1 38.254 1 25 S 11.744 1 24.999 1 S 49 11.746 49 25"/>
<path class="msportalfx-svg-c01" opacity="0.15" fill="#ffffff" d="M 13.499 44.918 C 2.498 38.567 -1.269 24.5 5.081 13.5 S 25.498 -1.271 36.499 5.081"/>
<path class="msportalfx-svg-c01" fill="#ffffff" d="M 38.061 29.061 L 35.94 26.94 l -9.256 9.256 c -0.06 -0.027 -0.122 -0.048 -0.184 -0.072 V 22 h -3 v 14.123 c -0.062 0.024 -0.124 0.045 -0.184 0.072 l -6.51 -6.51 c 0.23 -0.517 0.363 -1.085 0.363 -1.687 a 4.175 4.175 0 0 0 -4.17 -4.166 c -2.299 0.002 -4.167 1.873 -4.166 4.17 s 1.871 4.166 4.167 4.166 h 0.003 a 4.13 4.13 0 0 0 1.682 -0.362 l 6.51 6.51 a 4.137 4.137 0 0 0 -0.363 1.687 a 4.173 4.173 0 0 0 4.167 4.166 h 0.003 a 4.174 4.174 0 0 0 4.166 -4.17 c 0 -0.599 -0.134 -1.166 -0.363 -1.682 l 9.256 -9.256 Z M 13 27.832 c 0.046 0 0.088 0.019 0.119 0.049 l -0.237 0.237 a 0.171 0.171 0 0 1 -0.049 -0.119 c -0.001 -0.079 0.089 -0.167 0.167 -0.167 Z m 12 12.336 a 0.167 0.167 0 0 1 -0.118 -0.049 L 25 40 l 0.119 0.119 a 0.171 0.171 0 0 1 -0.119 0.049 Z"/>
<path class="msportalfx-svg-c14" fill="#7fba00" d="M 27.168 39.999 a 2.168 2.168 0 1 1 -2.169 -2.167 H 25 c 1.197 0 2.167 0.97 2.168 2.167"/>
<path class="msportalfx-svg-c01" fill="#ffffff" d="M 36.999 32.168 c -2.296 0 -4.165 -1.868 -4.167 -4.166 s 1.867 -4.168 4.166 -4.17 a 4.175 4.175 0 0 1 4.17 4.166 a 4.172 4.172 0 0 1 -4.166 4.17 h -0.003 Z M 37 27.832 c -0.078 0 -0.168 0.088 -0.168 0.167 a 0.168 0.168 0 1 0 0.168 -0.167 Z"/>
<path class="msportalfx-svg-c14" fill="#7fba00" d="M 39.168 27.999 a 2.168 2.168 0 1 1 -2.169 -2.167 H 37 c 1.197 0 2.167 0.97 2.168 2.167 m -24 0 a 2.168 2.168 0 1 1 -2.169 -2.167 H 13 c 1.197 0 2.167 0.97 2.168 2.167"/>
<path class="msportalfx-svg-c17" fill="#804998" d="M 29.973 14.9 c 0 2.707 -2.193 4.9 -4.9 4.9 s -4.9 -2.193 -4.9 -4.9 s 2.193 -4.9 4.9 -4.9 c 2.707 0 4.9 2.193 4.9 4.9"/>
<path class="msportalfx-svg-c01" fill="#ffffff" d="M 25.073 7 c -4.364 0 -7.9 3.536 -7.9 7.9 s 3.536 7.9 7.9 7.9 s 7.9 -3.536 7.9 -7.9 s -3.536 -7.9 -7.9 -7.9 Z m 0 12.8 a 4.899 4.899 0 0 1 -4.9 -4.9 c 0 -2.707 2.193 -4.9 4.9 -4.9 c 2.707 0 4.9 2.193 4.9 4.9 c 0 2.707 -2.193 4.9 -4.9 4.9 Z"/>
<path class="msportalfx-svg-c01" opacity="0.5" fill="#ffffff" d="M 16.021 27.1 l 6.762 -6.762 a 5.932 5.932 0 0 1 -2.388 -1.855 L 13.9 24.979 a 3.16 3.16 0 0 1 2.121 2.121 Z m 17.997 0 l -6.762 -6.762 a 5.932 5.932 0 0 0 2.388 -1.855 l 6.496 6.496 a 3.159 3.159 0 0 0 -2.122 2.121 Z"/>
</g>
</svg>