<svg xmlns="http://www.w3.org/2000/svg" class="" id="FxSymbol0-0b6" role="presentation" viewBox="0 0 115 115" focusable="false" xmlns:xlink="http://www.w3.org/1999/xlink" xmlns:svg="http://www.w3.org/2000/svg">
<g>
<title/>
<circle class="msportalfx-svg-c17" fill="#804998" cx="49.44" cy="51.528" r="39.348"/>
<path class="msportalfx-svg-c01" fill="#ffffff" d="M 60.701 38.554 c 4.67 2.38 7.746 7.262 7.746 12.52 c -0.843 0 -2.173 0.288 -2.945 0 c -0.831 -0.309 -0.469 -0.16 -0.638 -1.409 a 10.235 10.235 0 0 0 -0.886 -2.966 c -1.813 -3.886 -5.916 -6.364 -10.207 -6.076 c -4.137 0.278 -7.807 3.134 -9.185 7.031 c -0.75 2.121 -0.384 4.372 -1.051 6.508 a 10.592 10.592 0 0 1 -3.781 5.339 c 4.669 2.38 7.746 7.262 7.746 12.52 c -0.835 0 -2.189 0.283 -2.946 0 c -0.715 -0.267 -0.459 -0.051 -0.603 -1.06 c -0.148 -1.042 -0.354 -2.028 -0.774 -3.003 c -1.641 -3.813 -5.478 -6.411 -9.642 -6.411 c -4.049 0 -7.784 2.448 -9.496 6.099 a 10.195 10.195 0 0 0 -0.886 2.966 c -0.114 0.847 0.125 1.119 -0.495 1.409 c -0.681 0.318 -2.305 0 -3.089 0 c 0 -5.257 3.075 -10.142 7.746 -12.52 c -5.083 -3.759 -5.638 -11.355 -1.173 -15.82 c 4.465 -4.466 12.058 -3.908 15.82 1.174 a 14.389 14.389 0 0 1 6.3 -6.302 c -7.931 -5.865 -3.643 -18.901 6.219 -18.901 c 9.866 0.002 14.149 13.034 6.22 18.902 c 1.182 0.602 0.601 -0.311 0 0 Z M 33.535 58.057 c 8.993 0 8.989 -13.954 0 -13.965 c -8.989 -0.011 -8.992 13.965 0 13.965 Z M 47.5 30.127 c 0 8.993 13.976 8.989 13.965 0 c -0.011 -8.988 -13.965 -8.993 -13.965 0 Z m 5.063 46.185 L 77.37 51.503 l 24.647 24.647 l -24.809 24.808 Z"/>
<path class="msportalfx-svg-c15" fill="#59b4d9" d="M 79.343 64.884 c -0.355 0.178 -0.533 0.178 -1.066 0.355 v 18.304 c 0.533 0.178 1.244 0.533 1.777 1.066 l 8.174 -6.575 c -0.177 -0.355 -0.177 -1.066 -0.177 -1.599 s 0.177 -1.422 0.355 -1.955 l -9.063 -9.596 Z M 65.837 74.48 c 0.355 0.533 0.533 1.422 0.533 2.132 c 0 0.533 -0.178 1.244 -0.355 1.777 l 8.175 6.575 c 0.355 -0.355 1.066 -0.711 1.599 -1.066 V 65.239 c -0.355 -0.178 -0.533 -0.178 -0.711 -0.355 l -9.241 9.596 Z"/>
<path class="msportalfx-svg-c15" fill="#59b4d9" d="M 77.21 44.092 L 48.777 77.857 l 28.434 23.102 l 28.433 -23.102 L 77.21 44.092 Z m 15.461 37.141 c -1.066 0 -1.955 -0.355 -2.843 -1.066 l -8.175 6.753 c 0.178 0.355 0.178 0.711 0.178 1.244 c 0 2.488 -1.955 4.62 -4.62 4.62 s -4.621 -1.955 -4.621 -4.62 c 0 -0.355 0 -0.711 0.178 -1.066 l -8.708 -6.753 c -0.711 0.533 -1.6 0.711 -2.488 0.711 c -2.488 0 -4.62 -1.955 -4.62 -4.62 c 0 -2.488 1.955 -4.62 4.62 -4.62 c 0.711 0 1.422 0.178 2.133 0.533 l 9.063 -9.952 c -0.178 -0.533 -0.355 -1.244 -0.355 -1.955 c 0 -2.488 1.955 -4.62 4.621 -4.62 s 4.62 1.955 4.62 4.62 c 0 0.711 -0.178 1.599 -0.533 2.132 l 8.885 9.952 c 0.711 -0.355 1.599 -0.533 2.31 -0.533 c 2.488 0 4.621 1.955 4.621 4.62 c 0.177 2.665 -1.956 4.62 -4.266 4.62 Z"/>
</g>
</svg>