<svg xmlns="http://www.w3.org/2000/svg" class="fxs-portal-svg" id="FxSymbol0-0bd" role="presentation" viewBox="0 0 50 50" focusable="false" xmlns:xlink="http://www.w3.org/1999/xlink" xmlns:svg="http://www.w3.org/2000/svg">
<g>
<title/>
<title>icons_072216</title>
<path class="msportalfx-svg-c19" fill="#0072c6" d="M 0 2 h 11 v 11 H 0 Z m 13 0 h 12 v 11 H 13 Z m 14 0 h 11 v 11 H 27 Z M 0 15 h 11 v 11 H 0 Z m 13 0 h 12 v 11 H 13 Z m 14 0 h 11 v 11 H 27 Z M 0 28 h 11 v 12 H 0 Z m 13 0 h 12 v 12 H 13 Z m 14 0 h 11 v 12 H 27 Z"/>
<circle class="msportalfx-svg-c15" fill="#59b4d9" stroke="#59b4d9" stroke-miterlimit="10" stroke-width="0.194" cx="32.3" cy="35.1" r="13.5"/>
<path class="msportalfx-svg-c13" fill="#b8d432" d="M 45.849 34.636 l -4.522 -4.522 a 1.581 1.581 0 0 0 -2.348 0 a 1.653 1.653 0 0 0 0 2.348 l -1.739 -1.739 a 1.66 1.66 0 0 0 -2.348 2.348 l 3.908 3.913 l 0.783 0.783 l 1.3 1.3 a 1.66 1.66 0 0 1 -2.348 2.348 l -1.3 -1.3 l -0.522 -0.522 l -0.7 -0.7 a 1.66 1.66 0 0 0 -2.348 2.348 l 2.7 2.7 a 1.66 1.66 0 1 0 -2.348 2.348 l 1.917 1.911 a 13.213 13.213 0 0 0 9.914 -13.567 Z m -22.154 3.897 a 2 2 0 0 0 0 -2.957 L 21.521 33.4 a 2 2 0 0 0 2.957 0 a 2.137 2.137 0 0 0 0.435 -2.348 l 2.957 2.957 a 2 2 0 0 0 2.957 0 a 2.073 2.073 0 0 0 0 -2.957 l -2.609 -2.783 a 2 2 0 0 1 0 -2.957 a 2.073 2.073 0 0 1 2.957 0 l 1.391 1.391 a 2.091 2.091 0 0 0 2.957 -2.957 l -1.993 -2.193 a 12.889 12.889 0 0 0 -11.076 4.053 A 13.6 13.6 0 0 0 18.8 36.671 l 1.851 1.949 a 2.179 2.179 0 0 0 3.044 -0.087 Z"/>
</g>
</svg>