<svg xmlns="http://www.w3.org/2000/svg" class="fxs-portal-svg" id="FxSymbol0-0c0" role="presentation" viewBox="0 0 76.031 100" focusable="false" xmlns:xlink="http://www.w3.org/1999/xlink" xmlns:svg="http://www.w3.org/2000/svg">
<g>
<title/>
<title>MSI_2</title>
<path class="msportalfx-svg-c11" fill="#fcd116" d="M 28.284 81.85 a 5.07 5.07 0 0 1 0 -7.172 l 11.128 -11.127 V 53.6 l 16.433 -16.434 a 10.83 10.83 0 0 0 0 -15.314 L 37.166 3.172 a 10.831 10.831 0 0 0 -15.316 0 L 3.172 21.852 a 10.828 10.828 0 0 0 0 15.314 L 20.908 54.9 v 1.5 l -5.049 5.05 l 5.005 5.005 l -5.005 5 l 5.005 5.005 l -5.005 5 l 5.049 5.05 v 0.063 l 8.6 8.6 l 6.051 -6.051 Z m -4.923 -68.016 a 6.147 6.147 0 1 1 6.147 6.147 a 6.148 6.148 0 0 1 -6.147 -6.147 Z"/>
<path class="msportalfx-svg-c01" opacity="0.5" fill="#ffffff" d="M 12.364 25.92 h 35.482 v 5.1 H 12.364 Z m 0 8.297 h 35.482 v 5.1 H 12.364 Z"/>
<path class="msportalfx-svg-c15" fill="#59b4d9" d="M 54.3 100 a 3.978 3.978 0 0 1 -2.835 -1.175 L 33.735 81.1 a 4.008 4.008 0 0 1 0 -5.67 L 51.461 57.7 a 4.005 4.005 0 0 1 5.67 0 l 17.724 17.729 a 4.006 4.006 0 0 1 0 5.672 L 57.131 98.825 A 3.978 3.978 0 0 1 54.3 100"/>
<path class="msportalfx-svg-c01" fill="#ffffff" d="M 66.132 74.867 a 3.393 3.393 0 0 0 -2.839 5.262 l -6.733 6.732 a 3.991 3.991 0 0 0 -0.57 -0.324 V 69.36 a 3.4 3.4 0 1 0 -3.388 0 v 17.176 a 3.929 3.929 0 0 0 -0.55 0.307 l -6.74 -6.74 a 3.493 3.493 0 1 0 -1.744 1.361 l 7.085 7.086 a 3.957 3.957 0 1 0 7.292 0.028 l 7.106 -7.105 a 3.356 3.356 0 0 0 1.079 0.191 a 3.4 3.4 0 0 0 0 -6.8 Z"/>
<path class="msportalfx-svg-c01" opacity="0.5" fill="#ffffff" d="M 53.484 67.092 l 1.55 -1.552 l 12.714 12.71 l -1.552 1.551 Z"/>
<path class="msportalfx-svg-c01" opacity="0.5" fill="#ffffff" d="M 40.859 78.262 L 53.57 65.55 l 1.552 1.551 L 42.41 79.813 Z"/>
<path class="msportalfx-svg-c13" fill="#b8d432" d="M 56.612 90.1 a 2.356 2.356 0 1 1 -2.356 -2.355 a 2.355 2.355 0 0 1 2.356 2.355 m -0.427 -23.67 a 1.89 1.89 0 1 1 -1.89 -1.89 a 1.889 1.889 0 0 1 1.89 1.89 M 44.352 78.265 a 1.89 1.89 0 1 1 -1.89 -1.89 a 1.891 1.891 0 0 1 1.89 1.89 m 23.67 0 a 1.891 1.891 0 1 1 -1.891 -1.89 a 1.891 1.891 0 0 1 1.891 1.89"/>
<path class="msportalfx-svg-c01" opacity="0.1" fill="#ffffff" d="M 57.131 57.7 a 4 4 0 0 0 -5.669 0 L 33.735 75.429 a 4.008 4.008 0 0 0 0 5.67 l 10.036 10.036 L 62.65 63.222 Z"/>
<path class="msportalfx-svg-c10" opacity="0.4" fill="#ff8c00" d="M 34.788 68.137 v -12.92 l -3.864 1.903 v 14.881 l 3.864 -3.864 Z"/>
</g>
</svg>