<svg xmlns="http://www.w3.org/2000/svg" class="" id="FxSymbol0-080" role="presentation" viewBox="0 0 50 50" focusable="false" xmlns:xlink="http://www.w3.org/1999/xlink" xmlns:svg="http://www.w3.org/2000/svg">
<g>
<title/>
<path class="msportalfx-svg-c03" fill="#a0a1a2" d="M 2 46 h 46 a 2 2 0 0 0 2 -2 V 11 H 0 v 33 a 2 2 0 0 0 2 2 Z"/>
<path class="msportalfx-svg-c04" fill="#7a7a7a" d="M 0 5.988 V 11 h 50 V 5.988 A 1.994 1.994 0 0 0 48 4 H 2 C 0.895 4 0 4.89 0 5.988 Z"/>
<path class="msportalfx-svg-c01" fill="#ffffff" d="M 4 25 h 42 v 7 H 4 Z m 0 -10 h 42 v 7 H 4 Z"/>
<path class="msportalfx-svg-c13" fill="#b8d432" d="M 4 35 h 42 v 7 H 4 Z"/>
<path class="msportalfx-svg-c01" opacity="0.2" fill="#ffffff" d="M 43.6 4 H 1.988 C 0.89 4 0 4.89 0 5.988 V 44 a 2 2 0 0 0 2 2 h 2 L 43.6 4 Z"/>
<path class="msportalfx-svg-c01" opacity="0.4" fill="#ffffff" d="M 12 22 v 17 h 11 v -4 h 4 v 4 h 11 V 22 Z"/>
<path class="msportalfx-svg-c19" fill="#0072c6" d="M 13 19 v 19 h 9 V 26 h 6 v 12 h 9 V 19 Z"/>
</g>
</svg>