<svg xmlns="http://www.w3.org/2000/svg" class="" id="FxSymbol0-07f" role="presentation" viewBox="0 0 420.2 401.8" focusable="false" xmlns:xlink="http://www.w3.org/1999/xlink" xmlns:svg="http://www.w3.org/2000/svg">
<g>
<title/>
<path fill="#45add2" d="M 205.3 239.6 v -37.5 c 0 -3.8 -3.2 -6.9 -7.1 -6.9 h -30.1 c -1.5 0 -2.7 -0.5 -3.6 -1.4 c -0.9 -0.9 -1.4 -2.1 -1.4 -3.6 c 0 -1.3 0.5 -2.5 1.6 -3.8 l 50 -49.9 c 0.9 -0.9 2 -1.3 3.4 -1.4 c -11 -44.6 -49.8 -78.6 -97.5 -80.8 c -61.9 -2.8 -113 48.4 -110.2 110.2 C 13 221 60.4 265.1 117 265.1 h 88.4 v -25.5 Z"/>
<path fill="#2272b9" d="M 265.2 287.2 v -22.1 h 40.7 c 57.3 0 104 -44.8 104 -99.8 c 0 -52.8 -43.5 -96 -97.9 -98.1 c -20.4 -36 -59.6 -58.3 -103.1 -58.3 c -28.8 0 -55.3 9.9 -75.6 26.8 c 26 4.1 50.1 16.2 69.1 35.3 c 22.3 22.3 35.2 51.5 36.7 82.6 l 33 32.9 c 0.9 0.9 1.4 2.1 1.4 3.6 c 0 1.4 -0.5 2.5 -1.5 3.5 s -2.2 1.5 -3.5 1.5 h -29.2 v 129.4 c 0 3.9 -3.2 7.1 -7.2 7.1 h 0.2 h -30.1 c -1.4 0 -2.5 0.5 -3.5 1.5 s -1.5 2.2 -1.5 3.5 c 0 1.5 0.5 2.7 1.4 3.6 l 50.2 50 c 0.9 0.9 2.1 1.4 3.6 1.4 s 2.7 -0.5 3.6 -1.4 l 50 -49.9 c 1 -1.3 1.6 -2.5 1.6 -3.8 c 0 -1.5 -0.5 -2.7 -1.4 -3.6 c -0.9 -0.9 -2.1 -1.4 -3.6 -1.4 h -30.1 c -3.9 0 -7.1 -3.1 -7.1 -6.9 v -37.4 Z"/>
</g>
</svg>