<svg xmlns="http://www.w3.org/2000/svg" class="" id="FxSymbol0-07e" role="presentation" viewBox="0 0 420.2 270.1" focusable="false" xmlns:xlink="http://www.w3.org/1999/xlink" xmlns:svg="http://www.w3.org/2000/svg">
<g>
<title/>
<path fill="#2272b9" d="M 312.1 65.2 c -20.5 -36 -59.7 -58.3 -103.2 -58.3 c -28.8 0 -55.3 9.9 -75.6 26.8 c 26 4.1 50.1 16.2 69.1 35.3 c 23.7 23.7 36.8 55.2 36.8 88.6 v 105.5 h 66.7 c 57.3 0 104 -44.8 104 -99.8 c 0 -52.7 -43.5 -95.9 -97.8 -98.1 Z"/>
<path fill="#45add2" d="M 120.6 52.4 c -61.9 -2.8 -113 48.4 -110.2 110.2 c 2.6 56.5 50 100.6 106.6 100.6 h 104.3 V 158.9 c -0.1 -56.6 -44.2 -104 -100.7 -106.5 Z"/>
<path class="msportalfx-svg-c01" fill="#ffffff" d="M 198.4 166.8 V 154 c 0 -1.6 -1 -3 -2.6 -3.5 l -17.8 -5.8 c -1 -0.3 -1.9 -1.1 -2.3 -2.1 l -3.9 -9.4 c -0.4 -1 -0.4 -2.1 0.1 -3 L 180 113 c 0.7 -1.4 0.4 -3.1 -0.7 -4.2 l -9.1 -9.1 c -1.1 -1.1 -2.9 -1.4 -4.3 -0.7 l -16.7 8.5 c -1 0.5 -2.1 0.5 -3.1 0.1 l -9.4 -3.9 c -1 -0.4 -1.7 -1.2 -2.1 -2.2 l -6.4 -17.9 c -0.5 -1.5 -1.9 -2.5 -3.5 -2.5 H 112 c -1.6 0 -3 1 -3.5 2.6 l -5.8 17.8 c -0.3 1 -1.1 1.9 -2.1 2.3 l -9.4 3.9 c -1 0.4 -2.1 0.4 -3 -0.1 L 71 99.5 c -1.4 -0.7 -3.1 -0.4 -4.2 0.7 l -9.1 9.1 c -1.1 1.1 -1.4 2.9 -0.7 4.3 l 8.5 16.7 c 0.5 1 0.5 2.1 0.1 3.1 l -3.9 9.4 c -0.4 1 -1.2 1.7 -2.2 2.1 l -17.9 6.4 c -1.5 0.5 -2.5 1.9 -2.5 3.5 v 12.8 c 0 1.6 1 3 2.5 3.5 l 17.8 5.8 c 1 0.3 1.9 1.1 2.3 2.1 l 3.9 9.4 c 0.4 1 0.4 2.1 -0.1 3 l -8.1 17.2 c -0.7 1.4 -0.4 3.1 0.7 4.2 l 9.1 9.1 c 1.1 1.1 2.9 1.4 4.3 0.7 l 16.7 -8.5 c 1 -0.5 2.1 -0.5 3.1 -0.1 l 9.4 3.9 c 1 0.4 1.7 1.2 2.1 2.2 l 6.4 17.9 c 0.5 1.5 1.9 2.5 3.5 2.5 h 12.8 c 1.6 0 3 -1 3.5 -2.6 l 5.8 -17.8 c 0.3 -1 1.1 -1.9 2.1 -2.3 l 9.4 -3.9 c 1 -0.4 2.1 -0.4 3 0.1 l 17.2 8.1 c 1.4 0.7 3.1 0.4 4.2 -0.7 l 9.1 -9.1 c 1.1 -1.1 1.4 -2.9 0.7 -4.3 l -8.5 -16.7 c -0.5 -1 -0.5 -2.1 -0.1 -3.1 l 3.9 -9.4 c 0.4 -1 1.2 -1.7 2.2 -2.1 l 17.9 -6.4 c 1.5 -0.6 2.5 -2 2.5 -3.5 Z m -75.9 32.8 c -10.4 1 -20.6 -2.1 -28.6 -8.8 c -8.1 -6.6 -13.1 -16 -14.1 -26.4 c -1 -10.4 2.1 -20.6 8.8 -28.6 c 6.6 -8.1 16 -13.1 26.4 -14.1 c 14.4 -1.5 27.9 5.3 35.8 16.4 c 3.8 5.4 6.1 11.8 6.9 18.8 c 2.1 21.5 -13.6 40.7 -35.2 42.7 Z"/>
</g>
</svg>