<svg xmlns="http://www.w3.org/2000/svg" class="" id="FxSymbol0-0e6" role="presentation" viewBox="0 768 50 50" focusable="false" xmlns:xlink="http://www.w3.org/1999/xlink" xmlns:svg="http://www.w3.org/2000/svg">
<g>
<title/>
<path class="msportalfx-svg-c15" fill="#59b4d9" d="M 26.5 807.6 h 11.8 v 2.5 H 26.5 Z m 0 5.3 h 11.8 v 2.5 H 26.5 Z m 17.9 -22.3 h -0.8 c 0.3 -1.4 0.6 -2.8 0.6 -4.2 c 0 -8.8 -6.3 -15.8 -15 -15.8 c -6.9 0 -12.9 4.5 -14.9 10.8 c -1.1 -0.3 -2.4 -0.6 -3.6 -0.6 c -5.8 0 -10.7 5 -10.7 11 c 0 6.3 4.4 10.5 10.3 10.5 h 4.2 v -2.7 h 11.9 v 5.3 h 11.8 v -2.7 h 6.1 c 3.3 0 5.6 -2.4 5.6 -5.6 c 0.3 -3.3 -2.4 -6 -5.5 -6 Z m -18.1 6.3 H 14.6 v -2.5 h 11.8 v 2.5 Z m 0 -5.2 H 14.6 v -2.5 h 11.8 v 2.5 Z"/>
</g>
</svg>