<svg xmlns="http://www.w3.org/2000/svg" class="" id="FxSymbol0-07a" role="presentation" viewBox="0 0 50 50" focusable="false" xmlns:xlink="http://www.w3.org/1999/xlink" xmlns:svg="http://www.w3.org/2000/svg">
<g>
<title/>
<path class="msportalfx-svg-c19" fill="#0072c6" d="M 47 33 v 14 H 9 v -6 h 20 v -8 h 18 Z M 33 11 H 19 v 8 h 14 v -8 Z M 19 1 H 1 v 10 h 18 V 1 Z m 0 18 H 7 v 8 h 12 v -8 Z m -8 10 H 3 v 6 h 8 v -6 Z"/>
<path class="msportalfx-svg-c01" fill="#ffffff" d="M 47 17 v 14 H 29 v -6 h 10 v -8 h 8 Z M 27 33 h -8 v 6 h 8 v -6 Z"/>
<path class="msportalfx-svg-c03" fill="#a0a1a2" d="M 37 15 v 8 H 27 v 8 H 17 v 8 H 7 v 8.5 A 1.5 1.5 0 0 0 8.5 49 h 39 a 1.5 1.5 0 0 0 1.5 -1.5 V 15 H 37 Z m -8 10 h 8 v 6 h -8 v -6 Z m 8 14 h -8 v -6 h 8 v 6 Z m -18 -6 h 8 v 6 h -8 v -6 Z m -2 14 H 9 v -6 h 8 v 6 Z m 10 0 h -8 v -6 h 8 v 6 Z m 10 0 h -8 v -6 h 8 v 6 Z m 10 0 h -8 v -6 h 8 v 6 Z m 0 -8 h -8 v -6 h 8 v 6 Z m 0 -8 h -8 v -6 h 8 v 6 Z m -8 -8 v -6 h 8 v 6 h -8 Z"/>
<path class="msportalfx-svg-c04" fill="#7a7a7a" d="M 49 15 H 37 V 9 h 10.5 a 1.5 1.5 0 0 1 1.5 1.5 V 15 Z"/>
<path class="msportalfx-svg-c01" opacity="0.1" fill="#ffffff" d="M 1 1 h 18 v 10 H 1 Z"/>
<path class="msportalfx-svg-c01" opacity="0.1" fill="#ffffff" d="M 37 19 V 9 h 10 L 37 19 Z M 27 29 l 6 -6 h -6 v 6 Z m -10 2 v 8 l 8 -8 h -8 Z M 7 39 v 10 l 10 -10 H 7 Z m 26 -20 H 19 v -8 h 14 v 8 Z m -14 -8 H 1 V 1 h 18 v 10 Z m 0 16 H 7 v -8 h 12 v 8 Z m -8 8 H 3 v -6 h 8 v 6 Z"/>
</g>
</svg>