<svg xmlns="http://www.w3.org/2000/svg" class="" id="FxSymbol0-07b" role="presentation" viewBox="0 0 87.2 96.9" focusable="false" xmlns:xlink="http://www.w3.org/1999/xlink" xmlns:svg="http://www.w3.org/2000/svg">
<g>
<title/>
<path fill="#7ac3e0" d="M 29.2 95.6 v 0.3 h 0.3 l -0.3 -0.3 Z"/>
<path fill="#39c" d="M 8.6 14.9 v 67.7 c 0 7 15.5 12.7 34.4 12.9 V 27.4 c -18.7 0 -34 -5.5 -34.4 -12.5 Z"/>
<path class="msportalfx-svg-c15" fill="#59b4d9" d="M 43.8 27.6 H 43 v 67.9 h 0.8 c 19.7 0 35.2 -5.7 35.2 -12.9 v -68 c 0 7.4 -15.9 13 -35.2 13 Z"/>
<path class="msportalfx-svg-c01" fill="#ffffff" d="M 8.6 14.8 v 0.4 c 0.6 6.8 15.9 12.4 34.5 12.4 h 0.8 C 63.1 27.6 79 22 79 14.8 c 0 -5.5 -9.5 -10.2 -22.7 -11.9 c -4 -0.6 -8.1 -0.9 -12.5 -0.9 C 24.5 1.9 8.6 7.8 8.6 14.8 Z m 63.2 -0.6 c 0 1.7 -1.7 3.2 -4.4 4.4 c -5.1 2.5 -13.8 4 -23.7 4 c -14.2 0 -26.3 -3.2 -28 -7.6 v -1 c 0 -4.7 12.5 -8.5 28 -8.5 c 15.2 0.2 28.1 4 28.1 8.7 Z"/>
<path fill="#7fbb42" d="M 71.8 14.2 c 0 -4.7 -12.9 -8.5 -28 -8.5 c 15.1 0 28 4.1 28 8.5 Z M 44 15.9 c -9.1 0 -17.2 1.3 -22.3 3.4 c -3.2 -1.1 -5.3 -2.5 -5.9 -4.2 c 1.5 4.4 13.6 7.6 28 7.6 c 9.8 0 18.5 -1.7 23.7 -4 c -0.6 0.2 -1.1 0.4 -1.7 0.8 c -5.5 -2.3 -13.3 -3.6 -21.8 -3.6 Z"/>
<path fill="#b8d433" d="M 43.8 5.7 c -15.5 0 -28 3.8 -28 8.5 v 1 c 0.6 1.7 2.8 3 5.9 4.2 C 26.8 17.3 34.9 16 44 16 c 8.5 0 16.3 1.3 21.6 3.4 c 0.6 -0.2 1.1 -0.4 1.7 -0.8 c 2.6 -1.1 4.4 -2.6 4.4 -4.4 c 0.1 -4.4 -12.8 -8.5 -27.9 -8.5 Z"/>
<path fill="#9a9b9c" d="M 11 51.9 c 0.2 0.3 0.1 0.6 0 0.9 v -0.9 Z"/>
<path fill="#7c7b7b" stroke="#fff" stroke-miterlimit="10" stroke-width="2" d="M 64 58.5 c 0 -0.5 -0.2 -0.6 -0.6 -0.8 l -4.8 -1.5 c -0.3 -0.1 -0.5 -0.2 -0.6 -0.5 c -0.3 -0.8 -0.7 -1.7 -1 -2.5 c -0.1 -0.3 -0.1 -0.6 0 -0.9 c 0.7 -1.5 1.4 -3 2.2 -4.5 c 0.2 -0.4 0.2 -0.7 -0.2 -1 c -0.8 -0.8 -1.6 -1.5 -2.4 -2.4 c -0.4 -0.5 -0.8 -0.5 -1.3 -0.1 l -0.1 0.1 c -1.4 0.7 -2.8 1.4 -4.1 2.1 c -0.3 0.1 -0.5 0.2 -0.8 0 c -0.8 -0.4 -1.6 -0.7 -2.4 -1 c -0.3 -0.1 -0.5 -0.3 -0.6 -0.7 c -0.6 -1.6 -1.2 -3.2 -1.7 -4.8 c -0.1 -0.3 -0.3 -0.5 -0.6 -0.5 h -3.9 c -0.4 0 -0.5 0.1 -0.7 0.5 c -0.5 1.6 -1 3.2 -1.6 4.8 c -0.1 0.3 -0.2 0.5 -0.5 0.6 c -0.8 0.3 -1.7 0.7 -2.5 1 c -0.3 0.1 -0.6 0.1 -0.9 0 c -1.6 -0.8 -3.2 -1.5 -4.7 -2.3 c -0.3 -0.1 -0.4 -0.1 -0.7 0.1 c -0.9 0.9 -1.8 1.9 -2.8 2.8 c -0.3 0.3 -0.3 0.5 -0.1 0.8 c 0.8 1.5 1.5 3 2.3 4.5 c 0.2 0.3 0.2 0.6 0.1 0.9 c -0.3 0.8 -0.7 1.5 -1 2.3 c -0.1 0.4 -0.3 0.6 -0.7 0.7 c -1.6 0.6 -3.2 1.2 -4.8 1.7 c -0.4 0.1 -0.5 0.3 -0.5 0.6 v 3.9 c 0 0.4 0.1 0.6 0.5 0.7 c 1.6 0.5 3.2 1.1 4.8 1.6 c 0.3 0.1 0.5 0.2 0.6 0.6 c 0.3 0.8 0.7 1.6 1 2.4 c 0.1 0.3 0.1 0.6 0 0.9 c -0.8 1.6 -1.5 3.2 -2.3 4.8 c -0.1 0.2 -0.1 0.4 0.1 0.6 l 2.9 2.9 c 0.1 0.1 0.2 0.3 0.5 0.1 c 0.9 -0.5 1.9 -1 2.8 -1.5 c 0.7 -0.3 1.3 -0.7 2 -1 c 0.3 -0.1 0.5 -0.2 0.8 0 c 0.8 0.4 1.7 0.7 2.5 1 c 0.3 0.1 0.4 0.3 0.5 0.6 c 0.6 1.6 1.2 3.3 1.7 4.9 c 0.1 0.3 0.3 0.5 0.6 0.5 h 3.9 c 0.4 0 0.5 -0.2 0.7 -0.5 c 0.5 -1.6 1.1 -3.2 1.6 -4.8 c 0.1 -0.3 0.2 -0.5 0.5 -0.6 c 0.8 -0.3 1.7 -0.7 2.5 -1 c 0.3 -0.1 0.6 -0.1 0.8 0 c 1.6 0.8 3.2 1.5 4.7 2.3 c 0.3 0.1 0.4 0.1 0.7 -0.1 c 0.9 -0.9 1.8 -1.9 2.8 -2.8 c 0.3 -0.3 0.3 -0.4 0.1 -0.8 c -0.8 -1.5 -1.6 -3.1 -2.3 -4.6 c -0.2 -0.3 -0.2 -0.6 0 -0.9 c 0.4 -0.8 0.7 -1.6 1 -2.4 c 0.1 -0.3 0.3 -0.5 0.6 -0.6 c 1.6 -0.6 3.2 -1.2 4.8 -1.7 c 0.4 -0.1 0.5 -0.3 0.5 -0.7 c 0 -1.4 0 -2.6 0.1 -3.8 Z"/>
<path class="msportalfx-svg-c01" fill="#ffffff" d="M 47.9 53.2 c 0.8 -0.7 0.8 -0.7 1.4 -0.1 c 4 3.8 3.9 10.4 -0.2 14 c -2.9 2.6 -7.6 2.9 -11 0.7 c -0.2 -0.1 -0.4 -0.3 -0.6 -0.4 c -2 -1.6 -3.3 -3.5 -3.7 -6 c -0.6 -3.2 0.4 -6 2.7 -8.3 c 0.3 -0.3 0.3 -0.4 0 -0.7 s -0.5 -0.6 -0.8 -0.9 h 4.6 c 0.2 0 0.3 0.1 0.3 0.3 v 4.5 c -0.5 -0.5 -0.9 -0.8 -1.3 -1.2 c -0.2 -0.2 -0.3 -0.3 -0.6 0 c -3.1 2.6 -2.9 7.7 0.4 10.1 c 0.3 0 0.5 0.2 0.7 0.3 c 1 0.7 2.2 1 3.3 1 c 2.4 -0.1 4.3 -1 5.5 -3.2 c 1.4 -2.6 1 -5.6 -1.1 -7.8 c -0.2 -0.2 -0.6 -0.4 -0.7 -0.8 c -0.1 -0.1 -0.1 -0.2 0 -0.4 c 0.4 -0.4 0.8 -0.7 1.1 -1.1 Z"/>
</g>
</svg>