<svg xmlns="http://www.w3.org/2000/svg" class="" id="FxSymbol0-083" role="presentation" viewBox="0 0 50 50" focusable="false" xmlns:xlink="http://www.w3.org/1999/xlink" xmlns:svg="http://www.w3.org/2000/svg">
<g>
<title/>
<path class="msportalfx-svg-c14" fill="#7fba00" d="M 39.063 18.75 c 1.514 0 2.934 0.289 4.26 0.867 s 2.482 1.359 3.467 2.344 s 1.766 2.14 2.344 3.467 s 0.866 2.746 0.866 4.26 s -0.289 2.934 -0.867 4.26 s -1.359 2.482 -2.344 3.467 s -2.14 1.766 -3.467 2.344 s -2.747 0.867 -4.26 0.867 h -12.5 c -1.514 0 -2.934 -0.289 -4.26 -0.867 s -2.482 -1.359 -3.467 -2.344 s -1.766 -2.14 -2.344 -3.467 s -0.867 -2.747 -0.867 -4.26 s 0.289 -2.934 0.867 -4.26 s 1.359 -2.482 2.344 -3.467 s 2.14 -1.766 3.467 -2.344 s 2.747 -0.867 4.26 -0.867 h 1.563 v 3.125 c -1.237 0 -2.421 0.142 -3.552 0.427 s -2.128 0.741 -2.991 1.367 s -1.55 1.432 -2.063 2.417 s -0.769 2.185 -0.769 3.601 c 0 1.074 0.208 2.083 0.623 3.027 s 0.977 1.77 1.685 2.478 s 1.534 1.27 2.478 1.685 s 1.953 0.623 3.027 0.623 h 12.5 c 1.074 0 2.083 -0.208 3.027 -0.623 s 1.77 -0.977 2.478 -1.685 s 1.27 -1.534 1.685 -2.478 s 0.623 -1.953 0.623 -3.027 c 0 -1.416 -0.256 -2.616 -0.769 -3.601 s -1.2 -1.79 -2.063 -2.417 s -1.86 -1.082 -2.991 -1.367 s -2.315 -0.427 -3.552 -0.427 V 18.75 h 1.562 Z"/>
<path class="msportalfx-svg-c15" fill="#59b4d9" d="M 21.875 31.25 v -3.125 c 1.237 0 2.421 -0.142 3.552 -0.427 s 2.128 -0.741 2.991 -1.367 s 1.55 -1.432 2.063 -2.417 s 0.769 -2.185 0.769 -3.601 c 0 -1.074 -0.208 -2.083 -0.623 -3.027 s -0.977 -1.77 -1.685 -2.478 s -1.534 -1.27 -2.478 -1.685 s -1.952 -0.623 -3.026 -0.623 h -12.5 c -1.074 0 -2.083 0.208 -3.027 0.623 s -1.77 0.977 -2.478 1.685 s -1.27 1.534 -1.685 2.478 s -0.623 1.953 -0.623 3.027 c 0 1.416 0.256 2.616 0.769 3.601 s 1.2 1.79 2.063 2.417 s 1.86 1.082 2.991 1.367 s 2.315 0.427 3.552 0.427 v 3.125 h -1.563 c -1.514 0 -2.934 -0.289 -4.26 -0.867 S 4.195 29.024 3.21 28.04 S 1.444 25.9 0.866 24.573 S 0 21.826 0 20.313 s 0.289 -2.934 0.867 -4.26 s 1.359 -2.482 2.344 -3.467 s 2.14 -1.766 3.467 -2.344 s 2.747 -0.867 4.26 -0.867 h 12.5 c 1.514 0 2.934 0.289 4.26 0.867 s 2.482 1.359 3.467 2.344 c 0.985 0.985 1.766 2.14 2.344 3.467 s 0.867 2.747 0.867 4.26 s -0.289 2.934 -0.867 4.26 s -1.359 2.482 -2.344 3.467 c -0.985 0.985 -2.14 1.766 -3.467 2.344 s -2.747 0.867 -4.26 0.867 h -1.563 Z"/>
</g>
</svg>