<svg xmlns="http://www.w3.org/2000/svg" class="" id="FxSymbol0-04b" role="presentation" viewBox="0 0 50 50" focusable="false" xmlns:xlink="http://www.w3.org/1999/xlink" xmlns:svg="http://www.w3.org/2000/svg">
<g>
<title/>
<path class="msportalfx-svg-c03" fill="#a0a1a2" d="M 20.1 46.5 H 3.5 V 30 h 3.4 c -0.4 -1 -0.6 -2.1 -0.6 -3.3 v -0.2 H 0 V 50 h 23.6 V 36 h -3.5 v 10.5 Z M 43.5 30 h 3 v 16.6 H 29.9 V 36.1 h -3.5 V 50 H 50 V 26.5 h -7.4 c 0.5 1 0.9 2 0.9 3.3 v 0.2 Z m -40 -10 V 3.5 h 16.6 v 9.6 c 1 -0.8 2.3 -1.3 3.5 -1.6 V 0 H 0 v 23.5 h 6.8 C 7.3 22.3 8 21 9 20.1 L 3.5 20 Z m 26.4 -8.9 V 3.5 h 16.6 v 16.6 h -7.3 c 0.3 1 0.5 2.2 0.5 3.4 v 0.1 H 50 V 0 H 26.4 v 10.9 c 0.3 0 0.5 -0.1 0.8 -0.1 c 0.9 0.1 1.8 0.1 2.7 0.3 Z"/>
<path class="msportalfx-svg-c15" fill="#59b4d9" d="M 40.8 29.7 c 0 -2.1 -1.7 -3.7 -3.7 -3.7 h -0.5 c 0.2 -0.8 0.4 -1.7 0.4 -2.6 c 0 -5.5 -4.4 -9.9 -9.9 -9.9 c -4.3 0 -8 2.8 -9.3 6.8 c -0.7 -0.2 -1.4 -0.4 -2.2 -0.4 c -3.7 0 -6.7 3 -6.7 6.8 s 3 6.8 6.7 6.8 h 21.8 c 1.9 -0.2 3.4 -1.8 3.4 -3.8"/>
<path class="msportalfx-svg-c01" opacity="0.2" fill="#ffffff" d="M 19.2 33.5 c -0.9 -0.9 -1.5 -2 -1.8 -3.3 c -0.8 -3.7 1.4 -7.3 5.1 -8.1 c 0.8 -0.2 1.5 -0.2 2.2 -0.1 c 0.3 -3.4 2.4 -6.5 5.5 -8 c -0.9 -0.3 -1.9 -0.5 -3 -0.5 c -4.3 0 -8 2.8 -9.3 6.8 c -0.7 -0.2 -1.4 -0.4 -2.2 -0.4 c -3.7 0 -6.7 3 -6.7 6.8 s 3 6.8 6.7 6.8 h 3.5 Z"/>
</g>
</svg>