<svg xmlns="http://www.w3.org/2000/svg" class="" id="FxSymbol0-082" role="presentation" viewBox="0 0 50 50" focusable="false" xmlns:xlink="http://www.w3.org/1999/xlink" xmlns:svg="http://www.w3.org/2000/svg">
<g>
<title/>
<path class="msportalfx-svg-c10" fill="#ff8c00" d="M 13.7 27.8 v 5.4 L 1 22.4 h 49 V 6.2 C 50 2.6 47 0 43.4 0 H 6.3 C 2.6 0 0 2.2 0 5.9 v 5.9 h 36.6 V 6.4 l 12.7 10.8 H 0 v 14.9 c 0 3.7 2.7 7 6.3 7 h 13.4 l 11 10.8 l 0.1 -10.8 h 12.5 c 3.7 0 6.7 -2.9 6.7 -6.6 v -4.8 H 13.7 Z"/>
<path class="msportalfx-svg-c01" opacity="0.2" fill="#ffffff" d="M 6.3 39.2 H 16 l 5.7 -11.3 h -8.1 v 5.4 L 1 22.4 h 23.3 l 2.8 -5.2 H 0 v 14.9 c 0 3.7 2.7 7 6.3 7.1 Z M 35.6 0 H 6.3 C 2.6 0 0 2.2 0 5.9 v 5.9 h 29.7 L 35.6 0 Z"/>
</g>
</svg>