<svg xmlns="http://www.w3.org/2000/svg" class="" id="FxSymbol0-088" role="presentation" viewBox="0 0 84.1 111.4" focusable="false" xmlns:xlink="http://www.w3.org/1999/xlink" xmlns:svg="http://www.w3.org/2000/svg">
<g>
<title/>
<path fill="#1b3662" d="M 0 15.2 v 80.9 c 0 8.5 18.8 15.2 41.9 15.2 V 15.2 Z"/>
<path fill="#2f4c77" d="M 41.5 111.4 h 0.7 c 23.3 0 41.9 -6.7 41.9 -15.2 v -81 H 41.5 Z"/>
<path class="msportalfx-svg-c01" fill="#ffffff" d="M 84.1 15.2 c 0 8.3 -18.8 15.2 -41.9 15.2 S 0 23.5 0 15.2 S 18.8 0 41.9 0 s 42.2 7 42.2 15.2"/>
<path fill="#7fb900" d="M 75.6 14.3 c 0 5.6 -15 10.1 -33.4 10.1 S 8.5 20 8.5 14.3 s 15 -10.1 33.4 -10.1 s 33.7 4.5 33.7 10.1"/>
<path fill="#b7d332" d="M 68.4 20.4 c 4.5 -1.8 7 -3.8 7 -6.1 c 0 -5.6 -15 -10.1 -33.4 -10.1 S 8.5 8.7 8.5 14.3 c 0 2.2 2.7 4.5 7 6.1 c 6.1 -2.5 15.7 -3.8 26.5 -3.8 s 20.3 1.6 26.4 3.8"/>
<path class="msportalfx-svg-c01" fill="#ffffff" d="M 6.5 82.71 s 3.51 -1.58 4.57 -1.58 c 0 0 3.86 -0.53 5.62 -0.53 s 3.31 -1.4 4.57 -3.34 s 6.32 -7.73 12.12 -9 s 14.76 -2.64 19.68 -9.14 s 7.55 -14.23 15.11 -14.58 s 5.09 -1.93 7.2 -1.93 s 0.88 4 0.88 4 s -0.7 0.53 -0.7 0.7 s -0.55 2.37 -4.4 4.69 s -4 7.73 -4.39 10 s -3.86 13.35 -7.38 16.34 l -0.88 0.35 s -0.35 0.88 -0.7 1.05 s -1.23 -0.7 -1.41 -1.05 s -1.76 3 -2.28 3.69 a 13.7 13.7 0 0 1 -10.72 6.5 s 5.8 -9.66 5.27 -13.18 a 21.6 21.6 0 0 0 -1.58 3.86 c 0 0.7 -1.23 2.11 -3.16 2.28 s -14.23 -2.81 -19.32 0 s -7.2 5.27 -10 5.45 s -5.62 0.18 -6.68 -0.35 c 0 0 2.28 -2.46 2.46 -2.81 c -0.02 -0.01 -3.38 0.69 -3.88 -1.42 Z"/>
<path fill="#1b3662" d="M 75.72 47.22 l 0.53 -0.53 s -2.46 -0.7 -3.16 -2.46 a 0.85 0.85 0 0 0 0 0.7 a 10.72 10.72 0 0 0 2.63 2.29 Z M 64.82 49 s 1.05 -2.46 3.34 -1.93 a 1.82 1.82 0 0 1 -1.41 2.46 a 2.54 2.54 0 0 1 -1.93 -0.53 Z"/>
<path class="msportalfx-svg-c01" fill="#ffffff" stroke="#1b3662" stroke-miterlimit="10" stroke-width="0.5" d="M 72.73 46 s -1.93 2.64 -2.11 3.69 m 2.46 -3.17 a 23.66 23.66 0 0 0 -1.41 3.34 m 1.59 -3.34 a 10.76 10.76 0 0 0 -0.53 3.34"/>
<path class="msportalfx-svg-c01" fill="#ffffff" d="M 62.19 76.21 s -3.16 3 -3.34 4 s 3.51 2.64 5.8 2.11 c 0 0.04 -2.46 -5.41 -2.46 -6.11 Z"/>
</g>
</svg>