<svg xmlns="http://www.w3.org/2000/svg" class="" id="FxSymbol0-08f" role="presentation" viewBox="0 0 16000 16999" focusable="false" xmlns:xlink="http://www.w3.org/1999/xlink" xmlns:svg="http://www.w3.org/2000/svg">
<g>
<title/>
<path class="msportalfx-svg-c01" fill="#ffffff" d="M 12000 3499 V 2499 C 12000 1119 9314 0 6000 0 S 0 1119 0 2499 v 1000 c 0 1380 2686 2499 6000 2499 s 6000 -1119 6000 -2499 Z"/>
<path fill="#2687ce" d="M 6000 16999 c -3281 0 -5960 -1047 -6000 -2500 V 3499 c 41 1454 2720 2500 6000 2500 s 5960 -1046 6001 -2500 v 11000 c -42 1453 -2721 2500 -6001 2500 Z"/>
<ellipse fill="#d6e86c" cx="6000" cy="2749" rx="4500" ry="1750"/>
<path fill="#bad80a" d="M 2422 3810 c 822 -418 2119 -688 3578 -688 s 2756 270 3578 688 c -822 419 -2119 689 -3578 689 s -2756 -270 -3578 -689 Z"/>
<path class="msportalfx-svg-c19" fill="#0072c6" d="M 6000 5999 v 11000 C 2686 16999 0 15971 0 14499 V 3499 c 0 1473 2686 2500 6000 2500 Z"/>
<path fill="#c0ecfc" d="M 14000 16999 c 1105 0 2000 -895 2000 -2000 c 0 -1192 -1031 -2112 -2211 -1989 c 636 -3085 -1716 -6011 -4897 -6011 c -2083 0 -3869 1274 -4620 3085 C 2097 9595 0 11244 0 13499 c 0 1933 1567 3500 3500 3500 h 10500 Z"/>
<path fill="#66d7f7" d="M 13790 10989 c -467 -2277 -2483 -3990 -4898 -3990 c -2083 0 -3869 1274 -4620 3085 c -248 -56 -507 -85 -772 -85 C 1567 9999 0 11566 0 13499 s 1567 3500 3500 3500 h 2353 c -1569 0 -2841 -1272 -2841 -2841 s 1272 -2842 2841 -2842 c 216 0 425 24 627 70 c 610 -1470 2059 -2505 3750 -2505 c 1534 0 2870 852 3560 2108 Z"/>
<path fill="#005e79" d="M 6000 15999 h 1000 v -3000 l 1500 1500 l 1500 -1500 v 3000 h 1000 v -5000 h -1000 v 500 l -1500 1500 l -1500 -1500 v -500 H 6000 Z"/>
</g>
</svg>