<svg xmlns="http://www.w3.org/2000/svg" class="" id="FxSymbol0-091" role="presentation" viewBox="0 0 47115 61538" focusable="false" xmlns:xlink="http://www.w3.org/1999/xlink" xmlns:svg="http://www.w3.org/2000/svg">
<g>
<title/>
<rect fill="#777" x="10578" width="36538" height="61538" rx="3846" ry="3846"/>
<path fill="#000" d="M 18270 5770 c -2124 0 -3846 1722 -3846 3846 s 1722 3846 3846 3846 h 21154 c 2124 0 3846 -1722 3846 -3846 s -1722 -3846 -3846 -3846 H 18270 Z"/>
<circle class="msportalfx-svg-c13" fill="#b8d432" cx="18270" cy="9616" r="1923"/>
<path fill="#000" d="M 18270 17309 c -2124 0 -3846 1722 -3846 3845 c 0 2124 1722 3846 3846 3846 h 21154 c 2124 0 3846 -1722 3846 -3846 c 0 -2123 -1722 -3845 -3846 -3845 H 18270 Z"/>
<circle class="msportalfx-svg-c13" fill="#b8d432" cx="18270" cy="21154" r="1923"/>
<path fill="#000" d="M 18270 28847 c -2124 0 -3846 1722 -3846 3846 s 1722 3845 3846 3845 h 21154 c 2124 0 3846 -1721 3846 -3845 s -1722 -3846 -3846 -3846 H 18270 Z"/>
<circle class="msportalfx-svg-c13" fill="#b8d432" cx="18270" cy="32693" r="1923"/>
<path class="msportalfx-svg-c01" fill="#ffffff" d="M 40384 59619 c 3186 0 5770 -2583 5770 -5770 c 0 -3438 -2975 -6091 -6378 -5738 c 1833 -8898 -4950 -17340 -14127 -17340 c -6009 0 -11160 3676 -13327 8901 C 6048 38260 0 43016 0 49522 c 0 5575 4520 10095 10096 10095 l 30288 2 Z"/>
<path fill="#c0ecfc" d="M 39778 42283 c -1347 -6570 -7161 -11512 -14129 -11512 c -6009 0 -11160 3676 -13327 8901 c -716 -161 -1461 -246 -2226 -246 C 4520 39426 0 43946 0 49522 c 0 5575 4520 10095 10096 10095 h 6788 c -4526 0 -8195 -3669 -8195 -8195 s 3669 -8195 8195 -8195 c 621 0 1226 68 1807 200 c 1760 -4241 5940 -7225 10818 -7225 c 4426 0 8279 2457 10269 6081 Z"/>
<path fill="#8ba208" d="M 27884 55768 c 564 0 1100 -121 1583 -339 l 340 340 h 1923 v -1923 l -339 -340 c 219 -483 339 -1019 339 -1584 v -1922 c 0 -2124 -1721 -3846 -3846 -3846 c -2124 0 -3846 1722 -3846 3846 v 1922 c 0 2125 1722 3846 3846 3846 Z m -10577 -9614 c -1592 0 -2884 1292 -2884 2884 c 0 1594 1292 2885 2884 2885 h 1923 c 532 0 962 430 962 962 c 0 530 -430 961 -962 961 h -4807 v 1923 h 4807 c 1594 0 2885 -1292 2885 -2884 c 0 -1593 -1291 -2885 -2885 -2885 h -1923 c -530 0 -961 -430 -961 -962 c 0 -530 431 -960 961 -960 h 4808 v -1924 h -4808 Z m 16347 0 h 1923 v 7692 h 3846 v 1924 h -5769 v -9616 Z m -3847 5768 h -1923 v 1924 c -1062 0 -1922 -862 -1922 -1924 v -1922 c 0 -1062 860 -1922 1922 -1922 s 1923 860 1923 1922 v 1922 Z"/>
</g>
</svg>