<svg xmlns="http://www.w3.org/2000/svg" class="" id="FxSymbol0-0d4" role="presentation" viewBox="0 0 24 32" focusable="false" xmlns:xlink="http://www.w3.org/1999/xlink" xmlns:svg="http://www.w3.org/2000/svg">
<g>
<title/>
<title>IOT</title>
<path class="msportalfx-svg-c14" fill="#7fba00" d="M 20.048 3.923 c -7.022 -0.776 -8.197 -3.8 -8.197 -3.8 S 10.269 4.101 0.169 4.101 v 16.326 c 0 1.975 1.095 3.826 2.614 5.44 c 3.446 3.663 9.068 6.132 9.068 6.132 s 11.685 -5.118 11.685 -11.572 V 4.101 h -0.115 a 32.16 32.16 0 0 1 -3.516 -0.192 l 0.143 0.013 Z"/>
<path fill="#96c414" d="M 11.682 0 S 10.1 3.978 0 3.978 v 16.33 c 0 1.975 1.095 3.823 2.614 5.437 L 19.879 3.8 C 12.857 3.027 11.682 0 11.682 0 Z"/>
<path class="msportalfx-svg-c01" fill="#ffffff" d="M 16.713 21.672 a 1.543 1.543 0 0 1 -1.076 -2.65 l -1.647 -2.881 a 1.86 1.86 0 0 1 -1.279 -0.034 l 0.012 0.004 l -1.205 2.001 a 1.33 1.33 0 1 1 -0.934 -0.384 h 0.002 c 0.058 0.002 0.113 0.008 0.167 0.017 l -0.007 -0.001 l 1.267 -2.101 a 1.94 1.94 0 0 1 -0.484 -0.818 l -0.003 -0.014 l -5.008 0.416 a 1.336 1.336 0 1 1 -0.147 -0.853 l 0.003 0.007 l 5.092 -0.422 c 0.065 -0.383 0.231 -0.719 0.47 -0.989 l -0.002 0.002 l -1.751 -2.485 a 1.656 1.656 0 1 1 0.699 -0.485 l 0.002 -0.002 l 1.731 2.462 a 1.966 1.966 0 0 1 2.116 3.256 l -0.002 0.002 l 1.66 2.897 a 1.544 1.544 0 1 1 0.321 3.052 Z"/>
</g>
</svg>