<svg xmlns="http://www.w3.org/2000/svg" class="" id="FxSymbol0-0a3" role="presentation" viewBox="0 0 331 344.9" focusable="false" xmlns:xlink="http://www.w3.org/1999/xlink" xmlns:svg="http://www.w3.org/2000/svg">
<g>
<title/>
<circle class="msportalfx-svg-c19" fill="#0072c6" cx="131.5" cy="69.5" r="25"/>
<circle class="msportalfx-svg-c19" fill="#0072c6" cx="188.6" cy="150" r="29.8"/>
<circle class="msportalfx-svg-c19" fill="#0072c6" cx="238.5" cy="238.6" r="23.3"/>
<circle class="msportalfx-svg-c19" fill="#0072c6" cx="146" cy="222.5" r="20.1"/>
<circle class="msportalfx-svg-c19" fill="#0072c6" cx="64.6" cy="161.3" r="20.1"/>
<path class="msportalfx-svg-c19" fill="#0072c6" d="M 121.684 71.464 l 14.807 -10.409 l 59.926 85.246 l -14.808 10.41 Z"/>
<path class="msportalfx-svg-c19" fill="#0072c6" d="M 178.94 151.228 l 15.709 -8.992 l 52.958 92.518 l -15.709 8.992 Z"/>
<path class="msportalfx-svg-c19" fill="#0072c6" d="M 61.173 150.948 l 127.963 -10.624 l 1.498 18.038 L 62.67 168.986 Z"/>
<path class="msportalfx-svg-c19" fill="#0072c6" d="M 135.476 218.99 l 45.88 -76.144 l 15.504 9.342 l -45.882 76.143 Z"/>
<circle class="msportalfx-svg-c19" fill="#0072c6" cx="37.2" cy="88.2" r="24"/>
<circle class="msportalfx-svg-c19" fill="#0072c6" cx="293.2" cy="88.2" r="24"/>
<circle class="msportalfx-svg-c19" fill="#0072c6" cx="171.6" cy="316.2" r="24"/>
<path class="msportalfx-svg-c19" fill="#0072c6" d="M 63.5 67.1 c 25.7 -26.9 61.9 -43.6 102 -43.6 c 39.9 0 76 16.6 101.7 43.3 c 4.5 -5.5 10.8 -9.6 17.9 -11.4 c -1.6 -1.8 -3.3 -3.6 -5.1 -5.3 c -14.9 -14.9 -32.2 -26.5 -51.5 -34.7 c -20 -8.5 -41.2 -12.7 -63.1 -12.7 S 122.3 7 102.3 15.4 C 83 23.6 65.7 35.2 50.8 50.1 c -1.8 1.8 -3.5 3.6 -5.2 5.4 c 7.3 1.9 13.4 6 17.9 11.6 Z m 254.8 43.7 c -4.8 5.3 -11.2 9 -18.5 10.5 c 4.4 13.7 6.8 28.2 6.8 43.4 c 0 65.4 -44.5 120.4 -104.9 136.4 c 2.3 4.6 3.6 9.7 3.6 15.2 c 0 1.9 -0.2 3.8 -0.5 5.6 c 8.1 -2 16 -4.7 23.7 -7.9 c 19.3 -8.2 36.6 -19.8 51.5 -34.7 c 14.9 -14.9 26.5 -32.2 34.7 -51.5 c 8.5 -20 12.7 -41.2 12.7 -63.1 c 0 -18.6 -3 -36.7 -9.1 -53.9 Z m -178 192.7 C 74.4 291.6 24.4 234 24.4 164.6 c 0 -15.1 2.4 -29.6 6.8 -43.3 c -7.3 -1.3 -13.7 -5 -18.6 -10.1 c -6 17.1 -9 35 -9 53.4 c 0 21.9 4.3 43.1 12.7 63.1 c 8.2 19.3 19.8 36.6 34.7 51.5 s 32.2 26.5 51.5 34.7 c 11.7 5 23.9 8.5 36.4 10.5 c -0.7 -2.6 -1 -5.4 -1 -8.2 c -0.1 -4.5 0.8 -8.8 2.4 -12.7 Z"/>
</g>
</svg>