<svg xmlns="http://www.w3.org/2000/svg" class="" id="FxSymbol0-0aa" role="presentation" viewBox="0 0 108 108.31" focusable="false" xmlns:xlink="http://www.w3.org/1999/xlink" xmlns:svg="http://www.w3.org/2000/svg">
<g>
<title/>
<title>Security_2</title>
<path d="M 86.61 11.17 l 4.79 -9.36 a 1 1 0 0 0 -0.94 -1.45 L 55.33 2.14 a 1 1 0 0 0 -0.78 1.54 l 19.1 29.54 a 1 1 0 0 0 1.72 -0.09 l 4.21 -8.21 a 1 1 0 0 1 1.57 -0.28 c 6.62 6.42 13.6 16.26 13.6 29.25 A 41.15 41.15 0 0 1 33.88 90 a 1 1 0 0 0 -1.33 0.36 l -5.46 9.46 a 1 1 0 0 0 0.38 1.39 a 54.06 54.06 0 0 0 80.2 -47.32 c 0 -15.48 -7.36 -30 -20.81 -41.52 a 1 1 0 0 1 -0.25 -1.2 Z"/>
<path d="M 34.33 102.85 l 2.51 -4.35 A 46.89 46.89 0 1 0 61 8.34 v -5 c 0 -0.62 -0.64 0 -1.14 -0.3 l -3.41 0.11 c -0.77 0 -0.31 1 0.11 1.6 l 10.83 18.8 a 34.33 34.33 0 0 1 9.61 6.5 l 2.63 -5.13 a 1 1 0 0 1 0.9 -0.55 a 0.93 0.93 0 0 1 0.67 0.27 c 6.62 6.42 13.6 16.26 13.6 29.25 A 41.15 41.15 0 0 1 33.88 90 a 0.94 0.94 0 0 0 -0.48 -0.13 a 1 1 0 0 0 -0.85 0.49 l -5.46 9.46 a 1 1 0 0 0 -0.11 0.71 l 4.94 2.85 l 0.34 0.14 a 1.64 1.64 0 0 0 2.07 -0.67 Z"/>
<path d="M 25.51 98.91 L 31 89.45 a 2.82 2.82 0 0 1 2.43 -1.4 a 2.77 2.77 0 0 1 1.35 0.35 a 39.33 39.33 0 0 0 58.15 -34.51 c 0 -12.08 -6.47 -21.32 -12.24 -27.15 l -2.4 4.69 a 34.24 34.24 0 1 1 -13.83 -9.07 L 53 4.67 a 2.82 2.82 0 0 1 -0.15 -2.81 a 1.73 1.73 0 0 1 0.14 -0.2 h -5.8 a 1.66 1.66 0 0 0 -1.67 1.66 v 5 a 46.62 46.62 0 0 0 -8.68 2.32 l -2.51 -4.32 a 1.66 1.66 0 0 0 -2.27 -0.61 l -10.52 6.07 a 1.67 1.67 0 0 0 -0.61 2.28 l 2.51 4.36 a 47.55 47.55 0 0 0 -6.35 6.34 l -4.35 -2.51 a 1.67 1.67 0 0 0 -2.28 0.61 L 4.39 33.38 A 1.66 1.66 0 0 0 5 35.65 l 4.34 2.51 A 46.62 46.62 0 0 0 7 46.84 H 2 a 1.67 1.67 0 0 0 -1.67 1.67 v 12.15 A 1.66 1.66 0 0 0 2 62.32 h 5 A 46.62 46.62 0 0 0 9.34 71 L 5 73.51 a 1.67 1.67 0 0 0 -0.61 2.28 l 6.07 10.52 a 1.68 1.68 0 0 0 2.28 0.61 l 4.35 -2.52 a 47.63 47.63 0 0 0 6.35 6.35 l -2.51 4.36 a 1.66 1.66 0 0 0 0.61 2.27 l 3.72 2.15 a 3 3 0 0 1 0.25 -0.62 Z"/>
<path d="M 73.28 39.64 a 0.22 0.22 0 0 0 -0.17 -0.07 h -0.62 c -8 0 -15.39 -3.27 -18.29 -8.14 a 0.24 0.24 0 0 0 -0.4 0 c -2.9 4.87 -10.25 8.14 -18.29 8.14 h -0.62 a 0.25 0.25 0 0 0 -0.17 0.07 a 0.23 0.23 0 0 0 -0.06 0.16 v 19 C 34.6 64.27 37 74.39 53.91 81.25 h 0.18 c 16.89 -6.86 19.31 -17 19.25 -22.4 V 39.8 a 0.23 0.23 0 0 0 -0.06 -0.16 Z m -3.88 3.74 v 15.51 c 0 4.17 -1.85 12 -15.08 18 L 54 77 l -0.31 -0.14 c -13.23 -5.93 -15.13 -13.81 -15.08 -18 V 43.38 l 0.67 -0.07 a 27.12 27.12 0 0 0 14.25 -5.63 l 0.48 -0.4 l 0.48 0.4 a 27.2 27.2 0 0 0 14.25 5.63 Z"/>
<path d="M 48.56 53.73 h 2.3 a 0.23 0.23 0 0 0 0.23 -0.24 v -3.63 a 2.91 2.91 0 0 1 5.82 0 v 3.63 a 0.23 0.23 0 0 0 0.23 0.24 h 2.3 a 0.24 0.24 0 0 0 0.24 -0.24 v -3.63 a 5.68 5.68 0 0 0 -11.36 0 v 3.63 a 0.24 0.24 0 0 0 0.24 0.24 Z m 13.05 0.82 a 0.24 0.24 0 0 0 -0.24 -0.24 H 46.63 a 0.24 0.24 0 0 0 -0.24 0.24 v 10.23 c 0 1.55 4.34 3.63 7.61 3.65 s 7.61 -2.1 7.61 -3.68 Z m -6.17 9.24 a 0.29 0.29 0 0 1 0 0.2 a 0.25 0.25 0 0 1 -0.19 0.09 H 52.8 a 0.28 0.28 0 0 1 -0.19 -0.09 a 0.24 0.24 0 0 1 0 -0.2 L 53.2 61 a 1.76 1.76 0 1 1 1.6 0 Z"/>
</g>
</svg>