<svg xmlns="http://www.w3.org/2000/svg" class="" id="FxSymbol0-08a" role="presentation" viewBox="0 0 24 24" focusable="false" xmlns:xlink="http://www.w3.org/1999/xlink" xmlns:svg="http://www.w3.org/2000/svg">
<g>
<title/>
<path class="msportalfx-svg-c19" fill="#0072c6" d="M 21.216 9.441 h -0.336 c 0.192 -0.623 0.24 -1.295 0.24 -1.965 C 21.168 3.354 17.808 0 13.728 0 a 7.348 7.348 0 0 0 -7.007 5.08 a 4.71 4.71 0 0 0 -1.633 -0.287 C 2.256 4.793 0 7.094 0 9.92 c 0 2.814 2.234 5.055 5 5.076 v -2.35 c 0 -2.314 3.888 -3.369 7.5 -3.369 s 7.5 1.055 7.5 3.369 V 15 h 1.408 C 22.896 14.857 24 13.658 24 12.221 a 2.785 2.785 0 0 0 -2.784 -2.78 Z"/>
<path class="msportalfx-svg-c15" fill="#59b4d9" d="M 6 12.646 v 8.986 c 0 1.297 2.863 2.348 6.411 2.365 V 24 h 0.089 c 3.59 0 6.5 -1.061 6.5 -2.367 v -8.986 H 6 Z"/>
<path class="msportalfx-svg-c16" fill="#3999c6" d="M 12.5 12.646 V 24 c 3.59 0 6.5 -1.061 6.5 -2.367 v -8.986 h -6.5 Z"/>
<path class="msportalfx-svg-c13" fill="#b8d432" d="M 19 12.646 c 0 1.307 -2.91 2.367 -6.5 2.367 S 6 13.953 6 12.646 c 0 -1.309 2.91 -2.369 6.5 -2.369 s 6.5 1.061 6.5 2.369"/>
<path opacity="0.2" fill="#ecf0f1" d="M 2 11.584 a 5.417 5.417 0 0 1 7.976 -4.773 A 7.488 7.488 0 0 1 16.498 3 c 1.395 0 2.695 0.387 3.814 1.051 C 19.085 1.648 16.585 0 13.728 0 a 7.348 7.348 0 0 0 -7.007 5.08 a 4.71 4.71 0 0 0 -1.633 -0.287 C 2.256 4.793 0 7.094 0 9.92 a 5.053 5.053 0 0 0 2.843 4.557 A 5.388 5.388 0 0 1 2 11.584 Z"/>
<path class="msportalfx-svg-c01" fill="#ffffff" d="M 12.5 3 l -4 4 H 11 v 6 h 3 V 7 h 2.5 Z"/>
<path fill="#4a4a4a" d="M 45.216 9.44 h -0.336 c 0.192 -0.623 0.24 -1.294 0.24 -1.965 C 45.168 3.354 41.808 0 37.728 0 a 7.345 7.345 0 0 0 -7.007 5.079 a 4.682 4.682 0 0 0 -1.633 -0.286 C 26.256 4.793 24 7.092 24 9.919 C 24 12.747 26.256 15 29.04 15 H 30 v 6.631 c 0 1.297 2.863 2.35 6.411 2.366 V 24 h 0.089 c 3.59 0 6.5 -1.062 6.5 -2.369 V 15 h 2.408 C 46.896 14.855 48 13.657 48 12.22 a 2.785 2.785 0 0 0 -2.784 -2.78 Z m -8.619 13.558 l -0.181 -0.001 c -3.473 -0.017 -5.284 -1.003 -5.416 -1.366 v -7.729 c 1.15 0.666 3.181 1.11 5.5 1.11 c 2.321 0 4.351 -0.444 5.501 -1.11 l 0.003 7.699 c -0.132 0.383 -1.986 1.376 -5.407 1.397 Z M 37 6 v 6 h -1 V 6 h -1.086 L 36.5 4.413 L 38.086 6 H 37 Z m 1 7 v -1.645 c 2.443 0.227 3.815 0.951 3.992 1.289 c -0.21 0.403 -2.098 1.368 -5.492 1.368 s -5.281 -0.965 -5.491 -1.368 c 0.176 -0.338 1.549 -1.062 3.991 -1.289 V 13 h 3 Z m 7.355 1 H 43 v -1.356 c 0 -1.119 -2.134 -2.055 -5 -2.301 V 7 h 2.5 l -4 -4 l -4 4 H 35 v 3.344 c -2.866 0.246 -5 1.182 -5 2.301 V 14 h -0.96 C 26.812 14 25 12.169 25 9.919 c 0 -2.275 1.834 -4.126 4.088 -4.126 c 0.453 0 0.863 0.071 1.291 0.227 l 0.975 0.354 l 0.317 -0.986 A 6.337 6.337 0 0 1 37.728 1 c 1.716 0 3.329 0.676 4.546 1.906 a 6.35 6.35 0 0 1 1.847 4.569 c 0 0.716 -0.061 1.231 -0.196 1.671 l -0.397 1.294 h 1.69 c 0.983 0 1.784 0.798 1.784 1.779 c -0.002 0.912 -0.706 1.669 -1.647 1.781 Z"/>
</g>
</svg>