<svg xmlns="http://www.w3.org/2000/svg" class="" id="FxSymbol0-01c" role="presentation" viewBox="0 0 50 50" focusable="false" xmlns:xlink="http://www.w3.org/1999/xlink" xmlns:svg="http://www.w3.org/2000/svg">
<g>
<title/>
<path class="msportalfx-svg-c19" fill="#0072c6" d="M 6.7 28.6 c 0 2.4 2 4.5 4.6 4.8 h 29.6 c 5 0 9.1 -3.8 9.1 -8.5 c 0 -4.8 -4.1 -8.5 -9.1 -8.5 c -1.1 0 -2 0.3 -3 0.5 c -1.8 -5 -6.8 -8.5 -12.6 -8.5 h -0.1 c -7.4 0 -13.3 5.6 -13.3 12.4 c 0 1.1 0.3 2.3 0.5 3.3 h -0.7 c -2.7 -0.2 -5 1.8 -5 4.5"/>
<path class="msportalfx-svg-c15" fill="#59b4d9" d="M 0 34.9 c 0 2.7 2.2 5 5.1 5.3 H 38 c 5.6 0 10.1 -4.2 10.1 -9.5 s -4.5 -9.5 -10.1 -9.5 c -1.2 0 -2.3 0.3 -3.3 0.6 c -2 -5.6 -7.5 -9.5 -14 -9.5 h -0.1 c -8.2 0 -14.8 6.2 -14.8 13.8 c 0 1.3 0.3 2.5 0.6 3.6 h -0.8 c -3 0 -5.6 2.2 -5.6 5.2"/>
<path class="msportalfx-svg-c01" opacity="0.2" fill="#ffffff" d="M 20.7 12.3 h -0.1 c -8.2 0 -14.8 6.2 -14.8 13.8 c 0 1.3 0.3 2.5 0.6 3.6 h -0.8 c -3 0 -5.6 2.2 -5.6 5.2 c 0 2.7 2.2 5 5.1 5.3 h 0.8 c -3 -6.8 4.4 -8.2 4.4 -8.2 c -0.7 -16.7 15 -18.6 15.4 -18.8 c -1.5 -0.6 -3.2 -0.9 -5 -0.9 Z"/>
<path class="msportalfx-svg-c01" fill="#ffffff" d="M 16.3 23.6 h 4.9 l 7.2 7.2 l -9.5 9.4 h -4.8 l 9.3 -9.4 Z m 11 -10.7 h 5 l 5.7 5.8 l -7.1 6.9 h -4.6 l 6.7 -7 Z m 5.8 12.9 H 38 l 4.8 4.8 l -6.6 6.5 h -4.8 l 6.4 -6.5 Z"/>
</g>
</svg>