<svg xmlns="http://www.w3.org/2000/svg" class="fxs-portal-svg" id="FxSymbol0-0e5" role="presentation" viewBox="0 0 50 50" focusable="false" xmlns:xlink="http://www.w3.org/1999/xlink" xmlns:svg="http://www.w3.org/2000/svg">
<g>
<title/>
<path class="msportalfx-svg-c19" fill="#0072c6" d="M 45.083 14.967 c 0.033 -0.35 0.05 -0.717 0.05 -1.083 c 0 -5.817 -4.783 -10.55 -10.65 -10.55 C 31 3.333 27.8 5 25.833 7.733 a 8.093 8.093 0 0 0 -4.266 -1.216 c -4.183 0 -7.633 3.183 -8.017 7.233 c 0.65 -0.083 1.3 -0.15 1.967 -0.15 c 3.083 0 6.05 1 8.467 2.767 C 25.8 12.183 30.417 9.5 35.533 9.35 V 5.767 l 6.25 5.35 l -6.25 5.317 v -3.5 c -2.933 0.116 -5.783 1.216 -7.433 3.883 l 0.333 -0.033 c 5.967 0 10.9 4.467 11.6 10.183 c 1.417 1.067 2.533 2.35 3.333 3.817 C 47.233 29.75 50 26.417 50 22.333 c 0 -3.283 -1.767 -5.9 -4.917 -7.366 Z"/>
<path class="msportalfx-svg-c15" fill="#59b4d9" d="M 4.917 28.833 c -0.033 -0.367 -0.05 -0.733 -0.05 -1.1 c 0 -5.817 4.783 -10.533 10.65 -10.533 c 3.483 0 6.683 1.667 8.65 4.383 a 8.083 8.083 0 0 1 4.267 -1.2 c 4.433 0 8.05 3.583 8.05 7.983 l -0.017 0.634 c 3 1.517 4.617 4.033 4.617 7.183 c 0 4.95 -4.033 8.817 -9.183 8.817 H 9.183 C 4.033 45 0 41.133 0 36.183 c 0 -3.266 1.767 -5.883 4.917 -7.35 Z"/>
</g>
</svg>