<svg xmlns="http://www.w3.org/2000/svg" class="" id="FxSymbol0-0c1" role="presentation" viewBox="0 0 28 32" focusable="false" xmlns:xlink="http://www.w3.org/1999/xlink" xmlns:svg="http://www.w3.org/2000/svg">
<g>
<title/>
<path class="msportalfx-svg-c19" fill="#0072c6" d="M 13.386 31.611 C 10.248 29.671 0 22.677 0 14.515 V 4.077 l 1.095 -0.083 c 4.382 -0.273 6.083 -1.411 7.583 -2.416 C 9.956 0.739 11.06 0.001 13.999 0.001 S 18.088 0.77 19.3 1.585 c 1.507 0.998 3.211 2.153 7.593 2.422 l 1.095 0.07 v 10.438 c 0 8.166 -10.249 15.156 -13.39 17.103 l -0.612 0.383 Z"/>
<path class="msportalfx-svg-c01" opacity="0.15" fill="#ffffff" d="M 9.906 28.386 l 9.18 -26.15 l -0.143 -0.096 C 17.755 1.351 16.734 0.666 13.998 0.666 s -3.713 0.665 -4.948 1.481 C 7.479 3.198 5.699 4.39 1.134 4.659 l -0.469 0.043 v 9.813 c 0 5.63 5.191 10.741 9.24 13.872 Z"/>
<path class="msportalfx-svg-c01" fill="#ffffff" d="M 13.999 9.333 h 0.006 a 7.321 7.321 0 0 1 7.289 6.636 l 0.002 0.029 h 3.327 c -0.308 -5.633 -4.951 -10.083 -10.633 -10.083 S 3.665 10.366 3.358 15.971 l -0.001 0.027 h 3.327 c 0.347 -3.751 3.479 -6.665 7.291 -6.665 h 0.024 h -0.001 Z"/>
<path class="msportalfx-svg-c01" fill="#ffffff" d="M 17.932 16.667 a 3.933 3.933 0 1 1 -7.866 0 a 3.933 3.933 0 0 1 7.866 0 Z"/>
</g>
</svg>