<svg xmlns="http://www.w3.org/2000/svg" class="" id="FxSymbol0-060" role="presentation" viewBox="96 243.8 568.8 536.5" focusable="false" xmlns:xlink="http://www.w3.org/1999/xlink" xmlns:svg="http://www.w3.org/2000/svg">
<g>
<title/>
<path class="msportalfx-svg-c15" fill="#59b4d9" d="M 366.8 318.3 H 105.4 v 210.9 c 0 3.3 1.3 6.6 3.6 9.1 l -0.1 0.1 c 0.3 0.3 0.7 0.7 1.1 0.9 c 2.4 2.2 5.5 3.6 9.2 3.6 h 271.7 c 6.9 0 13.8 -5.7 13.8 -13.8 V 318.3 h -37.9 Z"/>
<path class="msportalfx-svg-c01" fill="#ffffff" d="M 162.8 365.3 h 186.8 v 17.2 H 162.8 Z m 0 56.1 h 186.8 v 17.2 H 162.8 Z m 0 56.2 h 186.8 v 17.2 H 162.8 Z"/>
<path class="msportalfx-svg-c14" fill="#7fba00" d="M 541 467.3 s 13.8 -102 -80.2 -121.5 c 0 0 -8 -1.1 -18.3 -1.1 c -11.5 0 -16 3.4 -16 3.4 v 41.3 s 3.4 -3.4 18.3 -3.4 c 9.2 0 16 1.1 19.5 1.1 c 21.8 6.9 42.4 22.9 37.8 79.1 H 462 l 63 77.9 l 61.9 -77.9 H 541 v 1.1 Z"/>
<path class="msportalfx-svg-c15" fill="#59b4d9" d="M 621.3 598 h -8 v 130.6 H 482.6 V 739 c 0 4.6 1.1 8 5.7 8 h 135.3 c 4.6 0 8 -3.4 8 -8 V 606 c 0 -4.6 -5.7 -8 -10.3 -8 Z"/>
<path class="msportalfx-svg-c15" fill="#59b4d9" d="M 654.5 631.2 h -8 v 129.5 c 0 1.1 -1.1 1.1 -1.1 1.1 H 515.8 v 10.3 c 0 4.6 1.1 8 5.7 8 h 133 c 5.7 0 10.3 -4.6 10.3 -10.3 V 639.2 c 0 -4.5 -5.7 -8 -10.3 -8 Z"/>
<path class="msportalfx-svg-c16" fill="#3999c6" d="M 143.3 318.3 h 261.3 v -60.8 c 0 -6.9 -5.7 -13.8 -13.8 -13.8 H 119.2 c -6.9 0 -13.8 5.7 -13.8 13.8 v 60.8 h 37.9 Z m 442.4 243 h -133 c -4.6 0 -8 3.4 -8 8 v 29.8 h 148.9 v -29.8 c 0.2 -4.6 -3.3 -8 -7.9 -8 Z"/>
<path class="msportalfx-svg-c15" fill="#59b4d9" d="M 575.4 598 H 444.8 v 104.3 c 0 4.6 3.4 8 8 8 h 133 c 4.6 0 8 -3.4 8 -8 V 598 h -18.4 Z"/>
<path class="msportalfx-svg-c01" fill="#ffffff" d="M 479.1 616.3 h 74.5 v 18.3 h -74.5 Z"/>
<path class="msportalfx-svg-c01" opacity="0.2" fill="#ffffff" d="M 367 318.3 H 105.6 v 210.9 c 0 3.4 1.4 6.9 3.9 9.5 c 2.4 2.6 295.3 -220.4 295.3 -220.4 H 367 Z M 593.8 598 h -149 v 103.7 s -0.4 3.6 1.9 5.9 L 593.8 598 Z"/>
</g>
</svg>