<svg xmlns="http://www.w3.org/2000/svg" class="" id="FxSymbol0-066" role="presentation" viewBox="0 0 181.2 179.5" focusable="false" xmlns:xlink="http://www.w3.org/1999/xlink" xmlns:svg="http://www.w3.org/2000/svg">
<g>
<title/>
<path stroke="#4293f4" d="M 131.4 162 c -10.4 0 -20.2 -5.2 -26.1 -13.9 c -3.3 -5 -8.8 -7.9 -14.7 -7.9 c -6 0 -11.3 2.9 -14.7 7.9 c -5.8 8.7 -15.5 14 -26.1 14 c -17.4 0 -31.5 -14.1 -31.5 -31.5 c 0 -10.4 5.2 -20.2 13.9 -26.1 c 5 -3.3 7.9 -8.8 7.9 -14.7 c 0 -6 -2.9 -11.3 -7.9 -14.7 c -8.7 -5.8 -14 -15.5 -14 -26.1 c 0 -17.4 14.1 -31.5 31.5 -31.5 c 10.4 0 20.2 5.2 26.1 13.9 c 3.3 5 8.8 7.9 14.7 7.9 s 11.4 -3 14.7 -7.9 c 5.8 -8.7 15.5 -14 26.1 -14 c 17.4 0 31.5 14.1 31.5 31.5 c 0 10.4 -5.2 20.2 -13.9 26.1 c -5 3.3 -7.9 8.8 -7.9 14.7 c 0 6 2.9 11.3 7.9 14.7 c 8.7 5.8 14 15.5 14 26.1 c 0 17.4 -14.1 31.5 -31.5 31.5 Z m -40.8 -30.3 c 8.7 0 16.8 4.3 21.7 11.6 c 4.4 6.4 11.5 10.2 19.1 10.2 c 12.7 0 23 -10.3 23 -23 c 0 -7.7 -3.8 -14.8 -10.2 -19.1 c -7.3 -4.9 -11.7 -13.1 -11.7 -21.8 s 4.3 -16.8 11.6 -21.7 c 6.4 -4.4 10.2 -11.5 10.2 -19.1 c 0 -12.7 -10.3 -23 -23 -23 c -7.7 0 -14.8 3.8 -19.1 10.2 c -4.9 7.3 -13.1 11.7 -21.7 11.7 s -16.8 -4.3 -21.7 -11.6 c -4.4 -6.4 -11.5 -10.2 -19.1 -10.2 c -12.7 0 -23 10.3 -23 23 c 0 7.7 3.8 14.8 10.2 19.1 c 7.3 4.9 11.7 13.1 11.7 21.7 c 0 8.7 -4.3 16.8 -11.6 21.7 c -6.4 4.4 -10.2 11.5 -10.2 19.1 c 0 12.7 10.3 23 23 23 c 7.7 0 14.8 -3.8 19.1 -10.2 c 4.9 -7.3 13 -11.6 21.7 -11.6 Z"/>
<path stroke="#4293f4" d="M 90.6 125.8 c -6.4 0 -12.8 -2.4 -17.7 -7.2 L 62 107.8 c -9.8 -9.8 -9.9 -25.8 -0.2 -35.7 l 10.8 -10.9 c 9.8 -9.8 25.8 -9.9 35.7 -0.2 l 10.9 10.8 c 4.8 4.7 7.5 11.1 7.5 17.8 c 0 6.8 -2.6 13.1 -7.3 17.9 l -10.8 10.9 c -4.9 4.9 -11.4 7.4 -18 7.4 Z m -0.1 -63.7 c -4.3 0 -8.7 1.6 -12 4.9 L 67.8 78 c -6.5 6.6 -6.4 17.2 0.1 23.8 l 10.9 10.8 c 6.6 6.5 17.2 6.4 23.8 -0.1 l 10.8 -10.9 c 3.2 -3.2 4.9 -7.4 4.9 -11.9 s -1.8 -8.7 -5 -11.8 l -10.9 -10.8 c -3.3 -3.4 -7.6 -5 -11.9 -5 Z"/>
</g>
</svg>