<svg xmlns="http://www.w3.org/2000/svg" class="" id="FxSymbol0-067" role="presentation" viewBox="0 0 50 50" focusable="false" xmlns:xlink="http://www.w3.org/1999/xlink" xmlns:svg="http://www.w3.org/2000/svg">
<g>
<title/>
<title>CS favicon</title>
<path fill="#83bc41" d="M 27.21 36.21 a 13 13 0 0 1 -1.52 0.85 a 17 17 0 0 1 -2.06 0.83 a 18.6 18.6 0 0 1 -2.63 0.64 a 19.34 19.34 0 0 1 -3.33 0.26 a 16.37 16.37 0 0 1 -5.41 -0.88 a 12.71 12.71 0 0 1 -4.43 -2.6 a 12.3 12.3 0 0 1 -3 -4.25 a 14.37 14.37 0 0 1 -1.11 -5.83 a 15.09 15.09 0 0 1 1.08 -5.88 a 12.21 12.21 0 0 1 3 -4.33 a 12.74 12.74 0 0 1 4.51 -2.66 a 17 17 0 0 1 5.59 -0.9 a 19.34 19.34 0 0 1 4.3 0.41 a 11.23 11.23 0 0 1 2.89 1 a 7.27 7.27 0 0 1 0.8 0.53 A 2.8 2.8 0 0 1 27 16.91 a 1.78 1.78 0 0 1 -0.29 0.5 c -1 1.29 -3.07 0.54 -4.25 0 a 10.45 10.45 0 0 0 -4.33 -0.8 a 10.12 10.12 0 0 0 -3.27 0.51 a 7 7 0 0 0 -2.63 1.57 a 7.5 7.5 0 0 0 -1.75 2.63 a 9.82 9.82 0 0 0 -0.64 3.74 a 10 10 0 0 0 0.67 3.87 a 7 7 0 0 0 1.86 2.63 a 7.6 7.6 0 0 0 2.74 1.52 a 11 11 0 0 0 3.35 0.47 a 10.38 10.38 0 0 0 4.15 -0.7 a 18.69 18.69 0 0 0 2.14 -1.06 Z"/>
<path fill="#496487" d="M 23.27 31.62 a 7.89 7.89 0 0 0 1.29 0.67 a 23.08 23.08 0 0 0 2.29 0.85 a 23.67 23.67 0 0 0 3.12 0.75 a 21.89 21.89 0 0 0 3.82 0.31 a 11.7 11.7 0 0 0 4.38 -0.7 a 2.44 2.44 0 0 0 1.7 -2.4 a 2.5 2.5 0 0 0 -1.08 -2.19 a 9 9 0 0 0 -3.87 -1.06 l -4 -0.47 a 18.87 18.87 0 0 1 -3.77 -0.75 a 9.7 9.7 0 0 1 -3 -1.47 a 6.56 6.56 0 0 1 -1.93 -2.3 a 7.13 7.13 0 0 1 -0.69 -3.27 a 7.69 7.69 0 0 1 0.64 -3.12 a 7 7 0 0 1 2 -2.6 a 10.11 10.11 0 0 1 3.64 -1.78 a 19.92 19.92 0 0 1 5.44 -0.65 a 23.2 23.2 0 0 1 8.33 1.18 a 8.29 8.29 0 0 1 1.72 0.94 a 2.42 2.42 0 0 1 1 3.25 c -0.89 1.67 -2.77 0.88 -2.94 0.79 A 12.44 12.44 0 0 0 40 17 a 18.89 18.89 0 0 0 -6.65 -1.11 q -6 0 -6 3.15 a 2.25 2.25 0 0 0 1.13 2 a 8.18 8.18 0 0 0 3.25 0.94 l 5.25 0.69 a 14 14 0 0 1 6.65 2.36 A 6.12 6.12 0 0 1 46 30.3 a 7.37 7.37 0 0 1 -3.07 6.19 q -3.07 2.32 -8.84 2.32 a 28.36 28.36 0 0 1 -5.09 -0.42 a 30.66 30.66 0 0 1 -3.94 -0.94 a 19.61 19.61 0 0 1 -2.69 -1.07 a 8.17 8.17 0 0 1 -1.34 -0.77 Z"/>
<path fill="#83bc41" d="M 24.56 32.28 l -0.4 -0.17 c -0.51 0.27 -1 0.52 -1.57 0.75 l -0.89 1.39 l -0.7 1.36 a 6.19 6.19 0 0 0 1.29 0.8 a 6.58 6.58 0 0 0 2.62 1 l 0.76 -0.34 a 13 13 0 0 0 1.52 -0.85 l -2.07 -3.69 Z"/>
</g>
</svg>