<svg xmlns="http://www.w3.org/2000/svg" class="fxs-portal-svg" id="FxSymbol0-043" role="presentation" viewBox="0 0 50 50" focusable="false" xmlns:xlink="http://www.w3.org/1999/xlink" xmlns:svg="http://www.w3.org/2000/svg">
<g>
<title/>
<path class="msportalfx-svg-c15" fill="#59b4d9" d="M 43.339 18.659 c 0.195 -0.911 0.291 -1.779 0.291 -2.643 C 43.63 9.39 38.232 4 31.595 4 a 12 12 0 0 0 -10.81 6.736 a 8.661 8.661 0 0 0 -6.114 -2.523 c -4.763 0 -8.638 3.875 -8.638 8.637 c 0 0.646 0.072 1.298 0.218 1.968 C 2.328 20.416 0 23.731 0 27.763 c 0 5.437 4.443 9.696 10.113 9.696 h 0.646 c 0.11 4.968 4.18 8.975 9.164 8.975 a 9.138 9.138 0 0 0 7.996 -4.681 a 6.65 6.65 0 0 0 4.36 1.628 c 3.42 0 6.249 -2.591 6.65 -5.922 h 0.961 c 5.67 0 10.11 -4.259 10.11 -9.696 c 0 -4.199 -2.544 -7.654 -6.661 -9.104"/>
<path class="msportalfx-svg-c01" fill="#ffffff" d="M 39.437 23.192 l 0.736 -1.743 l -0.213 -0.184 l -1.607 -1.396 l 0.008 -1.411 l 1.812 -1.62 l -0.713 -1.753 l -0.279 0.019 l -2.125 0.152 l -0.992 -1.006 l 0.135 -2.428 l -1.742 -0.735 l -0.184 0.212 l -1.397 1.609 l -1.412 -0.01 l -1.621 -1.81 l -1.752 0.711 l 0.02 0.281 l 0.15 2.125 l -1.004 0.99 l -2.428 -0.135 l -0.736 1.743 l 0.213 0.184 l 1.608 1.397 l -0.009 1.412 l -1.81 1.621 l 0.711 1.752 l 0.281 -0.021 l 2.123 -0.149 l 0.992 1.005 l -0.135 2.426 l 1.743 0.736 l 0.184 -0.213 l 1.396 -1.608 l 1.412 0.01 l 1.621 1.812 l 1.752 -0.712 l -0.02 -0.282 l -0.15 -2.124 l 1.006 -0.992 l 2.426 0.135 Z m -8.809 -0.499 a 3.871 3.871 0 1 1 3.01 -7.135 a 3.871 3.871 0 0 1 -3.01 7.135 m -2.271 9.255 v -1.893 l -0.266 -0.086 l -2.025 -0.663 l -0.539 -1.304 l 1.04 -2.198 l -1.336 -1.337 l -0.251 0.127 l -1.899 0.962 l -1.305 -0.541 l -0.818 -2.289 l -1.891 -0.002 l -0.087 0.269 l -0.663 2.023 l -1.304 0.539 l -2.198 -1.039 l -1.337 1.337 l 0.127 0.251 l 0.962 1.9 l -0.54 1.302 l -2.29 0.819 l -0.001 1.891 l 0.267 0.088 l 2.025 0.661 l 0.539 1.306 l -1.04 2.196 l 1.336 1.34 l 0.251 -0.128 l 1.901 -0.964 l 1.302 0.541 l 0.819 2.289 l 1.891 0.001 l 0.087 -0.266 l 0.663 -2.025 l 1.305 -0.539 l 2.196 1.04 l 1.339 -1.336 l -0.127 -0.251 l -0.964 -1.899 l 0.542 -1.305 l 2.289 -0.817 Z m -8.313 2.96 a 3.872 3.872 0 1 1 0.007 -7.745 a 3.872 3.872 0 0 1 -0.007 7.745"/>
<path class="msportalfx-svg-c13" fill="#b8d432" d="M 34.449 20.103 a 2.513 2.513 0 1 1 -4.63 -1.953 a 2.513 2.513 0 0 1 4.63 1.953 M 22.561 31.037 a 2.513 2.513 0 0 1 -5.026 -0.003 a 2.513 2.513 0 1 1 5.026 0.003"/>
</g>
</svg>