<svg xmlns="http://www.w3.org/2000/svg" class="fxs-portal-svg" id="FxSymbol0-062" role="presentation" viewBox="0 0 50 50" focusable="false" xmlns:xlink="http://www.w3.org/1999/xlink" xmlns:svg="http://www.w3.org/2000/svg">
<g>
<title/>
<path class="msportalfx-svg-c09" fill="#dd5900" d="M 47.465 21.535 c -1.349 -1.349 -3.284 -1.726 -4.982 -1.173 l -3.8 -3.8 a 4 4 0 0 0 -5.245 -5.245 l -3.8 -3.8 c 0.553 -1.698 0.176 -3.633 -1.173 -4.982 a 4.9 4.9 0 0 0 -6.93 0 c -1.349 1.349 -1.726 3.284 -1.173 4.982 l -3.8 3.8 a 4 4 0 0 0 -5.245 5.245 l -3.8 3.8 c -1.698 -0.553 -3.633 -0.176 -4.982 1.173 a 4.9 4.9 0 0 0 0 6.93 c 1.349 1.349 3.284 1.726 4.982 1.173 l 3.8 3.8 a 4 4 0 0 0 5.245 5.245 l 3.8 3.8 c -0.553 1.698 -0.176 3.633 1.173 4.982 a 4.9 4.9 0 0 0 6.93 0 c 1.349 -1.349 1.726 -3.284 1.173 -4.982 l 3.8 -3.8 a 4 4 0 0 0 5.245 -5.245 l 3.8 -3.8 c 1.698 0.553 3.633 0.176 4.982 -1.173 a 4.901 4.901 0 0 0 0 -6.93 Z M 22.152 40.031 l -3.469 -3.469 c 0.204 -0.48 0.317 -1.008 0.317 -1.562 s -0.113 -1.082 -0.317 -1.562 L 25 27.121 l 6.317 6.317 C 31.113 33.918 31 34.446 31 35 s 0.113 1.082 0.317 1.562 l -3.469 3.469 a 4.883 4.883 0 0 0 -5.696 0 Z M 9.969 22.152 l 3.469 -3.469 c 0.48 0.204 1.008 0.317 1.562 0.317 s 1.082 -0.113 1.562 -0.317 L 22.879 25 l -6.317 6.317 C 16.082 31.113 15.554 31 15 31 s -1.082 0.113 -1.562 0.317 l -3.469 -3.469 a 4.883 4.883 0 0 0 0 -5.696 Z M 27.848 9.969 l 3.469 3.469 C 31.113 13.918 31 14.446 31 15 s 0.113 1.082 0.317 1.562 L 25 22.879 l -6.317 -6.317 c 0.204 -0.48 0.317 -1.008 0.317 -1.562 s -0.113 -1.082 -0.317 -1.562 l 3.469 -3.469 a 4.883 4.883 0 0 0 5.696 0 Z M 35 31 c -0.554 0 -1.082 0.113 -1.562 0.317 L 27.121 25 l 6.317 -6.317 c 0.48 0.204 1.008 0.317 1.562 0.317 s 1.082 -0.113 1.562 -0.317 l 3.469 3.469 a 4.88 4.88 0 0 0 0 5.696 l -3.469 3.469 A 3.984 3.984 0 0 0 35 31 Z"/>
</g>
</svg>