<svg xmlns="http://www.w3.org/2000/svg" class="" id="FxSymbol0-068" role="presentation" viewBox="0 0 50 50" focusable="false" xmlns:xlink="http://www.w3.org/1999/xlink" xmlns:svg="http://www.w3.org/2000/svg">
<g>
<title/>
<title>Artboard 5</title>
<path class="msportalfx-svg-c19" fill="#0072c6" d="M 0.917 37 h 24.259 l 23.741 -24 h -48 v 24"/>
<path class="msportalfx-svg-c01" fill="#ffffff" d="M 28.62 17.992 h -4.514 v 10.73 l -3.944 -10.733 h -3.909 l -3.367 8.98 c -0.359 -2.263 -2.7 -3.045 -4.542 -3.63 c -1.216 -0.391 -2.507 -0.965 -2.494 -1.599 c 0.01 -0.522 0.692 -1.006 2.043 -0.932 a 7.378 7.378 0 0 1 3.304 0.89 l 1.568 -2.731 a 12.182 12.182 0 0 0 -5.113 -1.215 h -0.01 a 6.21 6.21 0 0 0 -4.517 1.649 a 3.806 3.806 0 0 0 -1.08 2.633 a 3.537 3.537 0 0 0 1.55 3.153 c 0.941 0.63 1.978 1.104 3.069 1.404 c 1.252 0.389 2.276 0.726 2.263 1.446 a 1.048 1.048 0 0 1 -0.295 0.703 a 1.992 1.992 0 0 1 -1.455 0.456 a 6.233 6.233 0 0 1 -3.736 -1.07 l -1.394 2.77 a 10.417 10.417 0 0 0 5.11 1.36 h 0.234 a 6.161 6.161 0 0 0 3.884 -1.302 c 0.058 -0.047 0.111 -0.096 0.165 -0.142 l -0.453 1.209 h 4.1 l 0.689 -2.093 a 7.452 7.452 0 0 0 2.41 0.382 a 7.566 7.566 0 0 0 2.352 -0.362 l 0.663 2.073 h 6.687 v -4.336 h 1.459 c 3.525 0 5.61 -1.796 5.61 -4.804 c 0.001 -3.353 -2.025 -4.889 -6.337 -4.889 Z m -10.432 9.184 a 4.075 4.075 0 0 1 -1.446 -0.253 l 1.433 -4.514 h 0.028 l 1.405 4.527 a 4.27 4.27 0 0 1 -1.42 0.24 Z m 10.699 -2.594 h -0.997 v -3.637 h 0.994 c 1.326 0 2.388 0.44 2.388 1.795 c 0 1.401 -1.058 1.842 -2.388 1.842"/>
<path class="msportalfx-svg-c19" fill="#0072c6" d="M 32.079 33.875 c 0.794 0 1.44 0.646 1.44 1.44 s -0.646 1.44 -1.44 1.44 c -0.794 0 -1.44 -0.646 -1.44 -1.44 s 0.646 -1.44 1.44 -1.44 m 0 -0.25 a 1.69 1.69 0 1 0 0 3.38 a 1.69 1.69 0 0 0 0 -3.38 Z"/>
<path class="msportalfx-svg-c19" fill="#0072c6" d="M 32.39 35.419 a 0.46 0.46 0 0 0 0.463 -0.457 l -0.001 -0.031 c 0 -0.347 -0.208 -0.5 -0.625 -0.5 h -0.674 V 36.2 h 0.267 l 0.003 -0.768 h 0.309 l 0.465 0.766 h 0.3 l -0.507 -0.779 Z m -0.568 -0.215 v -0.549 h 0.362 c 0.185 0 0.383 0.04 0.383 0.26 c 0 0.275 -0.2 0.289 -0.427 0.289 h -0.318 Z"/>
</g>
</svg>