<svg xmlns="http://www.w3.org/2000/svg" class="fxs-portal-svg" id="FxSymbol0-065" role="presentation" viewBox="0 0 50 46.1" focusable="false" xmlns:xlink="http://www.w3.org/1999/xlink" xmlns:svg="http://www.w3.org/2000/svg">
<g>
<title/>
<path class="msportalfx-svg-c15" fill="#59b4d9" d="M 47 0 H 2.7 A 2.775 2.775 0 0 0 0 2.8 v 30.9 a 2.775 2.775 0 0 0 2.7 2.8 h 16.1 c 1.6 5.8 -0.6 6.6 -10.2 6.6 v 3 h 32.6 v -3 c -9.6 0 -10.6 -0.8 -8.9 -6.6 H 47 a 3.045 3.045 0 0 0 3 -2.8 V 2.8 A 3.045 3.045 0 0 0 47 0 Z"/>
<path class="msportalfx-svg-c01" fill="#ffffff" d="M 46.1 3.8 v 28.9 H 3.8 V 3.8 h 42.3 Z"/>
<path class="msportalfx-svg-c19" fill="#0072c6" d="M 25.5 17.4 h -0.1 l -8.8 -5.1 c -0.1 0 -0.1 -0.1 -0.1 -0.2 a 0.349 0.349 0 0 1 0.1 -0.2 l 8.8 -5 h 0.3 l 8.8 5.1 c 0.1 0 0.1 0.1 0.1 0.2 s 0 0.2 -0.1 0.2 l -8.7 5 h -0.3 m -1.2 12.3 h -0.1 l -8.8 -5.1 c -0.1 0 -0.1 -0.1 -0.1 -0.2 V 14.2 a 0.349 0.349 0 0 1 0.1 -0.2 h 0.3 l 8.8 5.1 c 0.1 0 0.1 0.1 0.1 0.2 v 10.2 a 0.349 0.349 0 0 1 -0.1 0.2 h -0.2 m 2.5 0 h -0.1 c -0.1 0 -0.1 -0.1 -0.1 -0.2 V 19.4 a 0.349 0.349 0 0 1 0.1 -0.2 l 8.8 -5.1 h 0.3 c 0.1 0 0.1 0.1 0.1 0.2 v 10.1 a 0.349 0.349 0 0 1 -0.1 0.2 L 27 29.7 h -0.2 M 15 6.3 H 6 v 9 h 3 v -6 h 6 v -3 Z m -9 15 v 9 h 9 v -3 H 9 v -6 H 6 Z m 29 9 h 9 v -9 h -3 v 6 h -6 v 3 Z m 9 -15 v -9 h -9 v 3 h 6 v 6 h 3 Z"/>
</g>
</svg>