<svg xmlns="http://www.w3.org/2000/svg" class="" id="FxSymbol0-0ce" role="presentation" viewBox="0 0 50 50" focusable="false" xmlns:xlink="http://www.w3.org/1999/xlink" xmlns:svg="http://www.w3.org/2000/svg">
<g>
<title/>
<path class="msportalfx-svg-c19" fill="#0072c6" d="M 1 8 v 33 a 1 1 0 0 0 1 1 h 13 c 3.956 0 5.331 1.057 5.787 1.634 c 0.186 0.236 0.47 0.366 0.771 0.366 h 5.885 c 0.301 0 0.584 -0.13 0.771 -0.366 C 28.669 43.057 30.044 42 34 42 h 13 a 1 1 0 0 0 1 -1 V 8 a 1 1 0 0 0 -1 -1 H 2 a 1 1 0 0 0 -1 1 Z"/>
<path class="msportalfx-svg-c02" fill="#e5e5e5" d="M 5 10 h 39 v 29 H 5 Z"/>
<path class="msportalfx-svg-c04" fill="#7a7a7a" d="M 45.646 9.176 c -0.198 -0.167 -4.91 -4.076 -12.004 -4.076 c -5.685 0 -8.224 3.052 -9.142 4.582 c -0.918 -1.53 -3.457 -4.582 -9.142 -4.582 c -7.094 0 -11.806 3.909 -12.004 4.076 L 3 9.475 v 29.749 h 43 V 9.475 l -0.354 -0.299 Z"/>
<path class="msportalfx-svg-c02" fill="#e5e5e5" d="M 15.472 6.1 C 8.593 6.1 4 9.94 4 9.94 V 38 s 6.172 -1.246 11.543 -1.246 C 19.871 36.754 24.2 39 24.2 39 V 10.888 S 22.357 6.1 15.472 6.1 Z m 18.056 0 C 40.407 6.1 45 9.94 45 9.94 V 38 s -6.172 -1.246 -11.543 -1.246 C 29.129 36.754 24.8 39 24.8 39 V 10.888 S 26.643 6.1 33.528 6.1 Z"/>
<path class="msportalfx-svg-c01" opacity="0.2" fill="#ffffff" d="M 13 7.27 c -4.082 0.57 -7.02 2.456 -8 3.163 v 26.362 c 1.649 -0.292 4.771 -0.777 8 -0.962 V 7.27 Z m 21 -0.16 c -0.12 -0.003 -0.237 -0.01 -0.358 -0.01 c -5.415 0 -7.283 3.249 -7.642 3.997 v 26.349 c 1.687 -0.698 4.605 -1.69 7.571 -1.69 c 0.142 0 0.286 0.007 0.429 0.008 V 7.11 Z"/>
<path opacity="0.4" fill="#231f20" d="M 6 12.227 a 19.008 19.008 0 0 1 9.358 -2.075 c 3.115 0.119 5.235 1.149 6.642 2.284 v 1.343 c -1.222 -1.208 -3.292 -2.499 -6.642 -2.627 c -4.17 -0.159 -7.487 1.212 -9.358 2.236 v -1.161 Z m 0 4 a 19.008 19.008 0 0 1 9.358 -2.075 c 3.115 0.119 5.235 1.149 6.642 2.284 v 1.343 c -1.222 -1.208 -3.292 -2.499 -6.642 -2.627 c -4.17 -0.159 -7.487 1.212 -9.358 2.236 v -1.161 Z m 0 4 a 19.008 19.008 0 0 1 9.358 -2.075 c 3.115 0.119 5.235 1.149 6.642 2.284 v 1.343 c -1.222 -1.208 -3.292 -2.499 -6.642 -2.627 c -4.17 -0.159 -7.487 1.212 -9.358 2.236 v -1.161 Z m 0 4 a 19.008 19.008 0 0 1 9.358 -2.075 c 3.115 0.119 5.235 1.149 6.642 2.284 v 1.343 c -1.222 -1.208 -3.292 -2.499 -6.642 -2.627 c -4.17 -0.159 -7.487 1.212 -9.358 2.236 v -1.161 Z m 0 4 a 19.008 19.008 0 0 1 9.358 -2.075 c 3.115 0.119 5.235 1.149 6.642 2.284 v 1.343 c -1.222 -1.208 -3.292 -2.499 -6.642 -2.627 c -4.17 -0.159 -7.487 1.212 -9.358 2.236 v -1.161 Z m 0 4 a 19.008 19.008 0 0 1 9.358 -2.075 c 3.115 0.119 5.235 1.149 6.642 2.284 v 1.343 c -1.222 -1.208 -3.292 -2.499 -6.642 -2.627 c -4.17 -0.159 -7.487 1.212 -9.358 2.236 v -1.161 Z m 37 -20 a 19.008 19.008 0 0 0 -9.358 -2.075 c -3.115 0.119 -5.235 1.149 -6.642 2.284 v 1.343 c 1.222 -1.208 3.292 -2.499 6.642 -2.627 c 4.17 -0.159 7.487 1.212 9.358 2.236 v -1.161 Z m 0 4 a 19.008 19.008 0 0 0 -9.358 -2.075 c -3.115 0.119 -5.235 1.149 -6.642 2.284 v 1.343 c 1.222 -1.208 3.292 -2.499 6.642 -2.627 c 4.17 -0.159 7.487 1.212 9.358 2.236 v -1.161 Z m 0 4 a 19.008 19.008 0 0 0 -9.358 -2.075 c -3.115 0.119 -5.235 1.149 -6.642 2.284 v 1.343 c 1.222 -1.208 3.292 -2.499 6.642 -2.627 c 4.17 -0.159 7.487 1.212 9.358 2.236 v -1.161 Z m 0 4 a 19.008 19.008 0 0 0 -9.358 -2.075 c -3.115 0.119 -5.235 1.149 -6.642 2.284 v 1.343 c 1.222 -1.208 3.292 -2.499 6.642 -2.627 c 4.17 -0.159 7.487 1.212 9.358 2.236 v -1.161 Z M 40 27 c -1.557 -0.396 -4.357 -0.925 -6.358 -0.848 c -3.115 0.119 -5.235 1.149 -6.642 2.284 v 1.343 c 1.222 -1.208 3.292 -2.499 6.642 -2.627 a 17.673 17.673 0 0 1 5.358 0.629 L 40 27 Z"/>
<path class="msportalfx-svg-c01" opacity="0.2" fill="#ffffff" d="M 13 7.27 c -4.082 0.57 -7.02 2.456 -8 3.163 v 26.362 c 1.649 -0.292 4.771 -0.777 8 -0.962 V 7.27 Z m 21 -0.16 c -0.12 -0.003 -0.237 -0.01 -0.358 -0.01 c -5.415 0 -7.283 3.249 -7.642 3.997 v 26.349 c 1.687 -0.698 4.605 -1.69 7.571 -1.69 c 0.142 0 0.286 0.007 0.429 0.008 V 7.11 Z"/>
</g>
</svg>