<svg xmlns="http://www.w3.org/2000/svg" class="" id="FxSymbol0-0c0" role="presentation" viewBox="0 0 50 50" focusable="false" xmlns:xlink="http://www.w3.org/1999/xlink" xmlns:svg="http://www.w3.org/2000/svg">
<g>
<title/>
<path class="msportalfx-svg-c19" fill="#0072c6" d="M 38.961 1.702 c -0.002 -0.009 -0.001 -0.021 -0.004 -0.03 c -0.012 -0.043 -0.034 -0.074 -0.051 -0.112 c -0.241 -0.548 -0.901 -0.56 -0.901 -0.56 h -26.01 s -0.652 0.012 -0.897 0.552 c -0.018 0.04 -0.042 0.074 -0.055 0.12 l -0.004 0.03 A 1.163 1.163 0 0 0 11 2 v 46 c 0 0.957 1 1 1 1 h 26 s 1 -0.043 1 -1 V 2 c 0 -0.113 -0.016 -0.209 -0.039 -0.298 Z"/>
<path class="msportalfx-svg-c01" opacity="0.85" fill="#ffffff" d="M 15 5 h 4 v 7 h -4 Z m 8 0 h 4 v 7 h -4 Z m 8 0 h 4 v 7 h -4 Z M 15 16 h 4 v 7 h -4 Z m 8 0 h 4 v 7 h -4 Z m 8 0 h 4 v 7 h -4 Z M 15 27 h 4 v 7 h -4 Z m 8 0 h 4 v 7 h -4 Z m -1 13 h 6 v 9.05 h -6 Z m 9 -13 h 4 v 7 h -4 Z"/>
<path class="msportalfx-svg-c01" opacity="0.2" fill="#ffffff" d="M 36 1 H 11.993 c -0.01 0 -0.652 0.016 -0.896 0.551 c -0.018 0.04 -0.042 0.074 -0.055 0.12 l -0.004 0.03 c -0.022 0.09 -0.038 0.186 -0.038 0.299 v 34.295 L 36 1 Z"/>
</g>
</svg>