<svg xmlns="http://www.w3.org/2000/svg" class="" id="FxSymbol0-114" role="presentation" viewBox="0 0 16 16" focusable="false" xmlns:xlink="http://www.w3.org/1999/xlink" xmlns:svg="http://www.w3.org/2000/svg">
<g>
<title/>
<path class="msportalfx-svg-c14" fill="#7fba00" d="M 9.508 1.551 C 6.503 1.235 6 0.001 6 0.001 s -0.677 1.623 -5 1.623 v 6.659 c 0 0.805 0.47 1.559 1.12 2.218 c 1.474 1.494 3.88 2.5 3.88 2.5 s 5 -2.087 5 -4.719 V 1.624 c -0.556 0 -1.051 -0.027 -1.492 -0.073 Z"/>
<path class="msportalfx-svg-c13" opacity="0.4" fill="#b8d432" d="M 7.237 4.302 L 9.508 1.55 C 6.503 1.235 6 0.001 6 0.001 s -0.677 1.623 -5 1.623 v 6.659 c 0 0.805 0.47 1.559 1.12 2.218 l 1.679 -2.034 l 3.438 -4.165 Z"/>
<path class="msportalfx-svg-c01" fill="#ffffff" d="M 7 7.999 h 7 v 7 l -6.979 0.048 Z"/>
<path fill="#3898c6" d="M 10 9 h 3 v 1 h -3 Z m 0 2 h 3 v 1 h -3 Z m 0 2 h 3 v 1 h -3 Z M 8 9 h 1 v 1 H 8 Z m 0 2 h 1 v 1 H 8 Z m 0 2 h 1 v 1 H 8 Z"/>
<path class="msportalfx-svg-c16" fill="#3999c6" d="M 14.653 6 H 6.347 A 0.345 0.345 0 0 0 6 6.345 v 9.311 c 0 0.19 0.155 0.344 0.347 0.344 h 8.305 a 0.346 0.346 0 0 0 0.348 -0.345 v -9.31 A 0.345 0.345 0 0 0 14.653 6 Z M 7 15 V 7.999 h 7 V 15 H 7 Z"/>
</g>
</svg>