<svg xmlns="http://www.w3.org/2000/svg" class="fxs-portal-svg" id="FxSymbol0-0dc" role="presentation" viewBox="0 0 50 50" focusable="false" xmlns:xlink="http://www.w3.org/1999/xlink" xmlns:svg="http://www.w3.org/2000/svg">
<g>
<title/>
<path class="msportalfx-svg-c01" fill="#ffffff" d="M 22.83 4.372 a 20.662 20.662 0 0 0 -13.953 7.579 a 20.672 20.672 0 0 0 -4.508 15.227 a 20.668 20.668 0 0 0 7.581 13.949 c 4.134 3.346 9.52 5.109 15.222 4.509 c 5.705 -0.601 10.606 -3.451 13.955 -7.581 c 3.34 -4.132 5.106 -9.519 4.505 -15.225 c -0.608 -5.751 -3.528 -10.669 -7.724 -14.064 c -3.531 -2.859 -8.032 -4.51 -12.856 -4.51 c -0.733 0 -1.474 0.038 -2.222 0.116"/>
<path class="msportalfx-svg-c16" fill="#3999c6" d="M 49.859 22.385 c -0.728 -6.937 -4.271 -12.883 -9.273 -16.928 c -0.971 -0.786 -2.018 -1.472 -3.1 -2.1 l -1.963 3.777 a 19.82 19.82 0 0 1 2.385 1.632 c 4.196 3.395 7.116 8.312 7.723 14.063 c 0.602 5.706 -1.165 11.093 -4.504 15.226 c -3.349 4.131 -8.25 6.98 -13.955 7.581 c -3.82 0.4 -7.489 -0.277 -10.744 -1.761 l -1.961 3.774 c 3.976 1.851 8.479 2.708 13.151 2.214 a 24.914 24.914 0 0 0 16.814 -9.133 a 24.908 24.908 0 0 0 5.427 -18.345"/>
<path class="msportalfx-svg-c03" fill="#a0a1a2" d="M 11.951 41.127 A 20.664 20.664 0 0 1 4.37 27.178 A 20.664 20.664 0 0 1 8.878 11.95 a 20.656 20.656 0 0 1 13.951 -7.578 c 4.613 -0.484 9.016 0.574 12.694 2.76 l 1.963 -3.776 A 24.837 24.837 0 0 0 22.381 0.143 A 24.944 24.944 0 0 0 5.569 9.274 l -0.007 0.009 A 24.94 24.94 0 0 0 0.139 27.621 a 24.935 24.935 0 0 0 9.135 16.815 c 1.582 1.282 3.335 2.346 5.194 3.212 l 1.961 -3.774 a 20.814 20.814 0 0 1 -4.478 -2.747"/>
<path class="msportalfx-svg-c15" fill="#59b4d9" d="M 11.951 41.127 A 20.664 20.664 0 0 1 4.37 27.178 A 20.664 20.664 0 0 1 8.878 11.95 a 20.656 20.656 0 0 1 13.951 -7.578 c 4.613 -0.484 9.016 0.574 12.694 2.76 l 1.963 -3.776 A 24.837 24.837 0 0 0 22.381 0.143 A 24.944 24.944 0 0 0 5.569 9.274 l -0.007 0.009 A 24.94 24.94 0 0 0 0.139 27.621 a 24.935 24.935 0 0 0 9.135 16.815 c 1.582 1.282 3.335 2.346 5.194 3.212 l 1.961 -3.774 a 20.814 20.814 0 0 1 -4.478 -2.747"/>
<path class="msportalfx-svg-c04" fill="#7a7a7a" d="M 35.497 31.558 l -9.601 -3.414 a 2 2 0 1 1 1.34 -3.768 l 9.601 3.414 a 2 2 0 1 1 -1.34 3.768 Z"/>
<path class="msportalfx-svg-c04" fill="#7a7a7a" d="M 24.801 27.773 a 2 2 0 0 1 -2 -2 V 8.755 a 2 2 0 0 1 4 0 v 17.018 a 2 2 0 0 1 -2 2 Z"/>
<circle class="msportalfx-svg-c06" fill="#1e1e1e" cx="24.801" cy="25.773" r="2.921"/>
<path class="msportalfx-svg-c04" fill="#7a7a7a" d="M 12.716 11.903 l 2.515 2.514 l -0.812 0.811 l -2.514 -2.514 Z m 11.702 -4.816 h 1.146 v 3.556 h -1.146 Z m 12.732 4.93 l 0.811 0.81 l -2.514 2.515 l -0.811 -0.81 Z m 1.905 12.398 h 3.556 v 1.147 h -3.556 Z M 35.284 34.47 l 2.515 2.515 l -0.812 0.81 l -2.514 -2.514 Z"/>
<path class="msportalfx-svg-c04" fill="#7a7a7a" d="M 35.284 34.47 l 2.515 2.515 l -0.812 0.81 l -2.514 -2.514 Z m -10.866 4.526 h 1.146 v 3.556 h -1.146 Z M 12.716 11.903 l 2.515 2.514 l -0.812 0.811 l -2.514 -2.514 Z m 1.878 22.671 l 0.81 0.811 L 12.89 37.9 l -0.81 -0.811 Z"/>
<path class="msportalfx-svg-c04" fill="#7a7a7a" d="M 14.594 34.574 l 0.81 0.811 L 12.89 37.9 l -0.81 -0.811 Z M 7.151 24.415 h 3.557 v 1.147 H 7.151 Z"/>
</g>
</svg>