<svg xmlns="http://www.w3.org/2000/svg" class="fxs-portal-svg" id="FxSymbol0-0f9" role="presentation" viewBox="0 0 50 50" focusable="false" xmlns:xlink="http://www.w3.org/1999/xlink" xmlns:svg="http://www.w3.org/2000/svg">
<g>
<title/>
<circle class="msportalfx-svg-c01" fill="#ffffff" cx="25" cy="25" r="21.756"/>
<path class="msportalfx-svg-c02" fill="#e5e5e5" d="M 44.948 33.683 C 40.152 44.7 27.333 49.744 16.316 44.948 L 33.683 5.052 c 11.018 4.795 16.061 17.614 11.265 28.631 Z"/>
<path class="msportalfx-svg-c03" fill="#a0a1a2" d="M 25 4.07 c 11.541 0 20.93 9.389 20.93 20.93 S 36.541 45.93 25 45.93 S 4.07 36.541 4.07 25 S 13.459 4.07 25 4.07 m 0 -2 C 12.336 2.07 2.07 12.336 2.07 25 S 12.336 47.93 25 47.93 S 47.93 37.664 47.93 25 S 37.664 2.07 25 2.07 Z"/>
<path class="msportalfx-svg-c04" fill="#7a7a7a" d="M 10.131 16.951 l 0.543 -0.94 l 2.915 1.683 l -0.543 0.94 Z m 14.412 -8.912 h 1.085 v 3.366 h -1.085 Z m 6.817 5.005 l 1.683 -2.915 l 0.941 0.543 l -1.683 2.915 Z m 7.039 11.4 h 3.366 v 1.086 h -3.366 Z m -2.103 7.615 l 0.543 -0.94 l 2.914 1.682 l -0.543 0.94 Z"/>
<path class="msportalfx-svg-c04" fill="#7a7a7a" d="M 36.296 32.059 l 0.543 -0.94 l 2.914 1.682 l -0.543 0.94 Z m -11.753 6.189 h 1.085 v 3.366 h -1.085 Z M 10.131 16.951 l 0.543 -0.94 l 2.915 1.683 l -0.543 0.94 Z m 6.131 22.246 l 1.683 -2.915 l 0.94 0.543 l -1.682 2.915 Z"/>
<path class="msportalfx-svg-c04" fill="#7a7a7a" d="M 16.262 39.197 l 1.683 -2.915 l 0.94 0.543 l -1.682 2.915 Z M 8.197 24.444 h 3.367 v 1.086 H 8.197 Z"/>
<path class="msportalfx-svg-c06" opacity="0.5" fill="#1e1e1e" d="M 10.131 16.951 l 0.543 -0.94 l 2.915 1.683 l -0.543 0.94 Z m 14.412 -8.912 h 1.085 v 3.366 h -1.085 Z m 6.817 5.005 l 1.683 -2.915 l 0.941 0.543 l -1.683 2.915 Z m 7.039 11.4 h 3.366 v 1.086 h -3.366 Z m -2.103 7.615 l 0.543 -0.94 l 2.914 1.682 l -0.543 0.94 Z"/>
<path class="msportalfx-svg-c06" opacity="0.5" fill="#1e1e1e" d="M 36.296 32.059 l 0.543 -0.94 l 2.914 1.682 l -0.543 0.94 Z m -11.753 6.189 h 1.085 v 3.366 h -1.085 Z M 10.131 16.951 l 0.543 -0.94 l 2.915 1.683 l -0.543 0.94 Z m 6.131 22.246 l 1.683 -2.915 l 0.94 0.543 l -1.682 2.915 Z"/>
<path class="msportalfx-svg-c06" opacity="0.5" fill="#1e1e1e" d="M 16.262 39.197 l 1.683 -2.915 l 0.94 0.543 l -1.682 2.915 Z"/>
<path class="msportalfx-svg-c04" fill="#7a7a7a" d="M 16.108 10.614 l 0.94 -0.543 l 1.683 2.915 l -0.94 0.543 Z m 20.338 7.231 l 2.915 -1.683 l 0.543 0.94 l -2.915 1.683 Z m -5.232 18.934 l 0.94 -0.543 l 1.683 2.914 l -0.94 0.543 Z"/>
<path class="msportalfx-svg-c04" fill="#7a7a7a" d="M 31.214 36.779 l 0.94 -0.543 l 1.683 2.914 l -0.94 0.543 Z M 16.108 10.614 l 0.94 -0.543 l 1.683 2.915 l -0.94 0.543 Z m -5.813 22.332 l 2.914 -1.683 l 0.543 0.94 l -2.914 1.683 Z"/>
<path class="msportalfx-svg-c04" fill="#7a7a7a" d="M 10.295 32.946 l 2.914 -1.683 l 0.543 0.94 l -2.914 1.683 Z"/>
<path class="msportalfx-svg-c06" opacity="0.5" fill="#1e1e1e" d="M 16.108 10.614 l 0.94 -0.543 l 1.683 2.915 l -0.94 0.543 Z m 20.338 7.231 l 2.915 -1.683 l 0.543 0.94 l -2.915 1.683 Z m -5.232 18.934 l 0.94 -0.543 l 1.683 2.914 l -0.94 0.543 Z"/>
<path class="msportalfx-svg-c06" opacity="0.5" fill="#1e1e1e" d="M 31.214 36.779 l 0.94 -0.543 l 1.683 2.914 l -0.94 0.543 Z M 16.108 10.614 l 0.94 -0.543 l 1.683 2.915 l -0.94 0.543 Z m -5.813 22.332 l 2.914 -1.683 l 0.543 0.94 l -2.914 1.683 Z"/>
<path class="msportalfx-svg-c06" opacity="0.5" fill="#1e1e1e" d="M 10.295 32.946 l 2.914 -1.683 l 0.543 0.94 l -2.914 1.683 Z m -2.098 -8.502 h 3.367 v 1.086 H 8.197 Z"/>
<path class="msportalfx-svg-c04" fill="#7a7a7a" d="M 35.767 30.083 l -9.309 -2.529 a 1.893 1.893 0 0 1 0.993 -3.653 l 9.309 2.529 a 1.893 1.893 0 0 1 -0.993 3.653 Z"/>
<path class="msportalfx-svg-c04" fill="#7a7a7a" d="M 25.096 27.623 c -0.94 0 -1.703 -0.848 -1.703 -1.893 V 9.618 c 0 -1.045 0.763 -1.893 1.703 -1.893 s 1.703 0.848 1.703 1.893 V 25.73 c 0 1.046 -0.762 1.893 -1.703 1.893 Z"/>
<circle class="msportalfx-svg-c06" fill="#1e1e1e" cx="25" cy="25" r="3.235"/>
<path class="msportalfx-svg-c01" opacity="0.5" fill="#ffffff" d="M 25 47.93 c 12.664 0 22.93 -10.266 22.93 -22.93 S 37.664 2.07 25 2.07 c -0.176 0 -0.349 0.009 -0.523 0.013 l -0.084 4.022 l 0.999 0.021 c 8.613 0.182 16.015 6.149 17.999 14.512 c 2.404 10.14 -3.889 20.346 -14.028 22.751 a 18.93 18.93 0 0 1 -4.362 0.513 h -0.002 A 18.837 18.837 0 0 1 6.61 29.361 c -1.448 -6.105 0.276 -12.467 4.411 -17.034 l 4.037 4.109 L 17.473 3.34 C 8.508 6.456 2.07 14.974 2.07 25 c 0 12.664 10.266 22.93 22.93 22.93 Z"/>
<path class="msportalfx-svg-c17" fill="#804998" d="M 14.423 14.363 L 4.611 4.377 l 12.033 -2.052 Z"/>
<path class="msportalfx-svg-c17" fill="#804998" d="M 25.497 1.1 l -0.084 4.027 c 8.844 0.187 16.815 6.283 18.949 15.281 c 2.532 10.677 -4.094 21.423 -14.77 23.955 S 8.169 40.269 5.637 29.592 c -1.868 -7.877 1.258 -15.78 7.308 -20.406 l -2.863 -2.862 C 3.09 11.917 -0.458 21.225 1.745 30.516 c 3.046 12.843 15.927 20.785 28.77 17.739 S 51.3 32.328 48.254 19.485 C 45.687 8.657 36.129 1.314 25.497 1.1 Z"/>
</g>
</svg>