<svg xmlns="http://www.w3.org/2000/svg" class="fxs-portal-svg" id="FxSymbol0-0b9" role="presentation" viewBox="0 0 26.8 27.1" focusable="false" xmlns:xlink="http://www.w3.org/1999/xlink" xmlns:svg="http://www.w3.org/2000/svg">
<g>
<title/>
<path class="msportalfx-svg-c15" fill="#59b4d9" d="M 24.1 6 c 0 3 -2.4 5.5 -5.5 5.5 c -3 0 -5.5 -2.4 -5.5 -5.5 c 0 -3 2.4 -5.5 5.5 -5.5 c 3 0 5.5 2.4 5.5 5.5 m -1.5 7.3 l -4 5.6 l -4 -5.6 h -4.1 v 13.8 h 16.3 V 13.3 Z M 7.7 15.1 c 0 1.7 -1.4 3.1 -3.1 3.1 s -3.1 -1.4 -3.1 -3.1 c 0 -1.7 1.4 -3.1 3.1 -3.1 s 3.1 1.4 3.1 3.1 m -0.9 4.3 l -2.2 3.1 l -2.3 -3.1 H 0 v 7.7 h 9.2 v -7.7 Z"/>
<path class="msportalfx-svg-c01" opacity="0.2" fill="#ffffff" d="M 13.1 6 c 0 3 2.4 5.4 5.3 5.5 L 19.8 0.7 c -0.4 -0.1 -0.8 -0.1 -1.2 -0.1 c -3 -0.1 -5.5 2.3 -5.5 5.4 m 1.5 7.3 h -4.1 v 13.8 h 6 l 1.2 -9.5 Z M 1.5 15.1 c 0 1.7 1.4 3.1 3.1 3.1 h 0.3 l 0.8 -5.9 c -0.3 -0.1 -0.7 -0.2 -1.1 -0.2 c -1.7 0 -3.1 1.3 -3.1 3"/>
</g>
</svg>