<svg xmlns="http://www.w3.org/2000/svg" class="" id="FxSymbol0-0c4" role="presentation" viewBox="0 0 50 50" focusable="false" xmlns:xlink="http://www.w3.org/1999/xlink" xmlns:svg="http://www.w3.org/2000/svg">
<g>
<title/>
<path class="msportalfx-svg-c16" fill="#3999c6" d="M 28.969 8 c 0 4.363 -3.568 7.9 -7.969 7.9 s -7.968 -3.537 -7.968 -7.9 S 16.599 0.1 21 0.1 s 7.969 3.537 7.969 7.9 m -2.033 11 L 21 27.11 L 15.064 19 H 6.501 v 20 H 35.5 V 19 Z"/>
<path class="msportalfx-svg-c01" opacity="0.2" fill="#ffffff" d="M 13.032 8 c 0 4.298 3.463 7.787 7.773 7.891 L 22.806 0.313 A 7.95 7.95 0 0 0 21 0.1 c -4.401 0 -7.968 3.537 -7.968 7.9 m 2.034 11 H 6.5 v 20 h 11.371 l 1.793 -13.716 Z"/>
<path class="msportalfx-svg-c01" opacity="0.4" fill="#ffffff" d="M 35.5 39 V 25.682 C 33.383 24.493 33 23 33 23 s -1 4.121 -9 4.121 h -1 V 39 h 12.5 Z"/>
<path class="msportalfx-svg-c14" fill="#7fba00" d="M 39.314 27.98 C 33.905 27.372 33 25 33 25 s -1.217 3.121 -9 3.121 v 12.805 c 0 1.548 0.845 2.998 2.015 4.266 C 28.668 48.066 33 50 33 50 s 9 -4.014 9 -9.074 V 28.121 c -1.001 0 -1.891 -0.052 -2.686 -0.141 Z"/>
<path class="msportalfx-svg-c13" opacity="0.4" fill="#b8d432" d="M 35.226 33.271 l 4.088 -5.291 C 33.905 27.372 33 25 33 25 s -1.217 3.121 -9 3.121 v 12.805 c 0 1.548 0.845 2.998 2.015 4.266 l 3.022 -3.911 l 6.189 -8.01 Z"/>
</g>
</svg>