<svg xmlns="http://www.w3.org/2000/svg" class="" id="FxSymbol0-0d1" role="presentation" viewBox="0 0 50 50" focusable="false" xmlns:xlink="http://www.w3.org/1999/xlink" xmlns:svg="http://www.w3.org/2000/svg">
<g>
<title/>
<path class="msportalfx-svg-c13" fill="#b8d432" d="M 28.4 10.4 c 0 5.6 -4.6 10.2 -10.2 10.2 S 8 16.1 8 10.4 C 8 4.8 12.6 0.2 18.2 0.2 c 5.7 0 10.2 4.6 10.2 10.2 m -2.7 13.7 l -7.5 10.5 l -7.4 -10.5 H 0 v 25.8 h 36.5 V 24.1 Z"/>
<path class="msportalfx-svg-c01" opacity="0.2" fill="#ffffff" d="M 8 10.4 c 0 5.6 4.4 10.1 10 10.2 L 20.6 0.5 c -0.7 -0.2 -1.5 -0.3 -2.3 -0.3 C 12.6 0.2 8 4.8 8 10.4 m 2.8 13.7 H 0 v 25.8 h 14.3 l 2.3 -17.6 Z"/>
<path class="msportalfx-svg-c16" fill="#3999c6" d="M 37.7 37.3 h -0.1 l -9 -5.2 c -0.1 0 -0.1 -0.1 -0.1 -0.2 s 0.1 -0.2 0.1 -0.2 l 9 -5.2 h 0.3 l 9 5.2 c 0.1 0 0.1 0.1 0.1 0.2 s -0.1 0.2 -0.1 0.2 l -9 5.2 c -0.1 -0.1 -0.2 0 -0.2 0"/>
<path class="msportalfx-svg-c15" fill="#59b4d9" d="M 36.4 49.9 h -0.1 l -9 -5.2 c -0.1 0 -0.1 -0.1 -0.1 -0.2 V 34 c 0 -0.1 0.1 -0.2 0.1 -0.2 h 0.3 l 9 5.2 c 0.1 0.1 0.1 0.1 0.1 0.2 v 10.4 c 0 0.1 -0.1 0.2 -0.1 0.2 c -0.1 0.1 -0.2 0.1 -0.2 0.1 m 2.5 0 h -0.1 c -0.1 0 -0.1 -0.1 -0.1 -0.2 V 39.3 c 0 -0.1 0.1 -0.2 0.1 -0.2 l 9 -5.2 h 0.3 c 0.1 0 0.1 0.1 0.1 0.2 v 10.4 c 0 0.1 -0.1 0.2 -0.1 0.2 l -9 5.2 h -0.2"/>
<path class="msportalfx-svg-c01" opacity="0.5" fill="#ffffff" d="M 38.9 49.9 h -0.1 c -0.1 0 -0.1 -0.1 -0.1 -0.2 V 39.3 c 0 -0.1 0.1 -0.2 0.1 -0.2 l 9 -5.2 h 0.3 c 0.1 0 0.1 0.1 0.1 0.2 v 10.4 c 0 0.1 -0.1 0.2 -0.1 0.2 l -9 5.2 h -0.2"/>
</g>
</svg>