<svg xmlns="http://www.w3.org/2000/svg" class="" id="FxSymbol0-0d8" role="presentation" viewBox="0 0 50 50" focusable="false" xmlns:xlink="http://www.w3.org/1999/xlink" xmlns:svg="http://www.w3.org/2000/svg">
<g>
<title/>
<path class="msportalfx-svg-c15" fill="#59b4d9" d="M 24.9 9.5 a 8.4 8.4 0 1 1 -16.8 0 a 8.4 8.4 0 0 1 16.8 0 M 22.436 20 L 16.5 28.516 L 10.563 20 H 2 v 21 h 29 V 20 Z"/>
<path class="msportalfx-svg-c01" fill="#ffffff" d="M 40.824 36.99 l -4.427 -4.414 l -7.785 -3.001 l -2.463 3.806 L 22.883 36 h -4.006 l 1.241 2.548 h 4.759 c 3.458 5.392 8 9.71 8 9.71 s 4.529 -2.997 8 -8.258 h 1.592 a 10.106 10.106 0 0 0 1.408 -2.719 l -3.053 -0.291 Z"/>
<path class="msportalfx-svg-c01" fill="#ffffff" d="M 46.688 38 H 41.78 l -1.241 2.548 h 4.867 Z"/>
<path class="msportalfx-svg-c09" fill="#dd5900" d="M 38.518 26 c -2.42 0 -4.494 1.521 -5.518 3.718 C 31.976 27.521 29.902 26 27.482 26 c -3.429 0 -6.208 3.022 -6.208 6.75 c 0 0.833 0.123 1.673 0.339 2.51 H 18.48 l 0.822 1.644 h 6.402 l 3.565 -5.509 l 4.142 8.561 l 3.929 -5.5 L 40.24 38 h 3.389 c 0.679 -1.646 1.099 -3.408 1.099 -5.25 c -0.002 -3.728 -2.781 -6.75 -6.21 -6.75 Z"/>
<path class="msportalfx-svg-c08" fill="#ba141a" d="M 45.877 39.644 H 39.46 l -2.032 -2.483 l -4.29 6.007 l -4.077 -8.425 l -2.463 3.806 h -3.689 C 26.131 44.723 33 50 33 50 s 5.391 -3.451 8.862 -8.712 h 3.192 l 0.823 -1.644 Z"/>
</g>
</svg>