<svg xmlns="http://www.w3.org/2000/svg" class="msportalfx-svg-palette-black fxs-portal-svg" id="FxSymbol0-0fe" role="presentation" viewBox="0 0 50 50" focusable="false" xmlns:xlink="http://www.w3.org/1999/xlink" xmlns:svg="http://www.w3.org/2000/svg">
<g>
<title/>
<path class="msportalfx-svg-c15" fill="#59b4d9" d="M 25 2.753 C 12.713 2.753 2.753 12.713 2.753 25 S 12.713 47.246 25 47.246 S 47.247 37.287 47.247 25 c 0 -12.286 -9.961 -22.247 -22.247 -22.247 Z m -1.543 7.913 a 3.209 3.209 0 0 1 2.369 -0.989 c 0.94 0 1.737 0.33 2.39 0.989 c 0.651 0.659 0.976 1.451 0.976 2.378 s -0.329 1.717 -0.987 2.369 a 3.265 3.265 0 0 1 -2.379 0.977 a 3.228 3.228 0 0 1 -2.369 -0.977 c -0.652 -0.652 -0.978 -1.442 -0.978 -2.369 s 0.326 -1.719 0.978 -2.378 Z m 7.865 29.165 H 20.35 v -0.782 c 0.898 -0.029 1.564 -0.29 1.999 -0.782 c 0.289 -0.333 0.434 -1.217 0.434 -2.651 V 23.754 c 0 -1.433 -0.166 -2.349 -0.498 -2.748 c -0.334 -0.398 -0.979 -0.627 -1.935 -0.684 v -0.804 h 8.517 v 16.098 c 0 1.434 0.166 2.35 0.499 2.749 c 0.333 0.398 0.985 0.626 1.956 0.684 v 0.782 Z"/>
</g>
</svg>