<svg xmlns="http://www.w3.org/2000/svg" class="" id="FxSymbol0-0d6" role="presentation" viewBox="0 0 52 52" focusable="false" xmlns:xlink="http://www.w3.org/1999/xlink" xmlns:svg="http://www.w3.org/2000/svg">
<g>
<title/>
<g fill="none" fill-rule="evenodd">
<rect fill="#e4e4e4" x="2" y="2" width="48" height="48" rx="2"/>
<path fill="#81ba33" d="M 28.403 36.715 c -0.264 0.191 -0.64 0.425 -1.131 0.7 c -0.491 0.275 -1.108 0.545 -1.85 0.808 s -1.616 0.49 -2.621 0.682 c -1.005 0.192 -2.143 0.287 -3.411 0.287 c -1.796 0 -3.495 -0.269 -5.1 -0.808 c -1.603 -0.538 -3.01 -1.346 -4.219 -2.423 c -1.209 -1.078 -2.166 -2.418 -2.872 -4.022 c -0.707 -1.604 -1.06 -3.471 -1.06 -5.602 c 0 -2.083 0.341 -3.932 1.024 -5.548 c 0.682 -1.616 1.616 -2.98 2.8 -4.093 c 1.186 -1.114 2.574 -1.963 4.166 -2.55 c 1.592 -0.586 3.31 -0.88 5.153 -0.88 c 0.981 0 1.867 0.06 2.657 0.18 s 1.49 0.275 2.1 0.467 a 10.65 10.65 0 0 1 1.563 0.61 c 0.43 0.216 0.778 0.407 1.041 0.575 c 0.55 0.407 0.946 0.832 1.185 1.274 c 0.24 0.443 0.36 0.904 0.36 1.383 c 0 0.455 -0.09 0.886 -0.27 1.293 a 5.18 5.18 0 0 1 -0.646 1.095 a 6.455 6.455 0 0 1 -0.754 0.826 a 3.89 3.89 0 0 1 -0.629 0.485 c -0.24 -0.24 -0.544 -0.521 -0.916 -0.844 a 6.39 6.39 0 0 0 -1.346 -0.88 a 10.256 10.256 0 0 0 -1.814 -0.682 c -0.682 -0.192 -1.442 -0.288 -2.28 -0.288 c -1.053 0 -2.01 0.174 -2.872 0.521 a 6.4 6.4 0 0 0 -2.245 1.508 c -0.634 0.659 -1.125 1.455 -1.472 2.388 c -0.347 0.934 -0.52 1.987 -0.52 3.16 c 0 1.197 0.19 2.25 0.574 3.16 c 0.383 0.91 0.91 1.67 1.58 2.28 a 6.663 6.663 0 0 0 2.388 1.383 c 0.921 0.311 1.92 0.467 2.998 0.467 c 1.34 0 2.496 -0.168 3.465 -0.503 c 0.97 -0.335 1.706 -0.682 2.209 -1.041 l 2.693 4.632 h 0.072 Z"/>
<path fill="#486385" d="M 26.257 31.508 c 0.144 0.12 0.467 0.305 0.97 0.557 c 0.503 0.25 1.137 0.502 1.903 0.754 c 0.766 0.251 1.652 0.478 2.657 0.682 c 1.006 0.203 2.095 0.305 3.268 0.305 c 0.957 0 1.723 -0.066 2.298 -0.197 c 0.575 -0.132 1.017 -0.306 1.329 -0.521 c 0.31 -0.215 0.514 -0.46 0.61 -0.736 c 0.096 -0.275 0.144 -0.557 0.144 -0.844 c 0 -0.575 -0.234 -1.047 -0.7 -1.418 c -0.467 -0.371 -1.335 -0.665 -2.604 -0.88 l -3.663 -0.647 a 20.999 20.999 0 0 1 -2.872 -0.718 a 9.075 9.075 0 0 1 -2.568 -1.292 a 6.474 6.474 0 0 1 -1.849 -2.119 c -0.479 -0.862 -0.718 -1.927 -0.718 -3.196 c 0 -1.101 0.203 -2.136 0.61 -3.106 A 6.742 6.742 0 0 1 26.94 15.6 c 0.837 -0.718 1.897 -1.286 3.177 -1.705 c 1.281 -0.42 2.783 -0.629 4.507 -0.629 c 1.245 0 2.334 0.066 3.268 0.198 c 0.933 0.132 1.735 0.293 2.406 0.485 c 0.67 0.191 1.214 0.383 1.633 0.574 c 0.42 0.192 0.725 0.347 0.916 0.467 c 0.407 0.24 0.796 0.569 1.167 0.987 c 0.371 0.42 0.557 0.916 0.557 1.49 c 0 0.408 -0.072 0.797 -0.216 1.168 a 5.474 5.474 0 0 1 -0.52 1.023 c -0.204 0.311 -0.425 0.58 -0.665 0.808 a 6.07 6.07 0 0 1 -0.61 0.52 c -0.24 -0.239 -0.599 -0.508 -1.077 -0.807 a 8.911 8.911 0 0 0 -1.724 -0.808 c -0.67 -0.24 -1.436 -0.443 -2.298 -0.61 a 14.48 14.48 0 0 0 -2.765 -0.252 c -0.934 0 -1.676 0.078 -2.227 0.233 c -0.55 0.156 -0.963 0.348 -1.238 0.575 c -0.276 0.227 -0.455 0.485 -0.539 0.772 a 2.84 2.84 0 0 0 -0.126 0.79 c 0 0.215 0.03 0.419 0.09 0.61 c 0.06 0.192 0.204 0.377 0.431 0.557 c 0.227 0.18 0.55 0.347 0.97 0.503 c 0.418 0.155 0.987 0.305 1.705 0.449 l 3.806 0.754 c 1.341 0.263 2.52 0.592 3.537 0.987 c 1.018 0.395 1.874 0.88 2.568 1.454 a 5.44 5.44 0 0 1 1.562 2.083 c 0.347 0.814 0.52 1.784 0.52 2.909 c 0 2.513 -0.939 4.476 -2.818 5.889 c -1.88 1.412 -4.53 2.118 -7.954 2.118 c -1.556 0 -2.986 -0.131 -4.291 -0.395 c -1.305 -0.263 -2.448 -0.568 -3.43 -0.915 c -0.98 -0.347 -1.777 -0.677 -2.387 -0.988 c -0.61 -0.31 -0.976 -0.526 -1.095 -0.646 l 2.477 -4.74 Z"/>
</g>
</g>
</svg>