<svg xmlns="http://www.w3.org/2000/svg" class="" id="FxSymbol0-0d5" role="presentation" viewBox="0 0 52 52" focusable="false" xmlns:xlink="http://www.w3.org/1999/xlink" xmlns:svg="http://www.w3.org/2000/svg">
<g>
<title/>
<g fill="none" fill-rule="evenodd">
<g stroke="#81ba33">
<path fill="#81ba33" stroke-width="3" d="M 28.978 45.122 v -5"/>
<path fill="#81ba33" stroke-linecap="round" stroke-width="3" d="M 45.373 47.107 H 33.202 m -9.467 0 H 11.564"/>
<path class="msportalfx-svg-c01" fill="#ffffff" stroke-width="2" d="M 24.74 49.167 h 8.475 v -3.869 H 24.74 Z"/>
</g>
<path fill="#eaeaea" fill-rule="nonzero" stroke="#486385" stroke-width="2" d="M 47.002 29.774 h -36.03 c -0.845 0 -1.502 0.543 -1.502 1.24 v 7.52 c 0 0.698 0.657 1.24 1.501 1.24 h 36.031 c 0.845 0 1.502 -0.542 1.502 -1.24 v -7.52 c 0 -0.697 -0.657 -1.24 -1.502 -1.24 Z"/>
<path stroke="#486385" d="M 14.303 36.095 c -0.75 0 -1.407 -0.616 -1.407 -1.32 c 0 -0.705 0.657 -1.321 1.407 -1.321 c 0.751 0 1.408 0.616 1.408 1.32 c 0 0.705 -0.657 1.32 -1.408 1.32 Z"/>
<g fill="#486385" transform="translate(36.879 32)">
<rect x="0.58" y="4.093" width="7.201" height="1.2" rx="0.6"/>
<rect x="0.58" y="2.056" width="7.201" height="1.2" rx="0.6"/>
<rect x="0.58" y="0.056" width="7.201" height="1.2" rx="0.6"/>
</g>
<path fill="#eaeaea" fill-rule="nonzero" stroke="#486385" stroke-width="2" d="M 47.002 17.147 h -36.03 c -0.845 0 -1.502 0.543 -1.502 1.24 v 7.52 c 0 0.698 0.657 1.24 1.501 1.24 h 36.031 c 0.845 0 1.502 -0.542 1.502 -1.24 v -7.52 c 0 -0.697 -0.657 -1.24 -1.502 -1.24 Z"/>
<path stroke="#486385" d="M 14.303 23.468 c -0.75 0 -1.407 -0.616 -1.407 -1.32 c 0 -0.705 0.657 -1.321 1.407 -1.321 c 0.751 0 1.408 0.616 1.408 1.32 c 0 0.705 -0.657 1.32 -1.408 1.32 Z"/>
<g fill="#486385" transform="translate(36.879 19.373)">
<rect x="0.58" y="4.093" width="7.201" height="1.2" rx="0.6"/>
<rect x="0.58" y="2.056" width="7.201" height="1.2" rx="0.6"/>
<rect x="0.58" y="0.056" width="7.201" height="1.2" rx="0.6"/>
</g>
<path fill="#eaeaea" fill-rule="nonzero" stroke="#486385" stroke-width="2" d="M 47.002 4.52 h -36.03 c -0.845 0 -1.502 0.542 -1.502 1.24 v 7.519 c 0 0.698 0.657 1.24 1.501 1.24 h 36.031 c 0.845 0 1.502 -0.542 1.502 -1.24 v -7.52 c 0 -0.697 -0.657 -1.24 -1.502 -1.24 Z"/>
<path stroke="#486385" d="M 14.303 10.84 c -0.75 0 -1.407 -0.616 -1.407 -1.32 c 0 -0.705 0.657 -1.321 1.407 -1.321 c 0.751 0 1.408 0.616 1.408 1.32 c 0 0.705 -0.657 1.32 -1.408 1.32 Z"/>
<g fill="#486385" transform="translate(36.879 6.745)">
<rect x="0.58" y="4.093" width="7.201" height="1.2" rx="0.6"/>
<rect x="0.58" y="2.056" width="7.201" height="1.2" rx="0.6"/>
<rect x="0.58" y="0.056" width="7.201" height="1.2" rx="0.6"/>
</g>
<path class="msportalfx-svg-c01" opacity="0.2" fill="#ffffff" fill-rule="nonzero" d="M 48.424 3.808 l -0.026 -0.002 H 10.736 c -1.28 0 -2.312 1.37 -2.312 2.9 v 31.449 c 0 1.522 1.032 2.877 2.312 2.877 h 0.896 L 48.424 3.808 Z"/>
<g transform="translate(1 1)">
<circle fill="#f7f7f7" stroke="#81ba33" stroke-width="1.4" cx="12.85" cy="12.088" r="12.005"/>
<path fill="#81ba33" d="M 13.297 16.607 a 5.394 5.394 0 0 1 -1.329 0.672 a 8.003 8.003 0 0 1 -2.689 0.433 c -0.8 0 -1.558 -0.12 -2.273 -0.36 a 5.355 5.355 0 0 1 -1.88 -1.08 a 5.132 5.132 0 0 1 -1.28 -1.794 c -0.316 -0.714 -0.473 -1.547 -0.473 -2.496 c 0 -0.929 0.152 -1.753 0.456 -2.473 c 0.304 -0.72 0.72 -1.329 1.249 -1.825 a 5.41 5.41 0 0 1 1.856 -1.137 a 6.593 6.593 0 0 1 2.297 -0.392 c 0.438 0 0.833 0.027 1.185 0.08 c 0.352 0.054 0.664 0.123 0.936 0.208 a 4.751 4.751 0 0 1 1.16 0.529 c 0.246 0.181 0.422 0.37 0.529 0.568 c 0.106 0.197 0.16 0.403 0.16 0.616 c 0 0.203 -0.04 0.395 -0.12 0.576 c -0.08 0.182 -0.176 0.344 -0.288 0.488 a 2.877 2.877 0 0 1 -0.337 0.369 a 1.734 1.734 0 0 1 -0.28 0.216 a 8.274 8.274 0 0 0 -0.408 -0.376 a 2.849 2.849 0 0 0 -0.6 -0.393 a 4.572 4.572 0 0 0 -0.808 -0.304 a 3.757 3.757 0 0 0 -1.017 -0.128 c -0.47 0 -0.896 0.078 -1.28 0.232 a 2.853 2.853 0 0 0 -1 0.673 a 3.037 3.037 0 0 0 -0.657 1.064 a 4.02 4.02 0 0 0 -0.232 1.409 c 0 0.533 0.085 1.003 0.256 1.408 c 0.17 0.406 0.406 0.744 0.704 1.016 a 2.97 2.97 0 0 0 1.065 0.617 c 0.41 0.138 0.856 0.208 1.336 0.208 c 0.598 0 1.113 -0.075 1.545 -0.224 c 0.432 -0.15 0.76 -0.304 0.984 -0.464 l 1.2 2.064 h 0.033 Z"/>
<path fill="#486385" d="M 12.34 14.286 c 0.064 0.054 0.209 0.136 0.433 0.249 c 0.224 0.112 0.506 0.224 0.848 0.336 c 0.341 0.112 0.736 0.213 1.184 0.304 c 0.449 0.09 0.934 0.136 1.457 0.136 c 0.427 0 0.768 -0.03 1.024 -0.088 c 0.256 -0.059 0.454 -0.136 0.593 -0.232 a 0.68 0.68 0 0 0 0.272 -0.328 c 0.042 -0.123 0.064 -0.249 0.064 -0.377 a 0.773 0.773 0 0 0 -0.312 -0.632 c -0.208 -0.165 -0.595 -0.296 -1.16 -0.392 l -1.633 -0.288 a 9.36 9.36 0 0 1 -1.281 -0.32 a 4.045 4.045 0 0 1 -1.144 -0.576 a 2.886 2.886 0 0 1 -0.825 -0.945 c -0.213 -0.384 -0.32 -0.859 -0.32 -1.424 c 0 -0.491 0.09 -0.953 0.272 -1.385 c 0.182 -0.432 0.46 -0.808 0.833 -1.128 c 0.373 -0.32 0.845 -0.574 1.416 -0.76 c 0.571 -0.187 1.24 -0.28 2.009 -0.28 c 0.555 0 1.04 0.029 1.456 0.087 a 8.15 8.15 0 0 1 1.073 0.216 c 0.299 0.086 0.541 0.171 0.728 0.257 c 0.187 0.085 0.323 0.154 0.408 0.208 c 0.182 0.106 0.355 0.253 0.52 0.44 a 0.969 0.969 0 0 1 0.249 0.664 c 0 0.181 -0.032 0.355 -0.096 0.52 a 2.44 2.44 0 0 1 -0.233 0.456 c -0.09 0.14 -0.189 0.26 -0.296 0.36 a 2.672 2.672 0 0 1 -0.272 0.233 a 2.777 2.777 0 0 0 -0.48 -0.36 a 3.972 3.972 0 0 0 -0.768 -0.36 a 7.075 7.075 0 0 0 -1.025 -0.273 a 6.454 6.454 0 0 0 -1.232 -0.112 c -0.416 0 -0.747 0.035 -0.992 0.104 c -0.246 0.07 -0.43 0.155 -0.553 0.256 a 0.703 0.703 0 0 0 -0.24 0.344 a 1.266 1.266 0 0 0 -0.056 0.353 c 0 0.096 0.014 0.186 0.04 0.272 c 0.027 0.085 0.09 0.168 0.192 0.248 c 0.102 0.08 0.246 0.155 0.432 0.224 c 0.187 0.07 0.44 0.136 0.76 0.2 l 1.697 0.336 a 9.364 9.364 0 0 1 1.577 0.44 c 0.454 0.176 0.835 0.392 1.144 0.649 c 0.31 0.256 0.542 0.565 0.697 0.928 c 0.154 0.363 0.232 0.795 0.232 1.296 c 0 1.12 -0.419 1.996 -1.257 2.625 c -0.837 0.63 -2.02 0.945 -3.545 0.945 a 9.681 9.681 0 0 1 -1.913 -0.176 a 11.362 11.362 0 0 1 -1.528 -0.408 a 9.046 9.046 0 0 1 -1.065 -0.44 c -0.272 -0.14 -0.435 -0.235 -0.488 -0.289 l 1.104 -2.113 Z"/>
</g>
</g>
</g>
</svg>