<svg xmlns="http://www.w3.org/2000/svg" class="" id="FxSymbol0-0d4" role="presentation" viewBox="0 0 50 50" focusable="false" xmlns:xlink="http://www.w3.org/1999/xlink" xmlns:svg="http://www.w3.org/2000/svg">
<g>
<title/>
<path class="msportalfx-svg-c17" fill="#804998" d="M 26.9 9 A 8.9 8.9 0 1 1 9.1 9 a 8.9 8.9 0 0 1 17.8 0 m -2.35 11 L 18 29.327 L 11.45 20 H 2.001 v 23 H 34 V 20 Z"/>
<path class="msportalfx-svg-c01" opacity="0.2" fill="#ffffff" d="M 9.101 9 c 0 4.842 3.867 8.773 8.681 8.89 L 20.017 0.34 A 8.817 8.817 0 0 0 18 0.1 A 8.899 8.899 0 0 0 9.101 9 m 2.351 11 H 2 v 23 h 12.547 l 1.978 -15.772 Z"/>
<path class="msportalfx-svg-c03" fill="#a0a1a2" d="M 45.751 50 H 14.249 A 3.25 3.25 0 0 1 11 46.751 V 34.249 A 3.25 3.25 0 0 1 14.249 31 h 31.502 A 3.25 3.25 0 0 1 49 34.249 v 12.502 A 3.25 3.25 0 0 1 45.751 50 Z"/>
<path class="msportalfx-svg-c06" fill="#1e1e1e" d="M 13 46.898 V 34.102 c 0 -0.609 0.493 -1.102 1.102 -1.102 h 31.796 c 0.609 0 1.102 0.493 1.102 1.102 v 12.796 c 0 0.609 -0.493 1.102 -1.102 1.102 H 14.102 A 1.102 1.102 0 0 1 13 46.898 Z"/>
<path class="msportalfx-svg-c01" opacity="0.2" fill="#ffffff" d="M 14 33 a 1 1 0 0 0 -1 1 v 13 a 1 1 0 0 0 1 1 h 16 V 33 H 14 Z"/>
<path class="msportalfx-svg-c01" fill="#ffffff" d="M 27.475 36.276 a 0.336 0.336 0 0 0 -0.132 -0.227 l -1.264 -0.975 a 0.347 0.347 0 0 0 -0.487 0.059 l -5.549 7.119 l -3.168 -3.397 a 0.343 0.343 0 0 0 -0.487 -0.02 l -1.169 1.08 a 0.346 0.346 0 0 0 -0.09 0.377 a 0.346 0.346 0 0 0 0.069 0.346 l 0.405 0.439 L 20.195 46 l 7.203 -9.235 a 0.336 0.336 0 0 0 0.077 -0.258 c -0.004 -0.025 -0.015 -0.046 -0.023 -0.068 a 0.371 0.371 0 0 0 0.023 -0.163 Z M 44 36.833 L 42.167 35 L 38.5 38.667 L 34.833 35 L 33 36.833 l 3.667 3.667 L 33 44.167 L 34.833 46 l 3.667 -3.667 L 42.167 46 L 44 44.167 L 40.333 40.5 Z"/>
</g>
</svg>