<svg xmlns="http://www.w3.org/2000/svg" class="fxs-portal-svg" id="FxSymbol0-0db" role="presentation" viewBox="0 0 50 50" focusable="false" xmlns:xlink="http://www.w3.org/1999/xlink" xmlns:svg="http://www.w3.org/2000/svg">
<g>
<title/>
<title>LogicAppsAlt</title>
<path class="msportalfx-svg-c14" fill="#7fba00" d="M 34 45 H 0 V 2 h 34 v 43 Z M 2 43 l 30 0.027"/>
<path class="msportalfx-svg-c01" opacity="0.6" fill="#ffffff" d="M 2 43 V 4 h 30 v 39 Z"/>
<path class="msportalfx-svg-c16" fill="#3999c6" d="M 39 50 H 5 V 7 h 34 v 43 Z M 7 48 l 30 0.027 V 9 L 7 9.027 V 48 Z"/>
<path class="msportalfx-svg-c15" fill="#59b4d9" d="M 7 9 h 30 v 39 H 7 Z"/>
<path class="msportalfx-svg-c01" opacity="0.4" fill="#ffffff" d="M 7 9 h 30 v 39 H 7 Z"/>
<path class="msportalfx-svg-c16" opacity="0.5" fill="#3999c6" d="M 30.905 19.967 l -7.982 -4.575 a 1.941 1.941 0 0 0 -1.909 0.007 l -7.926 4.541 c -0.594 0.344 -2.088 0.904 -2.088 3.652 v 9.136 c 0 0.708 0.387 1.357 0.975 1.676 l 7.894 4.523 c 0.302 0.186 1.285 0.533 2.131 0.533 s 1.814 -0.34 2.107 -0.515 l 7.899 -4.529 c 0.613 -0.34 0.994 -0.987 0.994 -1.688 V 23.65 c 0 -2.806 -1.5 -3.346 -2.095 -3.683 Z"/>
<path class="msportalfx-svg-c01" fill="#ffffff" d="M 22.025 26.42 a 0.246 0.246 0 0 1 -0.121 -0.034 l -7.967 -4.567 a 0.24 0.24 0 0 1 0 -0.415 l 7.919 -4.537 a 0.246 0.246 0 0 1 0.238 0 l 7.97 4.568 a 0.236 0.236 0 0 1 0.118 0.207 a 0.238 0.238 0 0 1 -0.118 0.207 l -7.916 4.536 a 0.25 0.25 0 0 1 -0.123 0.035"/>
<path class="msportalfx-svg-c16" fill="#3999c6" d="M 20.88 37.52 a 0.221 0.221 0 0 1 -0.121 -0.032 l -7.943 -4.552 a 0.235 0.235 0 0 1 -0.124 -0.208 v -9.136 a 0.24 0.24 0 0 1 0.123 -0.208 a 0.24 0.24 0 0 1 0.243 0 L 21 27.935 a 0.249 0.249 0 0 1 0.117 0.21 v 9.136 a 0.245 0.245 0 0 1 -0.117 0.208 a 0.271 0.271 0 0 1 -0.12 0.031 m 2.249 0 a 0.256 0.256 0 0 1 -0.125 -0.032 a 0.241 0.241 0 0 1 -0.116 -0.208 v -9.078 a 0.25 0.25 0 0 1 0.116 -0.208 l 7.942 -4.55 a 0.238 0.238 0 0 1 0.239 0 a 0.238 0.238 0 0 1 0.122 0.207 v 9.077 a 0.238 0.238 0 0 1 -0.122 0.208 l -7.939 4.552 a 0.22 0.22 0 0 1 -0.117 0.032"/>
<path class="msportalfx-svg-c01" opacity="0.8" fill="#ffffff" d="M 20.88 37.52 a 0.221 0.221 0 0 1 -0.121 -0.032 l -7.943 -4.552 a 0.235 0.235 0 0 1 -0.124 -0.208 v -9.136 a 0.24 0.24 0 0 1 0.123 -0.208 a 0.24 0.24 0 0 1 0.243 0 L 21 27.935 a 0.249 0.249 0 0 1 0.117 0.21 v 9.136 a 0.245 0.245 0 0 1 -0.117 0.208 a 0.271 0.271 0 0 1 -0.12 0.031"/>
<path class="msportalfx-svg-c01" opacity="0.6" fill="#ffffff" d="M 23.129 37.52 a 0.256 0.256 0 0 1 -0.125 -0.032 a 0.241 0.241 0 0 1 -0.116 -0.208 v -9.078 a 0.25 0.25 0 0 1 0.116 -0.208 l 7.942 -4.55 a 0.238 0.238 0 0 1 0.239 0 a 0.238 0.238 0 0 1 0.122 0.207 v 9.077 a 0.238 0.238 0 0 1 -0.122 0.208 l -7.939 4.552 a 0.22 0.22 0 0 1 -0.117 0.032"/>
<path class="msportalfx-svg-c17" fill="#804998" d="M 42 31 l 8 6 l -8 6 Z"/>
<path class="msportalfx-svg-c01" opacity="0.4" fill="#ffffff" d="M 37 41.087 a 20.985 20.985 0 0 1 2 -0.37 v -6.958 a 19.8 19.8 0 0 0 -2 0.411 v 6.917 Z"/>
<path class="msportalfx-svg-c17" fill="#804998" d="M 42 39.506 c -8 0 -13 3.994 -14 5.494 c 0 -6.735 7 -10.475 14 -10.475 v 4.981 Z"/>
</g>
</svg>