<svg xmlns="http://www.w3.org/2000/svg" class="fxs-portal-svg" id="FxSymbol0-0da" role="presentation" viewBox="0 0 50 50" focusable="false" xmlns:xlink="http://www.w3.org/1999/xlink" xmlns:svg="http://www.w3.org/2000/svg">
<g>
<title/>
<title>LogicAppsAlt</title>
<path class="msportalfx-svg-c16" fill="#3999c6" d="M 39 50 H 1 V 2 h 38 v 48 Z M 3 47.97 L 37 48 V 4 L 3 4.03 v 43.94 Z"/>
<path class="msportalfx-svg-c15" fill="#59b4d9" d="M 3 4.03 h 34 v 43.939 H 3 Z"/>
<path class="msportalfx-svg-c01" opacity="0.4" fill="#ffffff" d="M 3 4.03 h 34 v 43.939 H 3 Z"/>
<path class="msportalfx-svg-c16" opacity="0.5" fill="#3999c6" d="M 30.524 15.963 l -9.434 -5.407 c -0.694 -0.39 -1.526 -0.393 -2.256 0.008 l -9.367 5.367 C 8.766 16.338 7 17 7 20.247 v 10.797 c 0 0.836 0.457 1.604 1.152 1.98 l 9.329 5.346 C 17.838 38.59 19 39 20 39 s 2.144 -0.402 2.49 -0.609 l 9.335 -5.353 A 2.279 2.279 0 0 0 33 31.044 V 20.316 c 0 -3.316 -1.772 -3.955 -2.476 -4.353 Z"/>
<path class="msportalfx-svg-c01" fill="#ffffff" d="M 20.03 23.589 a 0.292 0.292 0 0 1 -0.143 -0.04 l -9.416 -5.398 a 0.284 0.284 0 0 1 0 -0.49 l 9.359 -5.362 a 0.289 0.289 0 0 1 0.282 0 l 9.419 5.399 c 0.088 0.05 0.14 0.143 0.14 0.244 a 0.28 0.28 0 0 1 -0.14 0.244 l -9.356 5.361 a 0.286 0.286 0 0 1 -0.145 0.042"/>
<path class="msportalfx-svg-c16" fill="#3999c6" d="M 18.677 36.707 a 0.264 0.264 0 0 1 -0.143 -0.038 l -9.387 -5.38 A 0.276 0.276 0 0 1 9 31.044 V 20.247 c 0 -0.102 0.055 -0.194 0.145 -0.246 a 0.283 0.283 0 0 1 0.287 0 l 9.386 5.378 a 0.295 0.295 0 0 1 0.139 0.248 v 10.797 a 0.292 0.292 0 0 1 -0.139 0.246 a 0.3 0.3 0 0 1 -0.141 0.037 m 2.657 0 a 0.298 0.298 0 0 1 -0.147 -0.038 a 0.286 0.286 0 0 1 -0.138 -0.246 V 25.695 c 0 -0.1 0.055 -0.193 0.138 -0.246 l 9.386 -5.378 a 0.28 0.28 0 0 1 0.283 0 a 0.283 0.283 0 0 1 0.144 0.245 v 10.728 a 0.28 0.28 0 0 1 -0.144 0.246 l -9.383 5.38 a 0.263 0.263 0 0 1 -0.139 0.037"/>
<path class="msportalfx-svg-c01" opacity="0.8" fill="#ffffff" d="M 18.677 36.707 a 0.264 0.264 0 0 1 -0.143 -0.038 l -9.387 -5.38 A 0.276 0.276 0 0 1 9 31.044 V 20.247 c 0 -0.102 0.055 -0.194 0.145 -0.246 a 0.283 0.283 0 0 1 0.287 0 l 9.386 5.378 a 0.295 0.295 0 0 1 0.139 0.248 v 10.797 a 0.292 0.292 0 0 1 -0.139 0.246 a 0.3 0.3 0 0 1 -0.141 0.037"/>
<path class="msportalfx-svg-c01" opacity="0.6" fill="#ffffff" d="M 21.334 36.707 a 0.298 0.298 0 0 1 -0.147 -0.038 a 0.286 0.286 0 0 1 -0.138 -0.246 V 25.695 c 0 -0.1 0.055 -0.193 0.138 -0.246 l 9.386 -5.378 a 0.28 0.28 0 0 1 0.283 0 a 0.283 0.283 0 0 1 0.144 0.245 v 10.728 a 0.28 0.28 0 0 1 -0.144 0.246 l -9.383 5.38 a 0.263 0.263 0 0 1 -0.139 0.037"/>
<path class="msportalfx-svg-c17" fill="#804998" d="M 42 31 l 8 6 l -8 6 Z"/>
<path class="msportalfx-svg-c01" opacity="0.4" fill="#ffffff" d="M 37 41.087 a 20.985 20.985 0 0 1 2 -0.37 v -6.958 a 19.8 19.8 0 0 0 -2 0.411 v 6.917 Z"/>
<path class="msportalfx-svg-c17" fill="#804998" d="M 42 39.506 c -8 0 -13 3.994 -14 5.494 c 0 -6.735 7 -10.475 14 -10.475 v 4.981 Z"/>
</g>
</svg>