<svg xmlns="http://www.w3.org/2000/svg" class="fxs-portal-svg" id="FxSymbol0-0f8" role="presentation" viewBox="0 0 50 50" focusable="false" xmlns:xlink="http://www.w3.org/1999/xlink" xmlns:svg="http://www.w3.org/2000/svg">
<g>
<title/>
<path class="msportalfx-svg-c12" fill="#fee087" d="M 48.065 11.912 V 7.935 H 21.897 L 15.963 2 H 0 v 43.708 c 0 1.31 1.06 2.371 2.37 2.372 h 45.258 a 2.372 2.372 0 0 0 2.371 -2.372 V 11.912 h -1.934 Z"/>
<path class="msportalfx-svg-c09" fill="#dd5900" d="M 26.176 27.945 a 0.32 0.32 0 0 1 -0.155 -0.044 l -10.175 -5.873 a 0.309 0.309 0 0 1 0 -0.533 l 10.112 -5.835 a 0.314 0.314 0 0 1 0.306 0 l 10.178 5.876 a 0.305 0.305 0 0 1 0.152 0.265 a 0.307 0.307 0 0 1 -0.152 0.267 l -10.111 5.833 a 0.303 0.303 0 0 1 -0.155 0.044"/>
<path class="msportalfx-svg-c10" fill="#ff8c00" d="M 24.714 42.221 a 0.292 0.292 0 0 1 -0.155 -0.041 l -10.144 -5.855 a 0.302 0.302 0 0 1 -0.156 -0.267 V 24.309 a 0.31 0.31 0 0 1 0.156 -0.269 a 0.322 0.322 0 0 1 0.31 0 l 10.143 5.855 a 0.32 0.32 0 0 1 0.15 0.268 v 11.75 c 0 0.113 -0.06 0.211 -0.15 0.267 a 0.318 0.318 0 0 1 -0.154 0.041"/>
<path class="msportalfx-svg-c10" opacity="0.5" fill="#ff8c00" d="M 27.585 42.221 a 0.315 0.315 0 0 1 -0.157 -0.041 a 0.309 0.309 0 0 1 -0.152 -0.267 V 30.239 c 0 -0.11 0.059 -0.211 0.152 -0.268 l 10.141 -5.853 a 0.31 0.31 0 0 1 0.462 0.266 v 11.674 a 0.306 0.306 0 0 1 -0.156 0.267 l -10.14 5.855 a 0.275 0.275 0 0 1 -0.15 0.041"/>
<path class="msportalfx-svg-c06" opacity="0.2" fill="#1e1e1e" d="M 4.742 11.912 v 33.796 a 2.372 2.372 0 1 1 -4.742 0 V 2 h 15.963 l 5.934 5.935 h 26.168 v 3.977 H 4.742 Z"/>
</g>
</svg>