<svg xmlns="http://www.w3.org/2000/svg" class="" id="FxSymbol0-0b3" role="presentation" viewBox="0 0 50 50" focusable="false" xmlns:xlink="http://www.w3.org/1999/xlink" xmlns:svg="http://www.w3.org/2000/svg">
<g>
<title/>
<path class="msportalfx-svg-c10" fill="#ff8c00" d="M 36.5 1 C 31.337 1 26.906 4.131 25 8.598 C 23.094 4.131 18.663 1 13.5 1 C 5 1 1 9.096 1 16 c 0 21 24 33 24 33 s 24 -12 24 -33 c 0 -6.904 -4 -15 -12.5 -15 Z"/>
<path class="msportalfx-svg-c08" opacity="0.25" fill="#ba141a" d="M 25 28 c -10.713 0 -19.91 -3.988 -23.891 -9.683 C 2.774 37.878 25 49 25 49 s 22.226 -11.122 23.891 -30.683 C 44.91 24.012 35.713 28 25 28 Z"/>
<circle class="msportalfx-svg-c01" fill="#ffffff" cx="28" cy="37" r="3.9"/>
<path class="msportalfx-svg-c01" fill="#ffffff" d="M 4.645 5.101 s -1.406 5.042 4.434 10.082 l 1.846 -2.364 c -0.032 -0.025 -3.181 -2.564 -3.413 -6.265 C 7.323 3.538 8.83 1.91 8.83 1.91 c -1.672 0.758 -3.064 1.801 -4.185 3.191 Z m 43.151 4.32 c 0.892 3.894 0.563 7.733 -1.007 11.266 c -2.821 6.349 -9.488 11.5 -19.28 14.896 l 0.982 2.834 c 8.436 -2.924 14.857 -7.143 18.686 -12.336 C 48.368 22.999 49.1 19.638 49.1 16 c 0 -2.172 -0.497 -4.46 -1.304 -6.579 Z"/>
<path class="msportalfx-svg-c01" fill="#ffffff" d="M 9.176 13.176 c -5.621 5.621 1.344 15.486 7 21.143 l 1.061 1.061 a 1.5 1.5 0 0 0 2.121 0 l 2.121 -2.121 a 1.5 1.5 0 1 0 -2.121 -2.121 l -1.131 1.131 c -7.778 -7.778 -10.28 -13.903 -7.071 -17.112 s 9.334 -0.707 17.112 7.071 l -1.131 1.131 a 1.5 1.5 0 1 0 2.121 2.121 l 2.121 -2.121 a 1.5 1.5 0 0 0 0 -2.121 l -1.061 -1.061 C 24.662 14.52 14.797 7.555 9.176 13.176 Z"/>
</g>
</svg>