<svg xmlns="http://www.w3.org/2000/svg" class="" id="FxSymbol0-0ca" role="presentation" viewBox="0 0 50 50" focusable="false" xmlns:xlink="http://www.w3.org/1999/xlink" xmlns:svg="http://www.w3.org/2000/svg">
<g>
<title/>
<path fill="#646565" d="M 2 9 h 5.5 v 1 H 3 s -1 0 -1 -1 Z"/>
<path opacity="0.5" fill="#646565" d="M 6 6 H 5 a 3 3 0 0 0 -3 3 h 1 a 2 2 0 0 1 2 -2 h 1 V 6 Z"/>
<path fill="#646565" d="M 2 15 h 5.5 v 1 H 3 s -1 0 -1 -1 Z"/>
<path opacity="0.5" fill="#646565" d="M 6 12 H 5 a 3 3 0 0 0 -3 3 h 1 a 2 2 0 0 1 2 -2 h 1 v -1 Z"/>
<path fill="#646565" d="M 2 21 h 5.5 v 1 H 3 s -1 0 -1 -1 Z"/>
<path opacity="0.5" fill="#646565" d="M 6 18 H 5 a 3 3 0 0 0 -3 3 h 1 a 2 2 0 0 1 2 -2 h 1 v -1 Z"/>
<path fill="#646565" d="M 2 27 h 5.5 v 1 H 3 s -1 0 -1 -1 Z"/>
<path opacity="0.5" fill="#646565" d="M 6 24 H 5 a 3 3 0 0 0 -3 3 h 1 a 2 2 0 0 1 2 -2 h 1 v -1 Z"/>
<path fill="#646565" d="M 2 33 h 5.5 v 1 H 3 s -1 0 -1 -1 Z"/>
<path opacity="0.5" fill="#646565" d="M 6 30 H 5 a 3 3 0 0 0 -3 3 h 1 a 2 2 0 0 1 2 -2 h 1 v -1 Z"/>
<path fill="#646565" d="M 2 39 h 5.5 v 1 H 3 s -1 0 -1 -1 Z"/>
<path opacity="0.5" fill="#646565" d="M 6 36 H 5 a 3 3 0 0 0 -3 3 h 1 a 2 2 0 0 1 2 -2 h 1 v -1 Z"/>
<path fill="#646565" d="M 2 45 h 5.5 v 1 H 3 s -1 0 -1 -1 Z"/>
<path opacity="0.5" fill="#646565" d="M 6 42 H 5 a 3 3 0 0 0 -3 3 h 1 a 2 2 0 0 1 2 -2 h 1 v -1 Z"/>
<path class="msportalfx-svg-c19" fill="#0072c6" d="M 14 2 c -3 0 -7 3 -7 3 h 2 v 42 h 35 v 2 l 3 -3 V 2 H 14 Z"/>
<path class="msportalfx-svg-c01" opacity="0.75" fill="#ffffff" d="M 12 3 L 8.5 5 H 10 v 43 h 34 l 2 -2 V 3 Z"/>
<path class="msportalfx-svg-c01" opacity="0.8" fill="#ffffff" d="M 12.5 3 L 9 5 h 35 l 2 -2 Z"/>
<path class="msportalfx-svg-c19" fill="#0072c6" d="M 6 50 v -3 h 2 l 1 -1 v -1 l -1 -1 H 6 v -3 h 2 l 1 -1 v -1 l -1 -1 H 6 v -3 h 2 l 1 -1 v -1 l -1 -1 H 6 v -3 h 2 l 1 -1 v -1 l -1 -1 H 6 v -3 h 2 l 1 -1 v -1 l -1 -1 H 6 v -3 h 2 l 1 -1 v -1 l -1 -1 H 6 v -3 h 2 l 1 -1 V 9 L 8 8 H 6 V 5 h 38 v 45 H 6 Z"/>
<path class="msportalfx-svg-c01" fill="#ffffff" d="M 28.657 31.053 a 0.143 0.143 0 0 0 0.068 -0.017 l 4.445 -2.462 a 0.126 0.126 0 0 0 0.068 -0.112 v -4.94 a 0.13 0.13 0 0 0 -0.068 -0.113 a 0.148 0.148 0 0 0 -0.136 0 L 28.59 25.87 a 0.13 0.13 0 0 0 -0.066 0.113 v 4.941 c 0 0.047 0.025 0.089 0.066 0.112 a 0.136 0.136 0 0 0 0.067 0.017 m 0 6.506 a 0.143 0.143 0 0 0 0.068 -0.017 l 4.445 -2.462 a 0.126 0.126 0 0 0 0.068 -0.112 v -4.94 a 0.13 0.13 0 0 0 -0.068 -0.113 a 0.148 0.148 0 0 0 -0.136 0 l -4.444 2.462 a 0.13 0.13 0 0 0 -0.066 0.113 v 4.941 a 0.127 0.127 0 0 0 0.133 0.128 m 5.761 -9.759 a 0.15 0.15 0 0 0 0.069 -0.017 l 4.445 -2.462 a 0.126 0.126 0 0 0 0.068 -0.112 v -4.94 a 0.128 0.128 0 0 0 -0.069 -0.113 a 0.148 0.148 0 0 0 -0.136 0 l -4.444 2.462 a 0.13 0.13 0 0 0 -0.066 0.113 v 4.941 c 0 0.047 0.025 0.089 0.066 0.112 a 0.153 0.153 0 0 0 0.067 0.016 m 0 6.506 a 0.15 0.15 0 0 0 0.069 -0.017 l 4.445 -2.462 a 0.126 0.126 0 0 0 0.068 -0.112 v -4.94 a 0.128 0.128 0 0 0 -0.069 -0.113 a 0.148 0.148 0 0 0 -0.136 0 l -4.444 2.462 a 0.13 0.13 0 0 0 -0.066 0.113 v 4.941 c 0 0.047 0.025 0.089 0.066 0.112 a 0.153 0.153 0 0 0 0.067 0.016 m -7.075 -3.253 a 0.143 0.143 0 0 1 -0.068 -0.017 l -4.445 -2.462 a 0.126 0.126 0 0 1 -0.068 -0.112 v -4.94 a 0.13 0.13 0 0 1 0.068 -0.113 a 0.148 0.148 0 0 1 0.136 0 l 4.444 2.462 a 0.13 0.13 0 0 1 0.066 0.113 v 4.941 a 0.127 0.127 0 0 1 -0.133 0.128 m 0 6.506 a 0.143 0.143 0 0 1 -0.068 -0.017 L 22.83 35.08 a 0.126 0.126 0 0 1 -0.068 -0.112 v -4.94 a 0.13 0.13 0 0 1 0.068 -0.113 a 0.148 0.148 0 0 1 0.136 0 l 4.444 2.462 a 0.13 0.13 0 0 1 0.066 0.113 v 4.941 a 0.127 0.127 0 0 1 -0.133 0.128 M 21.582 27.8 a 0.143 0.143 0 0 1 -0.068 -0.017 l -4.445 -2.462 a 0.125 0.125 0 0 1 -0.069 -0.112 v -4.94 a 0.13 0.13 0 0 1 0.068 -0.113 a 0.148 0.148 0 0 1 0.136 0 l 4.444 2.462 a 0.13 0.13 0 0 1 0.066 0.113 v 4.941 a 0.127 0.127 0 0 1 -0.132 0.128 m 0 6.506 a 0.143 0.143 0 0 1 -0.068 -0.017 l -4.445 -2.462 a 0.125 0.125 0 0 1 -0.069 -0.112 v -4.94 a 0.13 0.13 0 0 1 0.068 -0.113 a 0.148 0.148 0 0 1 0.136 0 l 4.444 2.462 a 0.13 0.13 0 0 1 0.066 0.113 v 4.941 a 0.127 0.127 0 0 1 -0.132 0.128 m 1.93 -12.265 a 0.126 0.126 0 0 1 0.05 -0.047 l 4.417 -2.4 a 0.136 0.136 0 0 1 0.134 -0.001 l 4.372 2.38 a 0.123 0.123 0 0 1 0.066 0.11 a 0.133 0.133 0 0 1 -0.068 0.11 l -4.417 2.4 a 0.142 0.142 0 0 1 -0.133 -0.001 l -4.373 -2.38 a 0.121 0.121 0 0 1 -0.048 -0.171 m -5.759 -3.135 a 0.13 0.13 0 0 1 0.049 -0.047 l 4.368 -2.4 a 0.132 0.132 0 0 1 0.132 -0.001 l 4.324 2.38 c 0.04 0.022 0.065 0.063 0.065 0.11 a 0.133 0.133 0 0 1 -0.068 0.11 l -4.368 2.4 a 0.138 0.138 0 0 1 -0.131 -0.001 l -4.325 -2.38 a 0.122 0.122 0 0 1 -0.065 -0.107 a 0.142 0.142 0 0 1 0.019 -0.064 m 11.639 0.053 a 0.13 0.13 0 0 1 0.049 -0.047 l 4.368 -2.4 a 0.132 0.132 0 0 1 0.132 -0.001 l 4.324 2.38 c 0.04 0.022 0.065 0.063 0.065 0.11 a 0.133 0.133 0 0 1 -0.068 0.11 l -4.368 2.4 a 0.138 0.138 0 0 1 -0.131 -0.001 l -4.325 -2.38 a 0.122 0.122 0 0 1 -0.065 -0.107 a 0.138 0.138 0 0 1 0.019 -0.064 m -5.858 -3.093 a 0.13 0.13 0 0 1 0.05 -0.046 l 4.417 -2.361 a 0.141 0.141 0 0 1 0.134 -0.001 l 4.372 2.341 a 0.121 0.121 0 0 1 0.066 0.108 a 0.132 0.132 0 0 1 -0.068 0.108 l -4.417 2.361 a 0.145 0.145 0 0 1 -0.133 -0.001 l -4.373 -2.342 a 0.119 0.119 0 0 1 -0.066 -0.106 c 0 -0.023 0.007 -0.043 0.018 -0.061"/>
<path class="msportalfx-svg-c19" fill="#0072c6" d="M 23.136 43.167 c -1.797 0 -3.402 -1.483 -4.574 -2.567 c -0.335 -0.31 -0.651 -0.602 -0.86 -0.749 c -0.772 -0.548 -2.28 -1.137 -3.764 -1.137 l -1.375 -0.002 a 1.503 1.503 0 0 1 -1.495 -1.5 v -4.653 c 0 -0.827 0.673 -1.5 1.5 -1.5 h 2.24 l 0.111 1.002 v -1 c 0.644 0 1.647 -0.187 2.534 -0.352 c 0.71 -0.132 1.38 -0.256 1.938 -0.308 c 0.243 -0.021 0.491 -0.033 0.741 -0.033 c 0.707 0 3.096 0.115 4.132 1.597 c 0.122 0.17 0.685 0.846 0.941 1.053 c 0.216 0.174 0.753 0.359 1.613 0.359 l 0.157 -0.002 c 0.067 -0.002 0.225 -0.017 0.434 -0.035 c 0.597 -0.052 1.499 -0.131 2.183 -0.131 c 0.161 0 0.31 0.005 0.438 0.015 c 1.308 0.097 2.016 0.987 2.139 1.827 c 0.047 0.32 0 0.759 -0.175 1.164 l 0.487 -0.238 c 1.542 -0.758 3.654 -1.795 4.876 -2.207 a 4.296 4.296 0 0 1 1.37 -0.236 c 0.991 0 1.811 0.41 2.191 1.097 c 0.206 0.37 0.458 1.141 -0.163 2.137 c -0.322 0.518 -0.834 1.019 -1.404 1.373 a 455.094 455.094 0 0 1 -3.273 2.006 c -0.465 0.283 -0.94 0.591 -1.408 0.894 c -1.609 1.042 -2.636 1.686 -3.41 1.792 a 7.985 7.985 0 0 1 -1.053 0.052 c -0.342 0 -0.723 -0.009 -1.106 -0.018 A 47.395 47.395 0 0 0 28 42.849 c -0.265 0 -0.509 0.005 -0.713 0.021 c -0.305 0.023 -0.648 0.058 -1.019 0.096 c -0.901 0.088 -2.021 0.201 -3.132 0.201 Z"/>
<path class="msportalfx-svg-c01" fill="#ffffff" d="M 37.577 34.816 c -1.698 0.574 -5.42 2.522 -6.273 2.885 c -1.004 0.428 -2.997 0.686 -5.222 0.645 c -1.23 -0.023 -2.109 -0.156 -2.603 -0.616 c 0 0 -1.761 -1.43 -2.118 -1.781 c -0.603 -0.595 0.177 -1.498 0.785 -1.022 c 0.447 0.35 1.196 1.102 1.924 1.646 c 0.728 0.545 3.297 0.291 4.36 0.217 c 1.225 -0.085 1.916 -0.323 2.189 -0.456 c 0.397 -0.193 0.497 -0.79 0.461 -1.039 c -0.053 -0.367 -0.39 -0.913 -1.222 -0.974 c -0.833 -0.062 -2.682 0.148 -2.956 0.155 c -1.281 0.031 -2.038 -0.269 -2.422 -0.578 c -0.384 -0.31 -1.042 -1.126 -1.134 -1.259 c -0.645 -0.923 -2.435 -1.281 -3.962 -1.14 c -1.274 0.117 -3.435 0.696 -4.675 0.661 h -2.24 a 0.5 0.5 0 0 0 -0.5 0.5 v 4.653 a 0.5 0.5 0 0 0 0.498 0.5 l 1.372 0.002 c 1.624 0 3.335 0.607 4.342 1.32 s 2.956 3.133 4.856 3.133 c 1.506 0 3.017 -0.216 4.076 -0.296 s 3.087 0.083 3.911 -0.03 s 2.773 -1.537 4.422 -2.541 c 1.009 -0.614 2.135 -1.3 3.278 -2.009 c 0.455 -0.283 0.851 -0.677 1.084 -1.052 c 0.815 -1.312 -0.589 -2.079 -2.231 -1.524 Z"/>
</g>
</svg>