<svg xmlns="http://www.w3.org/2000/svg" class="" id="FxSymbol0-0b5" role="presentation" viewBox="0 0 50 50" focusable="false" xmlns:xlink="http://www.w3.org/1999/xlink" xmlns:svg="http://www.w3.org/2000/svg">
<g>
<title/>
<path class="msportalfx-svg-c15" fill="#59b4d9" d="M 41.364 15.205 c 0.027 -0.343 0.053 -0.686 0.053 -1.036 c 0 -7.245 -5.973 -13.119 -13.342 -13.119 c -5.948 0 -10.982 3.829 -12.704 9.115 a 12.121 12.121 0 0 0 -2.222 -0.224 c -6.6 0 -11.95 5.151 -11.95 11.504 c 0 6.354 5.35 11.504 11.95 11.504 h 26.556 c 5.133 0 9.294 -4.006 9.294 -8.948 c 0.001 -4.395 -3.294 -8.042 -7.635 -8.796 Z"/>
<path class="msportalfx-svg-c01" opacity="0.4" fill="#ffffff" d="M 15 33 V 17.078 c 0 -1.145 0.933 -2.078 2.078 -2.078 h 17.844 c 1.145 0 2.078 0.933 2.078 2.078 V 33 H 15 Z"/>
<path class="msportalfx-svg-c04" fill="#7a7a7a" d="M 34.922 16 H 17.078 c -0.595 0 -1.078 0.483 -1.078 1.078 v 30.843 c 0 0.596 0.483 1.079 1.078 1.079 h 17.843 c 0.596 0 1.079 -0.483 1.079 -1.078 V 17.078 c 0 -0.595 -0.483 -1.078 -1.078 -1.078 Z"/>
<path class="msportalfx-svg-c06" opacity="0.4" fill="#1e1e1e" d="M 34.922 16 H 28 L 16 43 v 4.922 c 0 0.595 0.483 1.078 1.078 1.078 h 17.843 c 0.596 0 1.079 -0.483 1.079 -1.078 V 17.078 c 0 -0.595 -0.483 -1.078 -1.078 -1.078 Z"/>
<path class="msportalfx-svg-c01" fill="#ffffff" d="M 18 19 h 4 v 5 h -4 Z m 6 0 h 4 v 5 h -4 Z m 6 0 h 4 v 5 h -4 Z m -12 8 h 4 v 5 h -4 Z m 6 0 h 4 v 5 h -4 Z m 6 0 h 4 v 5 h -4 Z m -12 8 h 4 v 5 h -4 Z m 6 0 h 4 v 5 h -4 Z m 0 8 h 4 v 6 h -4 Z m 6 -8 h 4 v 5 h -4 Z"/>
<path class="msportalfx-svg-c15" opacity="0.15" fill="#59b4d9" d="M 18 19 h 4 v 5 h -4 Z m 6 0 h 4 v 5 h -4 Z m 6 0 h 4 v 5 h -4 Z m -12 8 h 4 v 5 h -4 Z m 6 0 h 4 v 5 h -4 Z m 6 0 h 4 v 5 h -4 Z m -12 8 h 4 v 5 h -4 Z m 6 0 h 4 v 5 h -4 Z m 0 8 h 4 v 6 h -4 Z m 6 -8 h 4 v 5 h -4 Z"/>
</g>
</svg>