<svg id="svg" version="1.1" xmlns="http://www.w3.org/2000/svg" xmlns:xlink="http://www.w3.org/1999/xlink" width="400" height="400" viewBox="0, 0, 400,400"><g id="svgg"><path id="path0" d="M24.628 18.457 C 14.734 19.726,5.397 26.086,1.188 34.424 L 0.000 36.777 0.000 147.800 L 0.000 258.823 1.256 261.311 C 5.794 270.305,14.896 276.300,25.400 277.216 C 27.600 277.408,48.615 277.573,72.100 277.583 C 95.585 277.592,114.800 277.704,114.800 277.831 C 114.800 277.959,113.613 279.383,112.163 280.997 L 109.526 283.932 101.063 284.066 C 92.966 284.194,92.514 284.243,90.620 285.200 C 84.047 288.521,84.016 297.995,90.568 301.046 L 92.600 301.992 137.884 301.996 L 183.169 302.000 183.293 334.100 C 183.409 364.000,183.468 366.351,184.153 368.400 C 186.193 374.503,190.307 378.746,196.339 380.965 C 199.857 382.259,272.309 382.485,277.322 381.217 C 287.648 378.606,291.971 371.562,291.992 357.312 L 292.000 352.023 337.100 351.912 L 382.200 351.800 385.000 350.862 C 390.546 349.003,395.467 345.267,398.469 340.638 L 400.000 338.276 399.995 247.438 L 399.990 156.600 399.010 154.886 C 396.698 150.842,391.792 146.371,388.109 144.950 L 386.418 144.298 386.304 93.649 C 386.190 43.169,386.187 42.991,385.335 40.341 C 381.284 27.739,371.911 19.989,358.810 18.409 C 354.518 17.891,28.674 17.938,24.628 18.457 M358.227 34.038 C 364.070 35.116,371.029 41.202,367.500 42.148 C 366.302 42.469,18.455 42.471,16.850 42.150 C 13.146 41.409,19.368 35.453,25.200 34.156 C 28.207 33.488,354.614 33.372,358.227 34.038 M370.805 55.605 C 371.660 56.460,371.917 144.216,371.067 145.067 C 370.883 145.250,341.633 145.494,306.067 145.610 C 234.757 145.841,240.722 145.612,235.350 148.324 C 230.605 150.719,226.486 155.543,224.696 160.800 C 223.818 163.377,223.809 163.662,223.688 192.865 C 223.579 219.358,223.501 222.384,222.923 222.865 C 222.430 223.275,219.466 223.447,210.229 223.600 L 198.179 223.800 195.526 225.107 C 190.843 227.414,187.509 231.858,186.580 237.033 C 186.425 237.895,186.024 238.915,185.687 239.300 C 184.766 240.355,14.024 240.393,13.149 239.339 C 12.128 238.108,12.353 56.116,13.376 55.368 C 14.832 54.304,369.739 54.539,370.805 55.605 M382.117 159.327 C 384.512 160.735,386.214 163.044,386.771 165.640 C 387.320 168.197,387.318 168.225,386.571 168.971 C 385.740 169.803,237.309 169.949,236.480 169.120 C 234.312 166.952,238.573 159.573,242.614 158.499 C 243.700 158.210,265.618 158.096,312.200 158.138 L 380.200 158.200 382.117 159.327 M386.994 182.935 C 388.068 184.574,387.704 311.442,386.624 312.232 C 385.385 313.138,290.336 313.079,289.429 312.171 C 288.866 311.609,288.799 307.653,288.795 274.671 C 288.790 235.397,288.815 235.938,286.844 232.082 C 282.866 224.302,280.331 223.600,256.216 223.600 C 239.814 223.600,237.263 223.519,236.489 222.977 L 235.600 222.355 235.600 202.951 C 235.600 190.341,235.745 183.277,236.014 182.774 C 236.421 182.013,237.687 182.000,311.405 182.000 L 386.382 182.000 386.994 182.935 M273.282 236.016 C 275.907 236.745,276.400 237.845,276.400 242.974 C 276.400 245.914,276.236 247.604,275.920 247.920 C 275.553 248.287,266.485 248.400,237.543 248.400 L 199.645 248.400 199.023 247.511 C 198.223 246.370,198.206 240.843,198.995 238.629 C 199.572 237.008,200.272 236.384,202.000 235.947 C 203.769 235.500,271.661 235.566,273.282 236.016 M185.024 252.968 C 186.054 253.723,186.202 260.973,185.200 261.613 C 184.822 261.854,155.045 261.959,104.600 261.898 L 24.600 261.800 21.964 260.510 C 17.784 258.465,13.989 253.812,15.646 252.763 C 16.685 252.105,184.122 252.308,185.024 252.968 M276.386 261.574 C 276.961 262.649,276.961 339.751,276.386 340.826 C 275.873 341.784,199.833 342.073,198.880 341.120 C 198.184 340.424,198.184 261.976,198.880 261.280 C 199.833 260.327,275.873 260.616,276.386 261.574 M185.641 276.300 C 186.226 277.830,185.947 285.416,185.280 286.081 C 184.718 286.641,130.352 286.886,129.797 286.330 C 129.217 285.750,130.191 284.423,134.519 279.900 L 139.017 275.200 162.118 275.200 L 185.220 275.200 185.641 276.300 M385.740 325.177 C 388.920 326.386,386.228 333.247,381.702 335.470 L 379.400 336.600 334.849 336.707 C 301.444 336.787,290.158 336.697,289.738 336.349 C 288.590 335.396,289.176 325.497,290.400 325.157 C 291.968 324.722,384.594 324.741,385.740 325.177 M275.920 354.480 C 277.042 355.602,276.535 363.927,275.268 365.193 C 273.610 366.851,273.396 366.859,235.532 366.723 L 201.264 366.600 200.231 365.630 C 198.391 363.901,197.605 356.913,199.023 354.889 L 199.645 354.000 237.543 354.000 C 266.485 354.000,275.553 354.113,275.920 354.480 " stroke="none" fill="#050505" fill-rule="evenodd"></path><path id="path1" d="M25.200 34.156 C 19.368 35.453,13.146 41.409,16.850 42.150 C 18.455 42.471,366.302 42.469,367.500 42.148 C 371.029 41.202,364.070 35.116,358.227 34.038 C 354.614 33.372,28.207 33.488,25.200 34.156 M15.646 252.763 C 13.989 253.812,17.784 258.465,21.964 260.510 L 24.600 261.800 104.600 261.898 C 155.045 261.959,184.822 261.854,185.200 261.613 C 186.202 260.973,186.054 253.723,185.024 252.968 C 184.122 252.308,16.685 252.105,15.646 252.763 M134.519 279.900 C 130.191 284.423,129.217 285.750,129.797 286.330 C 130.352 286.886,184.718 286.641,185.280 286.081 C 185.947 285.416,186.226 277.830,185.641 276.300 L 185.220 275.200 162.118 275.200 L 139.017 275.200 134.519 279.900 " stroke="none" fill="#3bd2f2" fill-rule="evenodd"></path><path id="path2" d="M78.600 55.899 C 251.548 56.170,370.306 56.171,370.138 55.900 C 370.036 55.735,289.908 55.644,192.076 55.699 C 94.244 55.753,43.180 55.843,78.600 55.899 M370.498 100.280 C 370.406 141.398,370.359 143.984,369.700 144.368 C 369.315 144.592,369.203 144.781,369.451 144.788 C 370.783 144.824,370.804 144.059,370.700 100.157 L 370.596 56.600 370.498 100.280 M243.200 159.667 C 240.124 160.548,237.670 163.573,237.487 166.710 L 237.400 168.200 311.400 168.200 L 385.400 168.200 385.377 166.332 C 385.348 163.989,383.883 161.738,381.495 160.371 L 379.800 159.400 312.200 159.333 C 268.045 159.290,244.114 159.405,243.200 159.667 M222.893 164.400 C 222.893 165.170,222.975 165.485,223.076 165.100 C 223.176 164.715,223.176 164.085,223.076 163.700 C 222.975 163.315,222.893 163.630,222.893 164.400 M222.400 195.280 C 222.290 210.174,222.336 222.224,222.503 222.057 C 222.669 221.891,222.759 209.705,222.703 194.977 L 222.600 168.200 222.400 195.280 M236.490 202.676 C 236.440 213.278,236.535 222.036,236.700 222.138 C 236.973 222.307,236.967 207.589,236.689 190.200 C 236.629 186.460,236.539 192.074,236.490 202.676 M386.595 247.400 C 386.595 282.160,386.642 296.321,386.700 278.869 C 386.758 261.416,386.758 232.976,386.700 215.669 C 386.642 198.361,386.595 212.640,386.595 247.400 M205.900 222.699 C 208.815 222.767,213.585 222.767,216.500 222.699 C 219.415 222.631,217.030 222.575,211.200 222.575 C 205.370 222.575,202.985 222.631,205.900 222.699 M246.700 222.700 C 251.815 222.763,260.185 222.763,265.300 222.700 C 270.415 222.636,266.230 222.585,256.000 222.585 C 245.770 222.585,241.585 222.636,246.700 222.700 M189.978 227.900 L 188.600 229.400 190.100 228.022 C 191.496 226.738,191.784 226.400,191.478 226.400 C 191.412 226.400,190.737 227.075,189.978 227.900 M283.600 226.525 C 283.600 226.594,284.185 227.179,284.900 227.825 L 286.200 229.000 285.025 227.700 C 283.930 226.488,283.600 226.216,283.600 226.525 M200.594 238.153 C 200.112 238.889,199.996 240.002,200.085 243.053 L 200.200 247.000 237.600 247.000 L 275.000 247.000 275.114 242.914 C 275.293 236.484,280.015 237.200,237.409 237.200 L 201.218 237.200 200.594 238.153 M185.061 238.185 C 184.848 238.741,176.180 238.793,99.250 238.702 C 52.185 238.646,13.760 238.735,13.862 238.900 C 14.270 239.560,184.659 239.252,185.208 238.590 C 185.486 238.255,185.621 237.887,185.506 237.773 C 185.392 237.659,185.192 237.844,185.061 238.185 M289.697 275.620 C 289.623 302.744,289.712 311.152,290.080 311.520 C 290.625 312.065,385.802 312.244,386.138 311.700 C 386.240 311.535,364.696 311.400,338.262 311.400 L 290.200 311.400 289.997 275.800 L 289.794 240.200 289.697 275.620 M290.487 330.900 L 290.600 335.400 333.991 335.502 C 381.361 335.613,380.027 335.672,382.791 333.346 C 384.389 332.001,385.600 329.618,385.600 327.816 L 385.600 326.400 337.987 326.400 L 290.374 326.400 290.487 330.900 M200.269 355.465 C 200.121 355.612,200.000 357.503,200.000 359.667 C 200.000 365.886,195.338 365.200,237.600 365.200 C 279.986 365.200,275.293 365.915,275.114 359.486 L 275.000 355.400 237.769 355.298 C 217.292 355.242,200.417 355.317,200.269 355.465 " stroke="none" fill="#f38b6b" fill-rule="evenodd"></path><path id="path3" d="M13.798 56.900 C 13.679 57.395,13.631 98.480,13.691 148.200 L 13.800 238.600 99.179 238.701 C 146.138 238.756,184.703 238.657,184.880 238.480 C 185.058 238.302,185.471 237.129,185.798 235.872 C 188.546 225.323,193.313 222.736,210.600 222.415 L 222.200 222.200 222.426 193.000 C 222.632 166.473,222.718 163.599,223.365 161.600 C 225.356 155.449,229.589 150.163,234.648 147.511 C 240.177 144.612,235.261 144.800,305.681 144.800 C 355.745 144.800,369.190 144.695,369.727 144.300 C 370.360 143.834,370.399 140.823,370.303 100.000 L 370.200 56.200 192.108 56.100 L 14.015 55.999 13.798 56.900 M237.296 183.132 C 236.900 183.384,236.814 187.592,236.896 202.826 L 237.000 222.200 256.600 222.411 C 273.480 222.593,276.430 222.713,277.855 223.277 C 282.359 225.061,284.761 226.893,286.868 230.153 C 289.932 234.894,289.744 232.247,289.984 274.000 L 290.200 311.400 338.200 311.400 L 386.200 311.400 386.301 247.642 C 386.376 200.852,386.283 183.741,385.952 183.342 C 385.442 182.727,238.262 182.519,237.296 183.132 M199.614 262.374 C 198.850 263.801,199.059 339.402,199.829 340.171 C 200.567 340.910,274.041 341.141,275.200 340.409 C 275.931 339.947,276.334 264.531,275.616 262.642 L 275.220 261.600 237.624 261.600 C 200.863 261.600,200.019 261.617,199.614 262.374 " stroke="none" fill="#fbfbfb" fill-rule="evenodd"></path><path id="path4" d="M13.376 55.368 C 12.353 56.116,12.128 238.108,13.149 239.339 C 14.024 240.393,184.766 240.355,185.687 239.300 C 186.024 238.915,186.425 237.895,186.580 237.033 C 187.509 231.858,190.843 227.414,195.526 225.107 L 198.179 223.800 210.229 223.600 C 219.466 223.447,222.430 223.275,222.923 222.865 C 223.501 222.384,223.579 219.358,223.688 192.865 C 223.809 163.662,223.818 163.377,224.696 160.800 C 226.486 155.543,230.605 150.719,235.350 148.324 C 240.722 145.612,234.757 145.841,306.067 145.610 C 341.633 145.494,370.883 145.250,371.067 145.067 C 371.917 144.216,371.660 56.460,370.805 55.605 C 369.739 54.539,14.832 54.304,13.376 55.368 M370.386 56.374 C 371.067 57.645,370.952 143.776,370.269 144.343 C 369.888 144.659,351.562 144.814,305.569 144.892 C 244.560 144.996,241.292 145.037,239.200 145.735 C 231.971 148.146,226.673 153.316,223.900 160.666 C 223.026 162.982,223.018 163.231,222.890 192.399 C 222.807 211.268,222.618 221.942,222.362 222.199 C 222.122 222.439,217.200 222.680,210.081 222.800 L 198.200 223.000 195.511 224.274 C 190.625 226.588,187.212 230.784,185.973 236.000 C 185.685 237.210,185.281 238.425,185.075 238.701 C 184.777 239.100,167.322 239.181,99.250 239.101 L 13.800 239.000 13.699 147.624 C 13.619 74.787,13.700 56.184,14.099 55.930 C 15.385 55.114,369.948 55.555,370.386 56.374 M242.614 158.499 C 238.573 159.573,234.312 166.952,236.480 169.120 C 237.309 169.949,385.740 169.803,386.571 168.971 C 387.318 168.225,387.320 168.197,386.771 165.640 C 386.214 163.044,384.512 160.735,382.117 159.327 L 380.200 158.200 312.200 158.138 C 265.618 158.096,243.700 158.210,242.614 158.499 M381.495 160.371 C 383.883 161.738,385.348 163.989,385.377 166.332 L 385.400 168.200 311.400 168.200 L 237.400 168.200 237.487 166.710 C 237.670 163.573,240.124 160.548,243.200 159.667 C 244.114 159.405,268.045 159.290,312.200 159.333 L 379.800 159.400 381.495 160.371 M236.014 182.774 C 235.745 183.277,235.600 190.341,235.600 202.951 L 235.600 222.355 236.489 222.977 C 237.263 223.519,239.814 223.600,256.216 223.600 C 280.331 223.600,282.866 224.302,286.844 232.082 C 288.815 235.938,288.790 235.397,288.795 274.671 C 288.799 307.653,288.866 311.609,289.429 312.171 C 290.336 313.079,385.385 313.138,386.624 312.232 C 387.704 311.442,388.068 184.574,386.994 182.935 L 386.382 182.000 311.405 182.000 C 237.687 182.000,236.421 182.013,236.014 182.774 M386.410 183.826 C 386.657 184.477,386.800 207.728,386.800 247.400 C 386.800 287.072,386.657 310.323,386.410 310.974 L 386.020 312.000 338.290 312.000 C 301.700 312.000,290.448 311.888,290.080 311.520 C 289.714 311.154,289.600 302.365,289.600 274.404 C 289.600 233.980,289.669 235.178,287.083 230.855 C 285.418 228.072,282.841 225.795,279.600 224.244 L 277.000 223.000 257.200 222.800 C 246.310 222.690,237.175 222.454,236.900 222.276 C 236.373 221.935,236.127 184.777,236.643 183.433 C 236.863 182.859,243.826 182.800,311.453 182.800 L 386.020 182.800 386.410 183.826 M202.000 235.947 C 200.272 236.384,199.572 237.008,198.995 238.629 C 198.206 240.843,198.223 246.370,199.023 247.511 L 199.645 248.400 237.543 248.400 C 266.485 248.400,275.553 248.287,275.920 247.920 C 276.236 247.604,276.400 245.914,276.400 242.974 C 276.400 237.845,275.907 236.745,273.282 236.016 C 271.661 235.566,203.769 235.500,202.000 235.947 M274.414 238.014 C 275.143 238.743,275.216 239.251,275.114 242.914 L 275.000 247.000 237.600 247.000 L 200.200 247.000 200.085 243.053 C 199.996 240.002,200.112 238.889,200.594 238.153 L 201.218 237.200 237.409 237.200 C 273.272 237.200,273.607 237.207,274.414 238.014 M198.880 261.280 C 198.184 261.976,198.184 340.424,198.880 341.120 C 199.833 342.073,275.873 341.784,276.386 340.826 C 276.961 339.751,276.961 262.649,276.386 261.574 C 275.873 260.616,199.833 260.327,198.880 261.280 M275.800 301.200 L 275.800 340.600 237.600 340.600 L 199.400 340.600 199.297 301.600 C 199.240 280.150,199.280 262.374,199.385 262.098 C 199.537 261.699,207.410 261.617,237.688 261.698 L 275.800 261.800 275.800 301.200 M290.400 325.157 C 289.176 325.497,288.590 335.396,289.738 336.349 C 290.158 336.697,301.444 336.787,334.849 336.707 L 379.400 336.600 381.702 335.470 C 386.228 333.247,388.920 326.386,385.740 325.177 C 384.594 324.741,291.968 324.722,290.400 325.157 M385.600 327.816 C 385.600 329.618,384.389 332.001,382.791 333.346 C 380.027 335.672,381.361 335.613,333.991 335.502 L 290.600 335.400 290.487 330.900 L 290.374 326.400 337.987 326.400 L 385.600 326.400 385.600 327.816 M199.023 354.889 C 197.605 356.913,198.391 363.901,200.231 365.630 L 201.264 366.600 235.532 366.723 C 273.396 366.859,273.610 366.851,275.268 365.193 C 276.535 363.927,277.042 355.602,275.920 354.480 C 275.553 354.113,266.485 354.000,237.543 354.000 L 199.645 354.000 199.023 354.889 M275.114 359.486 C 275.293 365.915,279.986 365.200,237.600 365.200 C 195.338 365.200,200.000 365.886,200.000 359.667 C 200.000 357.503,200.121 355.612,200.269 355.465 C 200.417 355.317,217.292 355.242,237.769 355.298 L 275.000 355.400 275.114 359.486 " stroke="none" fill="#bb6c54" fill-rule="evenodd"></path></g></svg>