<svg id="svg" version="1.1" xmlns="http://www.w3.org/2000/svg" xmlns:xlink="http://www.w3.org/1999/xlink" width="400" height="246.89655172413794" viewBox="0, 0, 400,246.89655172413794"><g id="svgg"><path id="path0" d="M109.630 22.229 C 108.340 22.329,106.824 22.536,106.262 22.689 C 105.699 22.842,104.033 23.136,102.558 23.342 C 98.461 23.915,91.027 25.735,87.284 27.082 C 80.817 29.408,78.333 30.454,73.210 33.004 C 68.764 35.218,68.601 35.309,64.938 37.598 C 53.588 44.693,41.593 55.717,35.746 64.425 C 35.510 64.775,34.601 66.062,33.725 67.284 C 31.963 69.742,28.889 74.655,28.889 75.013 C 28.889 75.139,28.674 75.515,28.411 75.849 C 27.833 76.584,25.284 81.638,24.200 84.198 C 23.769 85.216,23.162 86.549,22.852 87.160 C 22.541 87.772,22.209 88.605,22.114 89.012 C 22.019 89.420,21.736 90.198,21.486 90.741 C 20.726 92.392,18.169 100.933,17.902 102.716 C 17.811 103.327,17.534 104.497,17.288 105.316 C 17.041 106.135,16.714 107.838,16.561 109.101 C 16.407 110.364,16.113 112.083,15.908 112.921 C 14.901 117.022,14.906 136.989,15.915 141.100 C 16.113 141.908,16.397 143.631,16.545 144.927 C 16.694 146.223,17.027 147.951,17.285 148.765 C 17.543 149.580,17.825 150.691,17.912 151.235 C 18.246 153.314,21.026 162.766,21.471 163.333 C 21.577 163.469,21.802 164.025,21.970 164.568 C 22.138 165.111,22.529 166.111,22.837 166.790 C 23.146 167.469,23.737 168.802,24.150 169.753 C 25.556 172.990,26.487 174.936,27.397 176.543 C 27.898 177.426,28.432 178.370,28.584 178.642 C 30.537 182.120,33.448 186.640,35.185 188.891 C 35.593 189.418,36.313 190.384,36.785 191.036 C 41.485 197.524,52.578 208.250,59.130 212.641 C 59.676 213.008,60.568 213.643,61.111 214.052 C 61.654 214.462,62.488 215.027,62.963 215.308 C 63.438 215.589,64.327 216.145,64.938 216.544 C 66.073 217.284,68.250 218.527,69.848 219.347 C 70.339 219.598,70.907 219.940,71.111 220.106 C 71.315 220.273,73.148 221.156,75.185 222.070 C 77.222 222.984,79.222 223.906,79.630 224.118 C 80.037 224.330,80.969 224.712,81.702 224.967 C 82.434 225.221,83.156 225.531,83.306 225.655 C 83.457 225.779,84.191 226.052,84.938 226.261 C 85.685 226.471,87.407 226.997,88.765 227.430 C 90.123 227.864,92.068 228.426,93.086 228.679 C 94.105 228.933,95.938 229.407,97.160 229.733 C 98.383 230.060,100.049 230.395,100.864 230.478 C 101.679 230.561,102.957 230.794,103.704 230.996 C 109.702 232.618,128.274 232.681,136.543 231.107 C 137.969 230.836,140.025 230.461,141.111 230.274 C 143.783 229.814,146.829 229.037,151.111 227.723 C 153.080 227.119,155.203 226.478,155.829 226.298 C 156.454 226.119,157.422 225.740,157.979 225.455 C 158.537 225.171,159.115 224.938,159.265 224.938 C 159.519 224.938,160.101 224.684,164.522 222.642 C 166.880 221.553,166.950 221.403,165.520 220.497 C 164.865 220.081,163.882 219.622,163.337 219.476 C 162.792 219.330,162.211 219.101,162.047 218.966 C 161.883 218.832,159.841 217.759,157.509 216.583 C 152.930 214.273,152.305 213.937,150.914 213.044 C 150.411 212.721,149.821 212.349,149.603 212.216 C 149.085 211.902,148.281 211.370,145.432 209.453 C 135.679 202.890,126.960 194.723,119.630 185.284 C 117.092 182.015,113.621 176.839,111.204 172.716 C 110.806 172.037,110.285 171.148,110.046 170.741 C 109.807 170.333,109.336 169.444,109.000 168.765 C 108.663 168.086,108.229 167.253,108.034 166.914 C 107.722 166.370,107.273 165.407,105.440 161.358 C 103.978 158.128,103.537 157.007,102.429 153.704 C 102.156 152.889,101.673 151.500,101.355 150.617 C 101.038 149.735,100.658 148.420,100.511 147.697 C 100.364 146.974,100.131 146.171,99.994 145.914 C 99.670 145.310,98.649 140.707,97.539 134.852 C 95.687 125.079,95.632 107.297,97.426 98.272 C 97.628 97.253,97.943 95.475,98.125 94.321 C 98.483 92.052,99.214 88.973,100.001 86.420 C 100.273 85.537,100.603 84.370,100.734 83.827 C 101.165 82.046,103.503 75.232,104.208 73.704 C 104.459 73.160,105.391 71.105,106.279 69.136 C 107.948 65.439,109.225 62.838,109.604 62.368 C 109.724 62.220,110.286 61.222,110.854 60.151 C 111.422 59.080,112.085 57.914,112.326 57.559 C 112.568 57.204,113.607 55.636,114.636 54.074 C 120.940 44.503,128.027 36.573,136.543 29.561 C 141.832 25.205,141.975 25.072,141.975 24.506 C 141.975 23.865,141.700 23.769,138.940 23.443 C 137.690 23.295,136.056 23.020,135.309 22.832 C 132.207 22.051,116.644 21.685,109.630 22.229 " stroke="none" fill="#dc5434" fill-rule="evenodd"></path><path id="path1" d="M203.454 21.561 C 203.385 21.633,201.552 21.806,199.380 21.946 C 197.209 22.086,194.765 22.377,193.951 22.595 C 193.136 22.812,191.648 23.094,190.645 23.222 C 188.856 23.449,184.168 24.595,181.975 25.341 C 181.364 25.549,180.301 25.862,179.613 26.037 C 178.924 26.211,178.091 26.500,177.761 26.678 C 177.431 26.855,176.466 27.259,175.617 27.575 C 171.908 28.953,170.944 29.334,170.247 29.697 C 169.840 29.910,168.728 30.447,167.778 30.892 C 166.196 31.633,164.198 32.703,161.375 34.321 C 160.783 34.660,159.759 35.244,159.100 35.618 C 158.441 35.992,157.169 36.825,156.273 37.470 C 155.378 38.115,154.100 39.022,153.434 39.488 C 152.767 39.953,151.603 40.842,150.845 41.463 C 150.088 42.084,149.097 42.870,148.643 43.210 C 146.124 45.093,140.387 50.685,137.649 53.924 C 136.973 54.725,136.076 55.780,135.656 56.270 C 133.259 59.063,129.551 64.463,126.483 69.630 C 125.689 70.966,122.863 76.701,121.980 78.765 C 121.545 79.784,120.932 81.173,120.618 81.852 C 120.304 82.531,119.970 83.475,119.876 83.951 C 119.782 84.426,119.547 85.064,119.354 85.369 C 119.161 85.674,118.829 86.618,118.616 87.468 C 118.404 88.317,117.970 89.901,117.653 90.988 C 116.851 93.731,115.877 98.107,115.675 99.877 C 115.582 100.691,115.271 102.358,114.983 103.580 C 114.095 107.362,114.199 125.024,115.136 129.440 C 115.502 131.170,115.802 132.895,115.802 133.275 C 115.802 133.656,115.968 134.574,116.171 135.317 C 116.374 136.059,116.708 137.444,116.914 138.395 C 117.370 140.505,118.392 144.092,119.060 145.926 C 119.332 146.673,119.698 147.790,119.874 148.408 C 120.050 149.026,120.428 149.969,120.714 150.503 C 121.000 151.037,121.235 151.575,121.235 151.698 C 121.235 152.806,126.709 163.447,129.000 166.790 C 129.608 167.677,129.994 168.279,130.563 169.226 C 130.796 169.615,131.321 170.361,131.728 170.882 C 132.136 171.404,133.025 172.572,133.704 173.478 C 137.909 179.088,146.086 187.326,151.285 191.191 C 153.652 192.951,155.496 194.267,156.211 194.706 C 156.639 194.970,157.750 195.687,158.680 196.301 C 159.610 196.914,160.648 197.561,160.988 197.737 C 161.327 197.913,162.160 198.381,162.840 198.776 C 163.519 199.170,164.685 199.809,165.432 200.194 C 166.179 200.580,167.012 201.018,167.284 201.169 C 168.171 201.660,171.075 202.963,171.283 202.963 C 171.394 202.963,171.985 203.226,172.595 203.547 C 173.205 203.868,174.148 204.271,174.691 204.443 C 175.235 204.615,175.793 204.845,175.931 204.954 C 176.070 205.063,176.959 205.371,177.907 205.639 C 178.854 205.907,180.019 206.291,180.494 206.493 C 180.969 206.695,182.025 206.993,182.840 207.154 C 183.654 207.316,184.932 207.656,185.679 207.911 C 186.426 208.166,187.825 208.489,188.788 208.628 C 189.751 208.767,190.917 209.039,191.380 209.231 C 191.843 209.423,193.000 209.654,193.951 209.744 C 194.901 209.833,197.290 210.142,199.259 210.430 C 204.512 211.197,213.622 211.191,219.136 210.416 C 226.091 209.439,226.522 209.369,227.778 209.018 C 228.457 208.829,229.790 208.507,230.741 208.304 C 234.286 207.545,240.169 205.800,242.167 204.913 C 242.748 204.655,243.357 204.444,243.522 204.444 C 243.686 204.444,244.433 204.152,245.182 203.794 C 245.931 203.436,247.210 202.834,248.025 202.456 C 254.448 199.472,255.062 199.084,255.062 198.017 C 255.062 197.760,253.738 196.951,251.214 195.665 C 249.097 194.586,247.250 193.565,247.109 193.395 C 246.968 193.225,246.738 193.086,246.596 193.086 C 246.321 193.086,244.859 192.205,242.122 190.390 C 241.185 189.768,240.053 189.037,239.607 188.765 C 239.161 188.494,238.095 187.725,237.238 187.057 C 236.380 186.389,235.235 185.501,234.693 185.082 C 227.540 179.561,218.706 170.225,214.232 163.457 C 213.738 162.710,213.185 161.877,213.003 161.605 C 211.856 159.892,211.592 159.473,209.718 156.379 C 208.689 154.679,206.016 149.491,205.017 147.255 C 204.721 146.592,204.255 145.549,203.981 144.938 C 203.331 143.486,202.285 140.689,201.811 139.136 C 201.604 138.457,201.212 137.346,200.939 136.667 C 200.667 135.988,200.289 134.734,200.100 133.881 C 199.912 133.027,199.603 132.027,199.414 131.658 C 199.225 131.289,198.994 130.488,198.901 129.877 C 198.807 129.265,198.515 127.877,198.252 126.790 C 196.013 117.552,195.390 101.522,196.884 91.605 C 197.222 89.364,197.573 87.031,197.665 86.420 C 197.757 85.809,198.042 84.482,198.299 83.472 C 198.556 82.462,198.765 81.425,198.765 81.168 C 198.765 80.911,199.035 79.904,199.364 78.930 C 199.693 77.957,200.089 76.524,200.245 75.745 C 200.400 74.967,200.629 74.266,200.754 74.189 C 200.879 74.112,201.154 73.416,201.366 72.642 C 201.982 70.390,203.859 65.548,205.070 63.086 C 205.405 62.407,205.844 61.463,206.047 60.988 C 206.372 60.228,207.129 58.788,209.747 53.951 C 210.115 53.272,210.572 52.541,210.763 52.326 C 210.955 52.112,211.111 51.860,211.111 51.766 C 211.111 51.413,215.939 44.490,217.508 42.593 C 218.407 41.506,219.431 40.228,219.783 39.753 C 221.538 37.390,227.413 31.486,231.539 27.939 C 234.925 25.028,234.104 24.114,227.284 23.204 C 226.198 23.059,224.711 22.771,223.981 22.565 C 221.765 21.939,203.930 21.067,203.454 21.561 M117.346 21.913 C 119.077 21.955,121.910 21.955,123.642 21.913 C 125.373 21.870,123.957 21.836,120.494 21.836 C 117.031 21.836,115.614 21.870,117.346 21.913 M110.558 22.150 C 110.866 22.209,111.310 22.207,111.546 22.145 C 111.782 22.083,111.531 22.035,110.988 22.038 C 110.444 22.040,110.251 22.091,110.558 22.150 M129.324 22.150 C 129.631 22.209,130.075 22.207,130.312 22.145 C 130.548 22.083,130.296 22.035,129.753 22.038 C 129.210 22.040,129.017 22.091,129.324 22.150 M289.259 22.132 C 286.380 22.306,274.861 24.723,272.840 25.577 C 272.364 25.777,271.420 26.094,270.741 26.282 C 267.032 27.303,259.726 30.743,254.074 34.129 C 245.592 39.210,235.331 48.660,230.363 55.966 C 228.758 58.327,226.154 62.268,225.698 63.029 C 223.487 66.713,220.136 73.766,219.335 76.420 C 219.130 77.099,218.872 77.765,218.761 77.901 C 218.651 78.037,218.320 79.089,218.027 80.238 C 217.734 81.387,217.341 82.692,217.155 83.137 C 216.969 83.582,216.643 84.958,216.429 86.195 C 216.216 87.431,215.930 88.651,215.793 88.906 C 215.574 89.315,214.966 93.484,214.318 99.012 C 214.044 101.347,214.034 109.232,214.302 111.358 C 214.413 112.241,214.688 114.463,214.913 116.296 C 215.610 121.980,218.319 132.307,220.126 136.173 C 220.317 136.580,220.872 137.828,221.359 138.945 C 222.384 141.295,224.700 145.846,225.603 147.284 C 231.294 156.348,237.263 163.406,244.033 169.075 C 245.893 170.632,246.506 171.107,248.395 172.454 C 248.870 172.792,249.704 173.399,250.247 173.801 C 250.790 174.204,252.123 175.060,253.210 175.704 C 254.296 176.347,255.354 177.015,255.559 177.188 C 256.104 177.646,264.669 181.975,265.030 181.975 C 265.198 181.975,265.885 182.243,266.556 182.571 C 269.565 184.037,279.262 186.875,283.210 187.445 C 284.093 187.572,286.315 187.911,288.148 188.198 C 292.103 188.816,302.762 188.940,305.802 188.403 C 306.753 188.236,308.975 187.899,310.741 187.656 C 313.969 187.211,317.445 186.468,319.506 185.782 C 320.117 185.579,321.340 185.207,322.222 184.956 C 324.833 184.212,327.691 183.209,329.016 182.571 C 329.697 182.244,330.345 181.975,330.457 181.975 C 330.939 181.975,338.537 178.095,340.893 176.646 C 350.366 170.818,358.059 163.807,364.846 154.815 C 365.922 153.389,367.456 151.167,368.256 149.877 C 369.055 148.586,370.024 147.040,370.410 146.439 C 370.796 145.839,371.111 145.215,371.111 145.053 C 371.111 144.891,371.323 144.489,371.581 144.161 C 372.145 143.444,375.309 136.540,375.309 136.026 C 375.309 135.828,375.479 135.423,375.687 135.126 C 376.697 133.683,378.732 126.495,380.000 119.889 C 381.449 112.341,381.578 97.445,380.245 91.728 C 380.086 91.049,379.747 89.383,379.491 88.025 C 378.677 83.703,376.873 77.660,375.662 75.198 C 375.332 74.527,375.062 73.822,375.062 73.632 C 375.062 73.442,374.907 72.991,374.718 72.631 C 374.529 72.270,373.910 70.975,373.342 69.753 C 372.775 68.531,372.186 67.309,372.033 67.037 C 371.881 66.765,371.467 65.988,371.114 65.309 C 370.505 64.138,370.300 63.789,369.009 61.728 C 363.926 53.611,359.192 48.057,352.346 42.177 C 350.784 40.835,349.315 39.558,349.080 39.338 C 348.846 39.119,348.383 38.761,348.052 38.544 C 347.720 38.326,346.134 37.273,344.527 36.203 C 342.920 35.133,341.216 34.008,340.741 33.703 C 338.996 32.584,335.376 30.668,333.333 29.782 C 332.179 29.281,330.718 28.598,330.087 28.263 C 329.456 27.928,328.803 27.654,328.636 27.654 C 328.470 27.654,327.708 27.388,326.944 27.063 C 324.010 25.814,316.429 23.700,313.580 23.335 C 312.833 23.240,311.278 22.933,310.123 22.655 C 308.080 22.162,294.412 21.819,289.259 22.132 M222.222 22.903 C 223.377 23.181,225.043 23.480,225.927 23.569 C 226.810 23.657,228.698 24.041,230.124 24.420 C 233.124 25.219,233.455 25.624,232.050 26.775 C 223.616 33.682,214.283 44.706,209.148 53.827 C 208.957 54.167,208.376 55.191,207.857 56.104 C 207.338 57.016,206.914 57.862,206.914 57.983 C 206.914 58.104,206.649 58.592,206.327 59.068 C 206.004 59.544,205.599 60.365,205.428 60.892 C 205.257 61.420,204.927 62.130,204.695 62.469 C 204.463 62.809,204.153 63.420,204.006 63.827 C 203.859 64.235,203.300 65.623,202.763 66.914 C 202.227 68.204,201.322 70.704,200.753 72.469 C 200.183 74.235,199.549 76.179,199.342 76.790 C 199.136 77.401,198.769 78.735,198.526 79.753 C 198.284 80.772,197.909 82.327,197.692 83.210 C 194.627 95.685,194.629 114.386,197.697 127.160 C 197.909 128.043,198.282 129.599,198.527 130.617 C 198.772 131.636,199.155 133.025,199.378 133.704 C 199.602 134.383,200.246 136.383,200.810 138.148 C 201.374 139.914,202.212 142.247,202.672 143.333 C 203.132 144.420,203.721 145.844,203.982 146.499 C 204.242 147.153,204.608 147.931,204.795 148.227 C 204.981 148.523,205.217 149.043,205.319 149.383 C 205.582 150.259,209.851 158.045,210.404 158.658 C 210.657 158.938,210.864 159.253,210.864 159.358 C 210.864 159.463,211.181 160.012,211.568 160.577 C 211.956 161.142,212.450 161.883,212.668 162.222 C 218.469 171.271,231.812 184.818,239.296 189.259 C 239.525 189.395,240.471 190.018,241.399 190.644 C 243.213 191.866,246.414 193.819,248.021 194.683 C 248.566 194.975,249.235 195.338,249.506 195.489 C 249.778 195.639,250.944 196.227,252.099 196.795 C 253.253 197.363,254.234 197.862,254.279 197.905 C 255.066 198.651,246.895 202.745,240.494 204.813 C 238.932 205.318,237.099 205.940,236.420 206.196 C 235.741 206.452,234.519 206.784,233.704 206.934 C 232.889 207.084,231.852 207.361,231.399 207.550 C 230.947 207.739,229.558 208.065,228.313 208.274 C 227.068 208.484,225.383 208.810,224.568 208.998 C 223.753 209.186,221.420 209.469,219.383 209.627 C 217.346 209.784,214.936 210.016,214.027 210.142 C 211.901 210.436,205.560 210.437,204.024 210.144 C 203.373 210.020,201.062 209.789,198.889 209.631 C 196.716 209.474,193.994 209.126,192.840 208.859 C 191.685 208.592,190.130 208.283,189.383 208.172 C 187.469 207.889,180.393 205.857,176.667 204.520 C 172.459 203.011,165.646 199.806,161.835 197.544 C 150.590 190.869,141.685 182.918,133.475 172.222 C 132.075 170.398,129.293 166.205,127.823 163.703 C 127.305 162.821,126.775 161.932,126.646 161.728 C 126.442 161.408,124.782 158.028,122.521 153.333 C 122.162 152.586,121.684 151.475,121.460 150.864 C 121.235 150.253,120.880 149.309,120.671 148.765 C 119.728 146.319,117.719 139.482,117.405 137.654 C 117.312 137.111,117.026 135.937,116.769 135.044 C 116.512 134.152,116.188 132.319,116.048 130.970 C 115.908 129.622,115.603 127.574,115.369 126.420 C 114.747 123.346,114.740 108.705,115.360 105.802 C 115.592 104.716,115.894 102.716,116.030 101.358 C 116.167 100.000,116.398 98.548,116.543 98.131 C 116.688 97.714,117.013 96.381,117.264 95.168 C 119.422 84.734,125.804 70.363,131.914 62.179 C 132.083 61.952,132.667 61.132,133.210 60.357 C 137.267 54.571,147.082 44.580,151.794 41.441 C 152.165 41.194,152.969 40.604,153.580 40.130 C 154.818 39.170,159.176 36.236,159.753 35.975 C 159.957 35.883,160.846 35.365,161.728 34.824 C 162.611 34.283,163.722 33.647,164.198 33.411 C 164.673 33.175,165.228 32.855,165.432 32.699 C 165.636 32.543,166.858 31.947,168.148 31.374 C 169.438 30.801,170.883 30.132,171.358 29.888 C 171.833 29.643,172.667 29.305,173.210 29.136 C 173.753 28.967,174.531 28.632,174.938 28.392 C 175.346 28.151,176.068 27.874,176.543 27.775 C 177.019 27.676,177.741 27.424,178.148 27.215 C 178.921 26.818,180.494 26.358,185.062 25.192 C 186.556 24.810,188.389 24.326,189.136 24.114 C 189.883 23.903,191.549 23.610,192.840 23.463 C 194.130 23.316,195.519 23.089,195.926 22.959 C 198.740 22.062,218.549 22.020,222.222 22.903 M130.864 34.444 C 130.264 35.056,129.829 35.556,129.897 35.556 C 129.965 35.556,130.511 35.056,131.111 34.444 C 131.711 33.833,132.146 33.333,132.078 33.333 C 132.010 33.333,131.464 33.833,130.864 34.444 M128.015 37.346 L 126.790 38.642 128.086 37.417 C 129.291 36.278,129.496 36.049,129.312 36.049 C 129.273 36.049,128.689 36.633,128.015 37.346 M52.454 46.481 L 51.728 47.284 52.531 46.559 C 53.279 45.883,53.447 45.679,53.256 45.679 C 53.214 45.679,52.852 46.040,52.454 46.481 M96.375 107.901 C 96.375 108.784,96.420 109.145,96.475 108.704 C 96.530 108.262,96.530 107.540,96.475 107.099 C 96.420 106.657,96.375 107.019,96.375 107.901 M96.153 115.926 C 96.153 118.642,96.189 119.787,96.233 118.470 C 96.278 117.153,96.278 114.931,96.234 113.532 C 96.190 112.132,96.153 113.210,96.153 115.926 M15.143 120.370 C 15.144 121.321,15.188 121.680,15.242 121.167 C 15.295 120.655,15.294 119.877,15.240 119.439 C 15.185 119.001,15.142 119.420,15.143 120.370 M14.915 126.914 C 14.915 129.154,14.953 130.071,14.999 128.951 C 15.044 127.830,15.044 125.997,14.999 124.877 C 14.953 123.756,14.915 124.673,14.915 126.914 M96.373 124.321 C 96.374 125.136,96.420 125.439,96.475 124.996 C 96.530 124.552,96.529 123.885,96.473 123.514 C 96.416 123.143,96.371 123.506,96.373 124.321 M15.136 133.827 C 15.136 134.574,15.182 134.880,15.239 134.506 C 15.295 134.133,15.295 133.522,15.239 133.148 C 15.182 132.775,15.136 133.080,15.136 133.827 M125.432 192.176 C 125.432 192.219,125.793 192.580,126.235 192.978 L 127.037 193.704 126.312 192.901 C 125.636 192.153,125.432 191.985,125.432 192.176 M43.446 199.074 C 44.052 199.719,44.580 200.247,44.619 200.247 C 44.805 200.247,44.609 200.025,43.519 199.002 L 42.346 197.901 43.446 199.074 M47.778 203.457 C 48.447 204.136,49.049 204.691,49.117 204.691 C 49.185 204.691,48.693 204.136,48.025 203.457 C 47.356 202.778,46.753 202.222,46.685 202.222 C 46.617 202.222,47.109 202.778,47.778 203.457 " stroke="none" fill="#8cd4d3" fill-rule="evenodd"></path><path id="path2" d="M198.395 22.494 C 197.444 22.620,196.333 22.829,195.926 22.959 C 195.519 23.089,194.130 23.316,192.840 23.463 C 191.549 23.610,189.883 23.903,189.136 24.114 C 188.389 24.326,186.556 24.810,185.062 25.192 C 180.494 26.358,178.921 26.818,178.148 27.215 C 177.741 27.424,177.019 27.676,176.543 27.775 C 176.068 27.874,175.346 28.151,174.938 28.392 C 174.531 28.632,173.753 28.967,173.210 29.136 C 172.667 29.305,171.833 29.643,171.358 29.888 C 170.883 30.132,169.438 30.801,168.148 31.374 C 166.858 31.947,165.636 32.543,165.432 32.699 C 165.228 32.855,164.673 33.175,164.198 33.411 C 163.722 33.647,162.611 34.283,161.728 34.824 C 160.846 35.365,159.957 35.883,159.753 35.975 C 159.176 36.236,154.818 39.170,153.580 40.130 C 152.969 40.604,152.165 41.194,151.794 41.441 C 147.082 44.580,137.267 54.571,133.210 60.357 C 132.667 61.132,132.083 61.952,131.914 62.179 C 125.804 70.363,119.422 84.734,117.264 95.168 C 117.013 96.381,116.688 97.714,116.543 98.131 C 116.398 98.548,116.167 100.000,116.030 101.358 C 115.894 102.716,115.592 104.716,115.360 105.802 C 114.740 108.705,114.747 123.346,115.369 126.420 C 115.603 127.574,115.908 129.622,116.048 130.970 C 116.188 132.319,116.512 134.152,116.769 135.044 C 117.026 135.937,117.312 137.111,117.405 137.654 C 117.719 139.482,119.728 146.319,120.671 148.765 C 120.880 149.309,121.235 150.253,121.460 150.864 C 121.684 151.475,122.162 152.586,122.521 153.333 C 124.782 158.028,126.442 161.408,126.646 161.728 C 126.775 161.932,127.305 162.821,127.823 163.703 C 129.293 166.205,132.075 170.398,133.475 172.222 C 141.292 182.406,149.270 189.685,160.000 196.425 C 164.531 199.271,171.587 202.698,176.667 204.520 C 180.393 205.857,187.469 207.889,189.383 208.172 C 190.130 208.283,191.685 208.592,192.840 208.859 C 193.994 209.126,196.716 209.474,198.889 209.631 C 201.062 209.789,203.373 210.020,204.024 210.144 C 205.560 210.437,211.901 210.436,214.027 210.142 C 214.936 210.016,217.346 209.784,219.383 209.627 C 221.420 209.469,223.753 209.186,224.568 208.998 C 225.383 208.810,227.068 208.484,228.313 208.274 C 229.558 208.065,230.947 207.739,231.399 207.550 C 231.852 207.361,232.889 207.084,233.704 206.934 C 234.519 206.784,235.741 206.452,236.420 206.196 C 237.099 205.940,238.932 205.318,240.494 204.813 C 246.895 202.745,255.066 198.651,254.279 197.905 C 254.234 197.862,253.253 197.363,252.099 196.795 C 250.944 196.227,249.778 195.639,249.506 195.489 C 249.235 195.338,248.566 194.975,248.021 194.683 C 246.414 193.819,243.213 191.866,241.399 190.644 C 240.471 190.018,239.525 189.395,239.296 189.259 C 231.812 184.818,218.469 171.271,212.668 162.222 C 212.450 161.883,211.956 161.142,211.568 160.577 C 211.181 160.012,210.864 159.463,210.864 159.358 C 210.864 159.253,210.657 158.938,210.404 158.658 C 209.851 158.045,205.582 150.259,205.319 149.383 C 205.217 149.043,204.981 148.523,204.795 148.227 C 204.608 147.931,204.242 147.153,203.982 146.499 C 203.721 145.844,203.132 144.420,202.672 143.333 C 202.212 142.247,201.374 139.914,200.810 138.148 C 200.246 136.383,199.602 134.383,199.378 133.704 C 199.155 133.025,198.772 131.636,198.527 130.617 C 198.282 129.599,197.909 128.043,197.697 127.160 C 194.629 114.386,194.627 95.685,197.692 83.210 C 197.909 82.327,198.284 80.772,198.526 79.753 C 198.769 78.735,199.136 77.401,199.342 76.790 C 199.549 76.179,200.183 74.235,200.753 72.469 C 201.322 70.704,202.227 68.204,202.763 66.914 C 203.300 65.623,203.859 64.235,204.006 63.827 C 204.153 63.420,204.463 62.809,204.695 62.469 C 204.927 62.130,205.257 61.420,205.428 60.892 C 205.599 60.365,206.004 59.544,206.327 59.068 C 206.649 58.592,206.914 58.104,206.914 57.983 C 206.914 57.862,207.338 57.016,207.857 56.104 C 208.376 55.191,208.957 54.167,209.148 53.827 C 214.283 44.706,223.616 33.682,232.050 26.775 C 233.455 25.624,233.124 25.219,230.124 24.420 C 228.698 24.041,226.810 23.657,225.927 23.569 C 225.043 23.480,223.377 23.181,222.222 22.903 C 219.858 22.334,201.928 22.027,198.395 22.494 " stroke="none" fill="#7bc34b" fill-rule="evenodd"></path><path id="path3" d="M0.000 123.457 L 0.000 246.914 200.000 246.914 L 400.000 246.914 400.000 123.457 L 400.000 0.000 200.000 0.000 L 0.000 0.000 0.000 123.457 M219.537 21.945 C 221.251 22.080,223.251 22.359,223.981 22.565 C 224.711 22.771,226.198 23.059,227.284 23.204 C 234.104 24.114,234.925 25.028,231.539 27.939 C 227.413 31.486,221.538 37.390,219.783 39.753 C 219.431 40.228,218.407 41.506,217.508 42.593 C 215.939 44.490,211.111 51.413,211.111 51.766 C 211.111 51.860,210.955 52.112,210.763 52.326 C 210.572 52.541,210.115 53.272,209.747 53.951 C 207.129 58.788,206.372 60.228,206.047 60.988 C 205.844 61.463,205.405 62.407,205.070 63.086 C 203.859 65.548,201.982 70.390,201.366 72.642 C 201.154 73.416,200.879 74.112,200.754 74.189 C 200.629 74.266,200.400 74.967,200.245 75.745 C 200.089 76.524,199.693 77.957,199.364 78.930 C 199.035 79.904,198.765 80.911,198.765 81.168 C 198.765 81.425,198.556 82.462,198.299 83.472 C 198.042 84.482,197.757 85.809,197.665 86.420 C 197.573 87.031,197.222 89.364,196.884 91.605 C 195.390 101.522,196.013 117.552,198.252 126.790 C 198.515 127.877,198.807 129.265,198.901 129.877 C 198.994 130.488,199.225 131.289,199.414 131.658 C 199.603 132.027,199.912 133.027,200.100 133.881 C 200.289 134.734,200.667 135.988,200.939 136.667 C 201.212 137.346,201.604 138.457,201.811 139.136 C 202.285 140.689,203.331 143.486,203.981 144.938 C 204.255 145.549,204.721 146.592,205.017 147.255 C 207.040 151.785,210.060 157.212,213.003 161.605 C 213.185 161.877,213.738 162.710,214.232 163.457 C 218.706 170.225,227.540 179.561,234.693 185.082 C 235.235 185.501,236.380 186.389,237.238 187.057 C 238.095 187.725,239.161 188.494,239.607 188.765 C 240.053 189.037,241.185 189.768,242.122 190.390 C 244.859 192.205,246.321 193.086,246.596 193.086 C 246.738 193.086,246.968 193.225,247.109 193.395 C 247.250 193.565,249.097 194.586,251.214 195.665 C 256.724 198.472,256.758 198.398,248.025 202.456 C 247.210 202.834,245.931 203.436,245.182 203.794 C 244.433 204.152,243.686 204.444,243.522 204.444 C 243.357 204.444,242.748 204.655,242.167 204.913 C 240.169 205.800,234.286 207.545,230.741 208.304 C 229.790 208.507,228.457 208.829,227.778 209.018 C 226.522 209.369,226.091 209.439,219.136 210.416 C 213.622 211.191,204.512 211.197,199.259 210.430 C 197.290 210.142,194.901 209.833,193.951 209.744 C 193.000 209.654,191.843 209.423,191.380 209.231 C 190.917 209.039,189.751 208.767,188.788 208.628 C 187.825 208.489,186.426 208.166,185.679 207.911 C 184.932 207.656,183.654 207.316,182.840 207.154 C 182.025 206.993,180.969 206.695,180.494 206.493 C 180.019 206.291,178.854 205.907,177.907 205.639 C 176.959 205.371,176.070 205.063,175.931 204.954 C 175.793 204.845,175.235 204.615,174.691 204.443 C 174.148 204.271,173.205 203.868,172.595 203.547 C 171.985 203.226,171.394 202.963,171.283 202.963 C 171.075 202.963,168.171 201.660,167.284 201.169 C 167.012 201.018,166.179 200.580,165.432 200.194 C 164.685 199.809,163.519 199.170,162.840 198.776 C 162.160 198.381,161.327 197.913,160.988 197.737 C 160.648 197.561,159.610 196.914,158.680 196.301 C 157.750 195.687,156.639 194.970,156.211 194.706 C 155.496 194.267,153.652 192.951,151.285 191.191 C 146.086 187.326,137.909 179.088,133.704 173.478 C 133.025 172.572,132.136 171.404,131.728 170.882 C 131.321 170.361,130.796 169.615,130.563 169.226 C 129.994 168.279,129.608 167.677,129.000 166.790 C 126.709 163.447,121.235 152.806,121.235 151.698 C 121.235 151.575,121.000 151.037,120.714 150.503 C 120.428 149.969,120.050 149.026,119.874 148.408 C 119.698 147.790,119.332 146.673,119.060 145.926 C 118.392 144.092,117.370 140.505,116.914 138.395 C 116.708 137.444,116.374 136.059,116.171 135.317 C 115.968 134.574,115.802 133.656,115.802 133.275 C 115.802 132.895,115.502 131.170,115.136 129.440 C 114.199 125.024,114.095 107.362,114.983 103.580 C 115.271 102.358,115.582 100.691,115.675 99.877 C 115.877 98.107,116.851 93.731,117.653 90.988 C 117.970 89.901,118.404 88.317,118.616 87.468 C 118.829 86.618,119.161 85.674,119.354 85.369 C 119.547 85.064,119.782 84.426,119.876 83.951 C 119.970 83.475,120.304 82.531,120.618 81.852 C 120.932 81.173,121.545 79.784,121.980 78.765 C 122.863 76.701,125.689 70.966,126.483 69.630 C 129.551 64.463,133.259 59.063,135.656 56.270 C 136.076 55.780,136.973 54.725,137.649 53.924 C 140.387 50.685,146.124 45.093,148.643 43.210 C 149.097 42.870,150.088 42.084,150.845 41.463 C 151.603 40.842,152.767 39.953,153.434 39.488 C 154.100 39.022,155.378 38.115,156.273 37.470 C 157.169 36.825,158.441 35.992,159.100 35.618 C 159.759 35.244,160.783 34.660,161.375 34.321 C 164.198 32.703,166.196 31.633,167.778 30.892 C 168.728 30.447,169.840 29.910,170.247 29.697 C 170.944 29.334,171.908 28.953,175.617 27.575 C 176.466 27.259,177.431 26.855,177.761 26.678 C 178.091 26.500,178.924 26.211,179.613 26.037 C 180.301 25.862,181.364 25.549,181.975 25.341 C 184.168 24.595,188.856 23.449,190.645 23.222 C 191.648 23.094,193.136 22.812,193.951 22.595 C 194.765 22.377,197.209 22.086,199.380 21.946 C 201.552 21.806,203.385 21.633,203.454 21.561 C 203.640 21.368,215.919 21.661,219.537 21.945 M129.036 21.985 C 131.196 22.127,133.796 22.418,134.815 22.632 C 135.833 22.846,137.749 23.160,139.073 23.331 C 141.821 23.685,142.255 23.916,141.995 24.887 C 141.835 25.486,141.318 25.951,139.259 27.347 C 134.006 30.911,121.839 43.605,117.284 50.275 C 113.540 55.757,110.377 60.844,110.373 61.390 C 110.371 61.543,110.208 61.803,110.009 61.968 C 109.505 62.386,104.938 71.789,104.938 72.408 C 104.938 72.585,104.766 72.976,104.555 73.276 C 104.172 73.824,103.174 76.536,102.083 80.000 C 101.762 81.019,101.335 82.352,101.133 82.963 C 100.267 85.584,99.545 88.094,99.393 89.012 C 99.304 89.556,99.020 90.722,98.762 91.605 C 98.296 93.203,97.496 97.894,96.889 102.593 C 96.055 109.039,96.229 126.393,97.183 131.975 C 97.392 133.198,97.770 135.475,98.023 137.037 C 98.276 138.599,98.641 140.321,98.836 140.864 C 99.030 141.407,99.271 142.403,99.371 143.077 C 99.470 143.750,99.755 144.862,100.003 145.546 C 100.251 146.230,100.528 147.179,100.619 147.654 C 101.068 150.009,103.921 157.875,105.678 161.605 C 105.934 162.148,106.489 163.370,106.911 164.321 C 107.333 165.272,107.828 166.327,108.010 166.667 C 108.193 167.006,108.920 168.395,109.627 169.753 C 110.334 171.111,111.050 172.389,111.217 172.593 C 111.485 172.919,112.753 175.012,113.086 175.679 C 113.544 176.594,118.219 183.360,119.485 184.938 C 119.757 185.278,120.552 186.278,121.252 187.160 C 126.448 193.716,135.495 202.309,142.314 207.168 C 142.975 207.639,143.823 208.247,144.198 208.519 C 145.395 209.385,147.544 210.800,151.481 213.315 C 152.160 213.748,154.748 215.114,157.232 216.350 C 159.715 217.586,161.803 218.687,161.872 218.798 C 161.940 218.908,162.464 219.123,163.035 219.275 C 164.425 219.644,166.667 220.938,166.667 221.372 C 166.667 221.842,163.133 223.588,159.630 224.849 C 159.086 225.045,158.198 225.417,157.654 225.676 C 156.392 226.277,155.111 226.689,150.247 228.060 C 148.074 228.672,145.574 229.383,144.691 229.639 C 143.809 229.896,142.253 230.226,141.235 230.373 C 140.216 230.520,138.383 230.854,137.160 231.116 C 129.720 232.708,107.729 232.689,103.513 231.086 C 103.181 230.959,101.768 230.696,100.374 230.500 C 98.980 230.304,97.409 229.980,96.883 229.778 C 96.357 229.577,95.259 229.285,94.444 229.130 C 92.071 228.677,84.418 226.279,82.576 225.411 C 82.024 225.151,81.470 224.938,81.345 224.938 C 81.220 224.938,80.561 224.669,79.880 224.341 C 79.199 224.012,76.975 222.997,74.938 222.085 C 72.901 221.173,71.068 220.291,70.864 220.125 C 70.660 219.958,69.549 219.302,68.395 218.666 C 67.241 218.030,65.630 217.074,64.815 216.541 C 64.000 216.008,63.169 215.491,62.967 215.392 C 62.649 215.235,61.230 214.245,58.776 212.469 C 58.401 212.198,57.773 211.756,57.380 211.488 C 56.414 210.829,53.478 208.508,52.583 207.696 C 52.184 207.333,51.277 206.537,50.568 205.926 C 48.868 204.461,42.658 198.246,41.183 196.534 C 39.312 194.362,37.816 192.532,36.137 190.360 C 34.721 188.530,30.874 182.891,30.310 181.819 C 30.104 181.430,29.562 180.464,29.104 179.674 C 26.672 175.474,25.587 173.360,24.076 169.877 C 23.575 168.722,22.898 167.221,22.570 166.540 C 22.243 165.859,21.975 165.144,21.975 164.951 C 21.975 164.758,21.761 164.149,21.499 163.596 C 20.605 161.710,18.335 154.142,17.808 151.287 C 17.663 150.501,17.379 149.371,17.176 148.775 C 16.974 148.179,16.688 146.718,16.540 145.528 C 16.392 144.338,16.065 142.302,15.814 141.003 C 14.632 134.885,14.624 118.612,15.802 113.082 C 16.048 111.925,16.381 109.879,16.541 108.535 C 16.702 107.192,16.951 105.805,17.094 105.454 C 17.238 105.102,17.604 103.704,17.908 102.346 C 18.602 99.245,19.646 95.452,20.116 94.321 C 20.314 93.846,20.600 92.957,20.752 92.346 C 20.904 91.735,21.169 91.012,21.341 90.741 C 21.513 90.469,21.786 89.802,21.949 89.259 C 22.111 88.716,22.456 87.827,22.716 87.284 C 22.976 86.741,23.591 85.352,24.084 84.198 C 25.125 81.756,27.818 76.342,28.260 75.802 C 28.426 75.599,28.840 74.932,29.178 74.321 C 30.757 71.473,31.171 70.820,34.321 66.210 C 36.128 63.565,39.616 59.253,42.011 56.702 C 43.049 55.596,44.269 54.247,44.721 53.704 C 45.825 52.376,52.298 46.505,55.030 44.354 C 59.758 40.630,66.501 36.285,71.852 33.513 C 76.073 31.327,83.435 28.176,85.926 27.489 C 86.673 27.283,87.398 27.022,87.536 26.907 C 87.774 26.712,89.259 26.267,92.716 25.355 C 96.850 24.264,99.671 23.642,102.469 23.207 C 104.167 22.943,106.111 22.614,106.790 22.476 C 110.079 21.809,122.238 21.541,129.036 21.985 M310.123 22.655 C 311.278 22.933,312.833 23.240,313.580 23.335 C 316.429 23.700,324.010 25.814,326.944 27.063 C 327.708 27.388,328.470 27.654,328.636 27.654 C 328.803 27.654,329.456 27.928,330.087 28.263 C 330.718 28.598,332.179 29.281,333.333 29.782 C 335.376 30.668,338.996 32.584,340.741 33.703 C 341.216 34.008,342.920 35.133,344.527 36.203 C 346.134 37.273,347.720 38.326,348.052 38.544 C 348.383 38.761,348.846 39.119,349.080 39.338 C 349.315 39.558,350.784 40.835,352.346 42.177 C 357.076 46.239,360.948 50.324,364.206 54.686 C 365.728 56.725,367.530 59.366,369.009 61.728 C 370.300 63.789,370.505 64.138,371.114 65.309 C 371.467 65.988,371.881 66.765,372.033 67.037 C 372.186 67.309,372.775 68.531,373.342 69.753 C 373.910 70.975,374.529 72.270,374.718 72.631 C 374.907 72.991,375.062 73.442,375.062 73.632 C 375.062 73.822,375.332 74.527,375.662 75.198 C 376.873 77.660,378.677 83.703,379.491 88.025 C 379.747 89.383,380.086 91.049,380.245 91.728 C 381.578 97.445,381.449 112.341,380.000 119.889 C 378.732 126.495,376.697 133.683,375.687 135.126 C 375.479 135.423,375.309 135.828,375.309 136.026 C 375.309 136.540,372.145 143.444,371.581 144.161 C 371.323 144.489,371.111 144.891,371.111 145.053 C 371.111 145.215,370.796 145.839,370.410 146.439 C 370.024 147.040,369.055 148.586,368.256 149.877 C 361.914 160.113,351.996 169.816,340.893 176.646 C 338.537 178.095,330.939 181.975,330.457 181.975 C 330.345 181.975,329.697 182.244,329.016 182.571 C 327.691 183.209,324.833 184.212,322.222 184.956 C 321.340 185.207,320.117 185.579,319.506 185.782 C 317.445 186.468,313.969 187.211,310.741 187.656 C 308.975 187.899,306.753 188.236,305.802 188.403 C 302.762 188.940,292.103 188.816,288.148 188.198 C 286.315 187.911,284.093 187.572,283.210 187.445 C 279.262 186.875,269.565 184.037,266.556 182.571 C 265.885 182.243,265.198 181.975,265.030 181.975 C 264.669 181.975,256.104 177.646,255.559 177.188 C 255.354 177.015,254.296 176.347,253.210 175.704 C 252.123 175.060,250.790 174.204,250.247 173.801 C 249.704 173.399,248.870 172.792,248.395 172.454 C 246.506 171.107,245.893 170.632,244.033 169.075 C 237.263 163.406,231.294 156.348,225.603 147.284 C 224.700 145.846,222.384 141.295,221.359 138.945 C 220.872 137.828,220.317 136.580,220.126 136.173 C 218.319 132.307,215.610 121.980,214.913 116.296 C 214.688 114.463,214.413 112.241,214.302 111.358 C 214.034 109.232,214.044 101.347,214.318 99.012 C 214.966 93.484,215.574 89.315,215.793 88.906 C 215.930 88.651,216.216 87.431,216.429 86.195 C 216.643 84.958,216.969 83.582,217.155 83.137 C 217.341 82.692,217.734 81.387,218.027 80.238 C 218.320 79.089,218.651 78.037,218.761 77.901 C 218.872 77.765,219.130 77.099,219.335 76.420 C 220.136 73.766,223.487 66.713,225.698 63.029 C 226.154 62.268,228.758 58.327,230.363 55.966 C 235.331 48.660,245.592 39.210,254.074 34.129 C 259.726 30.743,267.032 27.303,270.741 26.282 C 271.420 26.094,272.364 25.777,272.840 25.577 C 274.861 24.723,286.380 22.306,289.259 22.132 C 294.412 21.819,308.080 22.162,310.123 22.655 " stroke="none" fill="#fbfbfb" fill-rule="evenodd"></path></g></svg>