<svg xmlns="http://www.w3.org/2000/svg" class="fxs-portal-svg" id="FxSymbol0-0f3" role="presentation" viewBox="-10.5 -9.5 50 50" focusable="false" xmlns:xlink="http://www.w3.org/1999/xlink" xmlns:svg="http://www.w3.org/2000/svg">
<g>
<title/>
<path class="msportalfx-svg-c19" fill="#0072c6" d="M 34.492 35.865 h 2 V -9.5 h -41 C -5.801 -9.333 -8.5 -6.2 -8.5 -5.749 l 0.059 43.882 A 2.368 2.368 0 0 0 -6.073 40.5 h 37.565 v -0.729 l 3 -3.906 Z"/>
<path class="msportalfx-svg-c02" fill="#e5e5e5" d="M -2.726 -7.5 c -1.105 0 -1.58 0.185 -2.507 1 c -2.275 2 0.39 2 1.495 2 h 35.23 v 44.271 l 3 -3.906 V -7.5 H -2.726 Z"/>
<path class="msportalfx-svg-c03" opacity="0.5" fill="#a0a1a2" d="M 31.492 39.771 l 3 -3.906 V -7.5 l -3 3 Z"/>
<path class="msportalfx-svg-c01" fill="#ffffff" d="M 22.492 10.5 a 2 2 0 0 1 -2 2 h -17 a 2 2 0 0 1 -2 -2 v -5 a 2 2 0 0 1 2 -2 h 17 a 2 2 0 0 1 2 2 v 5 Z"/>
</g>
</svg>