<svg xmlns="http://www.w3.org/2000/svg" class="" id="FxSymbol0-01a" role="presentation" viewBox="0 0 50 50" focusable="false" xmlns:xlink="http://www.w3.org/1999/xlink" xmlns:svg="http://www.w3.org/2000/svg">
<g>
<title/>
<path class="msportalfx-svg-c15" fill="#59b4d9" d="M 50 25.392 c 0 -3.292 -2.665 -5.799 -5.799 -5.799 h -0.784 c 0.313 -1.254 0.627 -2.665 0.627 -4.075 A 15.453 15.453 0 0 0 28.527 0 c -6.74 0 -12.539 4.389 -14.577 10.658 c -1.097 -0.313 -2.194 -0.627 -3.448 -0.627 C 4.702 10.031 0 14.734 0 20.69 s 4.702 10.658 10.502 10.658 h 34.169 A 5.96 5.96 0 0 0 50 25.392"/>
<path class="msportalfx-svg-c01" opacity="0.2" fill="#ffffff" d="M 15.987 31.348 c -1.411 -1.411 -2.351 -3.135 -2.821 -5.172 c -1.254 -5.799 2.194 -11.442 7.994 -12.696 c 1.254 -0.313 2.351 -0.313 3.448 -0.157 c 0.47 -5.329 3.762 -10.188 8.621 -12.539 A 14.755 14.755 0 0 0 28.527 0 c -6.74 0 -12.539 4.389 -14.577 10.658 c -1.097 -0.313 -2.194 -0.627 -3.448 -0.627 C 4.702 10.031 0 14.734 0 20.69 s 4.702 10.658 10.502 10.658 h 5.485 Z"/>
<path class="msportalfx-svg-c08" fill="#ba141a" d="M 36.526 31.972 c -1.58 1.436 -3.663 2.298 -5.961 2.298 s -4.381 -0.862 -5.961 -2.298 L 23.741 50 l 6.823 -6.895 L 37.388 50 l -0.862 -18.028 Z"/>
<circle class="msportalfx-svg-c09" fill="#dd5900" cx="30.564" cy="25.723" r="11.636"/>
<circle class="msportalfx-svg-c10" fill="#ff8c00" cx="30.564" cy="25.723" r="8.763"/>
<path class="msportalfx-svg-c01" opacity="0.15" fill="#ffffff" d="M 22.305 33.983 c -4.525 -4.525 -4.525 -11.923 0 -16.448 s 11.923 -4.525 16.448 0 L 22.305 33.983 Z"/>
</g>
</svg>