<svg xmlns="http://www.w3.org/2000/svg" class="fxs-portal-svg" id="FxSymbol0-0f6" role="presentation" viewBox="0 0 50 50" focusable="false" xmlns:xlink="http://www.w3.org/1999/xlink" xmlns:svg="http://www.w3.org/2000/svg">
<g>
<title/>
<path class="msportalfx-svg-c13" fill="#b8d432" d="M 43.327 0 H 6.275 C 2.611 -0.02 0 2.188 0 5.839 v 26.218 c 0 3.706 2.661 6.985 6.329 7.029 l 13.383 0.025 L 30.702 49.9 l 0.082 -10.758 h 12.441 c 3.661 0.03 6.664 -2.933 6.664 -6.594 l 0.056 -26.317 C 49.97 2.59 46.993 0 43.327 0"/>
<path class="msportalfx-svg-c01" fill="#ffffff" d="M 28.611 27.92 a 3.666 3.666 0 1 1 -7.332 0 a 3.666 3.666 0 0 1 7.332 0 M 25.636 6.305 h -3.597 l 0.918 15.932 h 4.326 l 0.919 -15.932 Z"/>
</g>
</svg>