<svg xmlns="http://www.w3.org/2000/svg" class="fxs-portal-svg" id="FxSymbol0-050" role="presentation" viewBox="0 0 50 50" focusable="false" xmlns:xlink="http://www.w3.org/1999/xlink" xmlns:svg="http://www.w3.org/2000/svg">
<g>
<title/>
<path class="msportalfx-svg-c03" fill="#a0a1a2" d="M 46.281 23.344 c 0 -0.375 -0.031 -0.734 -0.063 -1.109 L 50 20.141 a 18.722 18.722 0 0 0 -0.969 -3.625 l -4.313 0.078 a 16.795 16.795 0 0 0 -1.094 -1.938 l 2.219 -3.703 a 19.217 19.217 0 0 0 -2.641 -2.641 l -2.188 1.297 l -0.922 1.375 l -1.984 2.922 c 2.813 2.188 4.625 5.594 4.625 9.438 c 0 6.594 -5.328 11.938 -11.922 11.938 c -6.578 0 -11.922 -5.344 -11.922 -11.938 c 0 -5.906 4.281 -10.781 9.906 -11.75 l 0.906 -3.672 l -2.094 -3.781 A 18.654 18.654 0 0 0 24 5.109 l 0.063 4.328 a 13.84 13.84 0 0 0 -1.922 1.094 l -3.703 -2.219 a 18.314 18.314 0 0 0 -2.641 2.641 l 2.219 3.703 c -0.422 0.609 -0.766 1.266 -1.094 1.938 l -4.328 -0.078 a 19.911 19.911 0 0 0 -0.953 3.625 l 3.766 2.094 a 13.266 13.266 0 0 0 0 2.218 l -3.766 2.094 c 0.203 1.25 0.531 2.469 0.969 3.625 l 4.313 -0.078 c 0.328 0.672 0.672 1.328 1.094 1.938 l -2.219 3.703 a 19.27 19.27 0 0 0 2.641 2.656 l 3.703 -2.234 c 0.609 0.422 1.266 0.781 1.922 1.109 L 24 41.578 c 1.156 0.438 2.359 0.766 3.609 0.969 l 2.109 -3.781 c 0.359 0.031 0.719 0.063 1.094 0.063 s 0.75 -0.031 1.109 -0.063 l 2.094 3.781 a 18.722 18.722 0 0 0 3.625 -0.969 l -0.078 -4.313 a 15.99 15.99 0 0 0 1.938 -1.109 l 3.703 2.234 a 20.27 20.27 0 0 0 2.641 -2.656 l -2.219 -3.703 c 0.406 -0.609 0.766 -1.266 1.094 -1.938 l 4.313 0.078 c 0.438 -1.156 0.766 -2.375 0.969 -3.625 l -3.781 -2.094 c 0.03 -0.374 0.061 -0.733 0.061 -1.108 Z"/>
<path class="msportalfx-svg-c04" fill="#7a7a7a" d="M 16 39.719 V 37.86 l -0.102 -0.094 l -1.902 -0.641 l -0.49 -1.281 l 0.942 -1.953 l 0.104 -0.219 l -0.589 -0.594 l -0.716 -0.719 l -0.249 0.125 l -1.859 0.953 l -1.281 -0.359 L 9.047 31 H 7.203 l -0.094 0.094 l -0.641 1.898 l -1.296 0.488 l -2.156 -1.037 l -1.313 1.302 l 0.125 0.245 l 0.953 1.857 l -0.531 1.28 l -2.25 0.811 v 1.859 l 0.266 0.078 l 1.984 0.656 l 0.531 1.281 l -1.016 2.156 l 1.313 1.328 l 0.25 -0.125 l 1.859 -0.953 l 1.281 0.531 L 7.281 47 H 9.14 l 0.078 -0.266 l 0.656 -1.984 l 1.266 -0.531 l 2.172 1.016 l 1.313 -1.313 l -0.125 -0.25 l -0.953 -1.859 l 0.367 -1.297 L 16 39.719 Z m -7.828 1.719 c -1.438 0 -2.609 -1.172 -2.609 -2.609 s 1.172 -2.609 2.609 -2.609 s 2.594 1.172 2.594 2.609 s -1.157 2.609 -2.594 2.609 Z"/>
<path class="msportalfx-svg-c11" fill="#fcd116" d="M 33.297 1.688 l -0.719 2.266 l -1.234 3.938 l -0.594 1.889 l -0.516 1.656 l -3.594 11.422 c -0.078 0.219 0.031 0.391 0.281 0.391 h 3.313 c 0.109 0 0.188 0.031 0.234 0.094 c 0.078 0.078 0.094 0.188 0.047 0.313 l -3.422 8.297 c -0.094 0.219 -0.031 0.266 0.125 0.078 L 38.047 19.75 c 0.156 -0.188 0.094 -0.328 -0.141 -0.328 l -3.547 0.016 l -0.656 0.016 c -0.234 0 -0.344 -0.172 -0.219 -0.375 l 3.375 -6.016 l 0.797 -1.438 l 0.922 -1.656 l 1.969 -3.484 l 1.125 -2.031 a 21.541 21.541 0 0 0 -8.375 -2.766 Z"/>
<path class="msportalfx-svg-c10" opacity="0.3" fill="#ff8c00" d="M 39.505 3.367 l -7.844 16.07 h 1.953 c -0.174 -0.037 -0.249 -0.183 -0.14 -0.359 l 3.375 -6.016 l 0.797 -1.438 l 0.922 -1.656 l 1.969 -3.484 l 1.125 -2.031 a 22.191 22.191 0 0 0 -2.157 -1.086 Z M 37.92 19.422 l -2.189 0.01 l -8.093 12.14 L 38.061 19.75 c 0.156 -0.187 0.094 -0.328 -0.141 -0.328 Z"/>
</g>
</svg>