<svg xmlns="http://www.w3.org/2000/svg" class="" id="FxSymbol0-0c5" role="presentation" viewBox="0 0 50 50" focusable="false" xmlns:xlink="http://www.w3.org/1999/xlink" xmlns:svg="http://www.w3.org/2000/svg">
<g>
<title/>
<path class="msportalfx-svg-c15" fill="#59b4d9" d="M 43.4 47.004 c -0.48 0 0.009 0.098 -0.4 0 v -4.957 H 7 c -0.204 0 -5 -0.046 -5 -4 v -31 c 0 -2.68 2.333 -3.9 4.5 -3.9 s 4.5 1.221 4.5 3.9 v 1 h 28.1 c 5.407 0 8.9 1.632 8.9 7.1 v 28.9 c 0 2.244 -2.021 2.957 -4.6 2.957 Z"/>
<path class="msportalfx-svg-c01" opacity="0.7" fill="#ffffff" d="M 43.4 47.004 c -0.48 0 0.009 0.098 -0.4 0 v -4.957 H 7 c -0.204 0 -5 -0.046 -5 -4 v -31 c 0 -2.68 2.333 -3.9 4.5 -3.9 s 4.5 1.221 4.5 3.9 v 1 h 28.1 c 5.407 0 8.9 1.632 8.9 7.1 v 28.9 c 0 2.244 -2.021 2.957 -4.6 2.957 Z"/>
<path class="msportalfx-svg-c19" fill="#0072c6" d="M 39.1 7.048 H 12 c 0 -3 -2.5 -4.9 -5.5 -4.9 S 1 4.048 1 7.048 v 30 c 0 5 3 6 6 6 h 35 v 5 s 7 0 7 -5 v -27.9 c 0 -6 -3 -8.1 -9.9 -8.1 Z m 7.9 36.2 s -2 -2.2 -5.9 -2.2 H 7 c -2 0 -4 -0.5 -4 -3.5 c 0 -1.7 1.3 -3.5 4 -3.5 c 3 0 4.9 3 4.9 3 h 0.1 v -28 h 28.1 c 4 0 6.9 1.1 6.9 5.1 v 29.1 Z"/>
<path class="msportalfx-svg-c19" fill="#0072c6" d="M 36 31.999 l 1.5 4 l 1.5 -4 Z M 36 18 h 3 v 12 h -3 Z m 1.5 -4.9 c 0.828 0 1.5 0.647 1.5 1.446 L 38.973 16 L 36 15.974 v -1.429 c 0 -0.798 0.672 -1.445 1.5 -1.445 Z m -13.5 -1 c 0.552 0 1 0.647 1 1.446 L 24.982 15 L 23 14.974 v -1.429 c 0 -0.798 0.448 -1.445 1 -1.445 Z"/>
<path class="msportalfx-svg-c19" fill="#0072c6" d="M 24 14.1 a 3.9 3.9 0 1 0 0 7.8 a 3.9 3.9 0 0 0 0 -7.8 Z m 0 6.8 c -1.599 0 -2.9 -1.301 -2.9 -2.9 s 1.301 -2.9 2.9 -2.9 s 2.9 1.301 2.9 2.9 s -1.301 2.9 -2.9 2.9 Z"/>
<path class="msportalfx-svg-c19" fill="#0072c6" d="M 24 20.914 V 19 l -1.867 1.307 l -4.017 12.364 l -0.285 4.112 l 2.186 -3.494 h 0.001 l 4.017 -12.364 Z"/>
<path class="msportalfx-svg-c19" fill="#0072c6" d="M 29.884 32.671 l -4.017 -12.364 L 24 19 v 1.914 l -0.035 0.011 l 4.017 12.364 h 0.001 l 2.186 3.494 Z"/>
<path class="msportalfx-svg-c19" fill="#0072c6" d="M 32 28 H 16 a 0.5 0.5 0 0 1 0 -1 h 16 a 0.5 0.5 0 0 1 0 1 Z"/>
</g>
</svg>