<svg xmlns="http://www.w3.org/2000/svg" class="fxs-portal-svg" id="FxSymbol0-0f5" role="presentation" viewBox="-10.5 -9.5 50 50" focusable="false" xmlns:xlink="http://www.w3.org/1999/xlink" xmlns:svg="http://www.w3.org/2000/svg">
<g>
<title/>
<path class="msportalfx-svg-c14" fill="#7fba00" d="M 34.492 35.865 h 2 V -9.5 h -41 C -5.801 -9.333 -8.5 -6.2 -8.5 -5.749 l 0.059 43.882 A 2.368 2.368 0 0 0 -6.073 40.5 h 37.565 v -0.729 l 3 -3.906 Z"/>
<path class="msportalfx-svg-c02" fill="#e5e5e5" d="M -2.726 -7.5 c -1.105 0 -1.58 0.185 -2.507 1 c -2.275 2 0.39 2 1.495 2 h 35.23 v 44.271 l 3 -3.906 V -7.5 H -2.726 Z"/>
<path class="msportalfx-svg-c03" opacity="0.5" fill="#a0a1a2" d="M 31.492 39.771 l 3 -3.906 V -7.5 l -3 3 Z"/>
<path class="msportalfx-svg-c01" fill="#ffffff" d="M 15.417 29.203 l -4.302 -17.581 l -2.241 6.076 H 0.492 a 1.5 1.5 0 1 1 0 -3 h 6.29 l 4.915 -13.32 l 4.507 18.419 l 2.197 -5.099 h 7.091 a 1.5 1.5 0 1 1 0 3 h -5.116 l -4.959 11.505 Z"/>
</g>
</svg>