<svg xmlns="http://www.w3.org/2000/svg" class="" id="FxSymbol0-0c9" role="presentation" viewBox="0 0 115 115" focusable="false" xmlns:xlink="http://www.w3.org/1999/xlink" xmlns:svg="http://www.w3.org/2000/svg">
<g>
<title/>
<path class="msportalfx-svg-c04" fill="#7a7a7a" d="M 73.5 87 H 42.3 c 3.5 12.3 1 14.1 -19.5 14.1 v 6.4 h 69.8 v -6.4 C 72 101.1 70 99.3 73.5 87"/>
<path class="msportalfx-svg-c03" fill="#a0a1a2" d="M 104.5 9 H 10 c -3.2 0 -5.8 2.9 -5.8 6.1 V 81 c 0 3.2 2.6 6 5.8 6 h 94.5 c 3.2 0 6.4 -2.8 6.4 -6 V 15.1 c 0.1 -3.2 -3.2 -6.1 -6.4 -6.1"/>
<path class="msportalfx-svg-c01" opacity="0.2" fill="#ffffff" d="M 104.6 9 H 10 c -3.2 0 -5.8 2.9 -5.8 6.1 V 81 c 0 3.2 2.6 6 5.8 6 h 2.2 l 92.4 -78 Z"/>
<path class="msportalfx-svg-c15" fill="#59b4d9" d="M 102.7 17.2 v 61.6 H 12.3 V 17.2 Z"/>
<path class="msportalfx-svg-c15" fill="#59b4d9" d="M 12.3 78.8 h 0.2 V 17.2 l 82.5 -0.1 l -82.7 0.1 Z"/>
<path class="msportalfx-svg-c03" fill="#a0a1a2" d="M 22.7 101.1 h 69.8 v 6.4 H 22.7 Z"/>
<path class="msportalfx-svg-c13" fill="#b8d432" d="M 58.7 13.5 c 0 0.8 -0.7 1.5 -1.5 1.5 s -1.5 -0.7 -1.5 -1.5 s 0.7 -1.5 1.5 -1.5 s 1.5 0.7 1.5 1.5"/>
<path class="msportalfx-svg-c01" fill="#ffffff" d="M 57.7 57.8 c -0.1 0 -0.1 0 -0.2 -0.1 L 44.1 50 c -0.1 -0.1 -0.2 -0.2 -0.2 -0.4 c 0 -0.1 0.1 -0.3 0.2 -0.3 l 13.3 -7.7 c 0.1 -0.1 0.3 -0.1 0.4 0 l 13.4 7.7 c 0.1 0.1 0.2 0.2 0.2 0.3 c 0 0.1 -0.1 0.3 -0.2 0.3 l -13.3 7.7 l -0.2 0.2"/>
<path class="msportalfx-svg-c01" opacity="0.7" fill="#ffffff" d="M 55.7 76.5 c -0.1 0 -0.1 0 -0.2 -0.1 l -13.3 -7.7 c -0.1 -0.1 -0.2 -0.2 -0.2 -0.4 V 53 c 0 -0.1 0.1 -0.3 0.2 -0.4 c 0.1 -0.1 0.3 -0.1 0.4 0 l 13.3 7.7 c 0.1 0.1 0.2 0.2 0.2 0.4 v 15.4 c 0 0.1 -0.1 0.3 -0.2 0.4 h -0.2"/>
<path class="msportalfx-svg-c01" opacity="0.4" fill="#ffffff" d="M 59.5 76.5 c -0.1 0 -0.1 0 -0.2 -0.1 s -0.2 -0.2 -0.2 -0.4 V 60.8 c 0 -0.1 0.1 -0.3 0.2 -0.4 l 13.3 -7.7 c 0.1 -0.1 0.3 -0.1 0.4 0 c 0.1 0.1 0.2 0.2 0.2 0.3 v 15.3 c 0 0.1 -0.1 0.3 -0.2 0.4 l -13.3 7.7 c 0 0.1 -0.1 0.1 -0.2 0.1"/>
<path class="msportalfx-svg-c08" fill="#ba141a" d="M 40.1 18 c 18.2 12.8 17.7 29.6 17.7 29.6 s -5 -16 -26.3 -22.6 l 11.4 0.3 l -2.8 -7.3 Z M 72 26.1 C 57.6 34.6 56.7 48 56.7 48 S 61.6 35.5 78 31.9 l -8.6 -0.4 l 2.6 -5.4 Z M 57.7 45.9 c -0.2 -0.3 -4.3 -6.5 -11.4 -9.4 c -4.6 -1.8 -8.1 -2.4 -10.5 -1.5 c -1.3 0.5 -2.2 1.3 -2.7 2.5 c -0.8 2 -0.7 5.9 8.8 9.7 c 7.1 2.9 14.4 1.2 14.7 1.1 l 2.1 -0.8 l -1 -1.6 Z m -12.6 -6.4 c 3.8 1.5 6.7 4.2 8.3 6.1 c -2.5 0.2 -6.4 0.2 -10.2 -1.4 c -5.5 -2.2 -7.5 -4.5 -7.1 -5.6 c 0.1 -0.2 0.2 -0.5 0.8 -0.6 c 0.7 -0.3 3 -0.6 8.2 1.5 Z M 58.5 48 c 0.3 0.1 7.4 2.3 14.8 0.1 c 4.7 -1.5 7.8 -3.3 9.1 -5.4 c 0.7 -1.2 0.9 -2.4 0.5 -3.6 c -0.6 -2.1 -3.2 -5 -13 -2 c -7.3 2.3 -12 8.2 -12.2 8.4 l -1.3 1.7 l 2.1 0.8 Z m 13.9 -3 c -3.9 1.2 -7.8 0.9 -10.3 0.5 c 1.8 -1.7 4.9 -4.2 8.8 -5.4 c 5.7 -1.8 8.6 -1.3 9 -0.1 c 0.1 0.2 0.1 0.5 -0.2 1 c -0.4 0.6 -1.9 2.3 -7.3 4 Z"/>
</g>
</svg>