<svg xmlns="http://www.w3.org/2000/svg" class="" id="FxSymbol0-0cb" role="presentation" viewBox="0 0 50 50" focusable="false" xmlns:xlink="http://www.w3.org/1999/xlink" xmlns:svg="http://www.w3.org/2000/svg">
<g>
<title/>
<path class="msportalfx-svg-c16" fill="#3999c6" d="M 29.194 32.171 c 0.044 0 0.087 -0.01 0.125 -0.031 l 8.081 -4.476 a 0.23 0.23 0 0 0 0.125 -0.204 v -8.982 a 0.237 0.237 0 0 0 -0.125 -0.206 a 0.263 0.263 0 0 0 -0.247 0 l -8.08 4.476 a 0.236 0.236 0 0 0 -0.12 0.205 v 8.983 c 0 0.086 0.046 0.161 0.12 0.204 c 0.04 0.021 0.08 0.031 0.121 0.031 m 0 11.829 c 0.044 0 0.087 -0.01 0.125 -0.031 l 8.081 -4.476 a 0.23 0.23 0 0 0 0.125 -0.204 v -8.982 a 0.237 0.237 0 0 0 -0.125 -0.206 a 0.263 0.263 0 0 0 -0.247 0 l -8.08 4.476 a 0.236 0.236 0 0 0 -0.12 0.205 v 8.983 c 0 0.086 0.046 0.161 0.12 0.204 c 0.04 0.021 0.08 0.031 0.121 0.031 M 39.67 26.256 c 0.044 0 0.087 -0.01 0.125 -0.031 l 8.081 -4.476 a 0.229 0.229 0 0 0 0.124 -0.204 v -8.982 a 0.237 0.237 0 0 0 -0.125 -0.206 a 0.263 0.263 0 0 0 -0.247 0 l -8.08 4.476 a 0.236 0.236 0 0 0 -0.12 0.205 v 8.983 c 0 0.086 0.046 0.161 0.12 0.204 a 0.251 0.251 0 0 0 0.122 0.031 m 0 11.829 c 0.044 0 0.087 -0.01 0.125 -0.031 l 8.081 -4.476 a 0.228 0.228 0 0 0 0.124 -0.204 v -8.982 a 0.237 0.237 0 0 0 -0.125 -0.206 a 0.263 0.263 0 0 0 -0.247 0 l -8.08 4.476 a 0.236 0.236 0 0 0 -0.12 0.205 v 8.983 c 0 0.086 0.046 0.161 0.12 0.204 a 0.251 0.251 0 0 0 0.122 0.031"/>
<path opacity="0.15" fill="#62117a" d="M 29.194 44 c 0.044 0 0.087 -0.01 0.125 -0.031 l 8.081 -4.476 a 0.23 0.23 0 0 0 0.125 -0.204 v -8.982 a 0.237 0.237 0 0 0 -0.125 -0.206 a 0.263 0.263 0 0 0 -0.247 0 l -8.08 4.476 a 0.236 0.236 0 0 0 -0.12 0.205 v 8.983 c 0 0.086 0.046 0.161 0.12 0.204 c 0.04 0.021 0.08 0.031 0.121 0.031 m 10.476 -5.915 c 0.044 0 0.087 -0.01 0.125 -0.031 l 8.081 -4.476 a 0.228 0.228 0 0 0 0.124 -0.204 v -8.982 a 0.237 0.237 0 0 0 -0.125 -0.206 a 0.263 0.263 0 0 0 -0.247 0 l -8.08 4.476 a 0.236 0.236 0 0 0 -0.12 0.205 v 8.983 c 0 0.086 0.046 0.161 0.12 0.204 a 0.251 0.251 0 0 0 0.122 0.031 m -10.476 -5.914 c 0.044 0 0.087 -0.01 0.125 -0.031 l 8.081 -4.476 a 0.23 0.23 0 0 0 0.125 -0.204 v -8.982 a 0.237 0.237 0 0 0 -0.125 -0.206 a 0.263 0.263 0 0 0 -0.247 0 l -8.08 4.476 a 0.236 0.236 0 0 0 -0.12 0.205 v 8.983 c 0 0.086 0.046 0.161 0.12 0.204 c 0.04 0.021 0.08 0.031 0.121 0.031 m 10.476 -5.915 c 0.044 0 0.087 -0.01 0.125 -0.031 l 8.081 -4.476 a 0.229 0.229 0 0 0 0.124 -0.204 v -8.982 a 0.237 0.237 0 0 0 -0.125 -0.206 a 0.263 0.263 0 0 0 -0.247 0 l -8.08 4.476 a 0.236 0.236 0 0 0 -0.12 0.205 v 8.983 c 0 0.086 0.046 0.161 0.12 0.204 a 0.251 0.251 0 0 0 0.122 0.031"/>
<path class="msportalfx-svg-c15" fill="#59b4d9" d="M 26.806 32.171 a 0.257 0.257 0 0 1 -0.125 -0.031 L 18.6 27.664 a 0.23 0.23 0 0 1 -0.125 -0.204 v -8.982 c 0 -0.084 0.046 -0.161 0.125 -0.206 a 0.263 0.263 0 0 1 0.247 0 l 8.08 4.476 c 0.075 0.043 0.12 0.121 0.12 0.205 v 8.983 a 0.234 0.234 0 0 1 -0.12 0.204 a 0.256 0.256 0 0 1 -0.121 0.031 m 0 11.829 a 0.257 0.257 0 0 1 -0.125 -0.031 L 18.6 39.493 a 0.23 0.23 0 0 1 -0.125 -0.204 v -8.982 c 0 -0.084 0.046 -0.161 0.125 -0.206 a 0.263 0.263 0 0 1 0.247 0 l 8.08 4.476 c 0.075 0.043 0.12 0.121 0.12 0.205 v 8.983 a 0.234 0.234 0 0 1 -0.12 0.204 a 0.256 0.256 0 0 1 -0.121 0.031 M 16.33 26.256 a 0.257 0.257 0 0 1 -0.125 -0.031 l -8.081 -4.476 A 0.229 0.229 0 0 1 8 21.545 v -8.982 c 0 -0.084 0.046 -0.161 0.125 -0.206 a 0.263 0.263 0 0 1 0.247 0 l 8.08 4.476 c 0.075 0.043 0.12 0.121 0.12 0.205 v 8.983 a 0.234 0.234 0 0 1 -0.12 0.204 a 0.251 0.251 0 0 1 -0.122 0.031 m 0 11.829 a 0.257 0.257 0 0 1 -0.125 -0.031 l -8.081 -4.476 A 0.228 0.228 0 0 1 8 33.374 v -8.982 c 0 -0.084 0.046 -0.161 0.125 -0.206 a 0.263 0.263 0 0 1 0.247 0 l 8.08 4.476 c 0.075 0.043 0.12 0.121 0.12 0.205 v 8.983 a 0.234 0.234 0 0 1 -0.12 0.204 a 0.251 0.251 0 0 1 -0.122 0.031 m 3.51 -22.3 a 0.237 0.237 0 0 1 0.09 -0.085 l 8.031 -4.364 a 0.25 0.25 0 0 1 0.243 -0.002 l 7.95 4.327 a 0.226 0.226 0 0 1 0.119 0.2 a 0.24 0.24 0 0 1 -0.124 0.199 l -8.03 4.363 a 0.256 0.256 0 0 1 -0.242 -0.002 l -7.951 -4.328 a 0.222 0.222 0 0 1 -0.12 -0.195 a 0.234 0.234 0 0 1 0.034 -0.113 M 9.37 10.086 a 0.234 0.234 0 0 1 0.089 -0.085 l 7.942 -4.364 a 0.246 0.246 0 0 1 0.241 -0.002 l 7.862 4.327 a 0.225 0.225 0 0 1 0.118 0.2 a 0.238 0.238 0 0 1 -0.123 0.199 l -7.942 4.363 a 0.25 0.25 0 0 1 -0.239 -0.002 l -7.863 -4.328 a 0.225 0.225 0 0 1 -0.119 -0.195 a 0.224 0.224 0 0 1 0.034 -0.113 m 21.161 0.096 a 0.234 0.234 0 0 1 0.089 -0.085 l 7.942 -4.364 a 0.246 0.246 0 0 1 0.241 -0.002 l 7.862 4.327 a 0.225 0.225 0 0 1 0.118 0.2 a 0.238 0.238 0 0 1 -0.123 0.199 l -7.942 4.363 a 0.25 0.25 0 0 1 -0.239 -0.002 l -7.863 -4.328 a 0.225 0.225 0 0 1 -0.119 -0.195 a 0.228 0.228 0 0 1 0.034 -0.113 M 19.88 4.558 a 0.242 0.242 0 0 1 0.09 -0.084 L 28.001 0.181 a 0.253 0.253 0 0 1 0.243 -0.002 l 7.95 4.257 a 0.22 0.22 0 0 1 0.119 0.196 a 0.236 0.236 0 0 1 -0.124 0.196 l -8.03 4.292 a 0.262 0.262 0 0 1 -0.242 -0.002 l -7.951 -4.257 a 0.218 0.218 0 0 1 -0.12 -0.192 a 0.23 0.23 0 0 1 0.034 -0.111"/>
<path class="msportalfx-svg-c01" opacity="0.2" fill="#ffffff" d="M 19.84 15.785 a 0.237 0.237 0 0 1 0.09 -0.085 l 8.031 -4.364 a 0.25 0.25 0 0 1 0.243 -0.002 l 7.95 4.327 a 0.226 0.226 0 0 1 0.119 0.2 a 0.24 0.24 0 0 1 -0.124 0.199 l -8.03 4.363 a 0.256 0.256 0 0 1 -0.242 -0.002 l -7.951 -4.328 a 0.222 0.222 0 0 1 -0.12 -0.195 a 0.234 0.234 0 0 1 0.034 -0.113 M 9.37 10.086 a 0.234 0.234 0 0 1 0.089 -0.085 l 7.942 -4.364 a 0.246 0.246 0 0 1 0.241 -0.002 l 7.862 4.327 a 0.225 0.225 0 0 1 0.118 0.2 a 0.238 0.238 0 0 1 -0.123 0.199 l -7.942 4.363 a 0.25 0.25 0 0 1 -0.239 -0.002 l -7.863 -4.328 a 0.225 0.225 0 0 1 -0.119 -0.195 a 0.224 0.224 0 0 1 0.034 -0.113 m 21.161 0.096 a 0.234 0.234 0 0 1 0.089 -0.085 l 7.942 -4.364 a 0.246 0.246 0 0 1 0.241 -0.002 l 7.862 4.327 a 0.225 0.225 0 0 1 0.118 0.2 a 0.238 0.238 0 0 1 -0.123 0.199 l -7.942 4.363 a 0.25 0.25 0 0 1 -0.239 -0.002 l -7.863 -4.328 a 0.225 0.225 0 0 1 -0.119 -0.195 a 0.228 0.228 0 0 1 0.034 -0.113 M 19.88 4.558 a 0.242 0.242 0 0 1 0.09 -0.084 L 28.001 0.181 a 0.253 0.253 0 0 1 0.243 -0.002 l 7.95 4.257 a 0.22 0.22 0 0 1 0.119 0.196 a 0.236 0.236 0 0 1 -0.124 0.196 l -8.03 4.292 a 0.262 0.262 0 0 1 -0.242 -0.002 l -7.951 -4.257 a 0.218 0.218 0 0 1 -0.12 -0.192 a 0.23 0.23 0 0 1 0.034 -0.111 M 8.125 33.578 l 8.081 4.476 a 0.256 0.256 0 0 0 0.246 0 a 0.234 0.234 0 0 0 0.12 -0.204 v -6.766 A 7.336 7.336 0 0 0 15.5 31 c -2.196 0 -3.833 0.355 -5.152 0.642 c -0.924 0.2 -1.654 0.358 -2.348 0.358 v 1.374 c 0 0.086 0.046 0.163 0.125 0.204 Z M 26.806 44 c 0.041 0 0.081 -0.01 0.121 -0.031 a 0.234 0.234 0 0 0 0.12 -0.204 v -7.223 c -0.762 0.016 -1.558 0.031 -2.254 0.031 c -0.932 0 -1.328 -0.026 -1.489 -0.044 c -0.233 -0.168 -0.686 -0.802 -0.994 -1.234 c -0.793 -1.11 -1.956 -2.736 -3.834 -3.635 v 7.63 c 0 0.086 0.046 0.162 0.125 0.204 l 8.081 4.476 c 0.037 0.02 0.08 0.03 0.124 0.03 Z m 10.718 -4.711 v -0.963 c -0.965 0.417 -2.026 0.871 -3.053 1.306 c -0.367 -2.963 -3.394 -3.088 -4.402 -3.13 a 10.01 10.01 0 0 0 -0.436 -0.008 c -0.189 0 -0.422 0.003 -0.68 0.007 v 7.263 c 0 0.086 0.046 0.161 0.12 0.204 a 0.257 0.257 0 0 0 0.246 0.001 l 8.081 -4.476 a 0.229 0.229 0 0 0 0.124 -0.204 Z m 3.031 -2.311 c -0.263 0.126 -0.655 0.305 -1.126 0.515 v 0.358 c 0 0.086 0.046 0.161 0.12 0.204 a 0.257 0.257 0 0 0 0.246 0 l 3.302 -1.829 a 8.033 8.033 0 0 0 -2.542 0.752 Z"/>
<path class="msportalfx-svg-c17" fill="#804998" d="M 19.811 49.5 c -2.676 0 -6.009 -2.854 -7.317 -4.08 a 41.176 41.176 0 0 0 -0.857 -0.789 C 9.586 42.836 7.478 42 5 42 c -2.272 0 -3.499 -0.009 -3.5 -0.009 V 33.5 H 8 c 0.858 0 1.698 -0.183 2.67 -0.394 c 1.245 -0.27 2.795 -0.606 4.83 -0.606 c 2.975 0 4.426 2.035 5.592 3.67 c 0.659 0.924 1.229 1.722 1.909 1.83 c 0.306 0.049 0.87 0.072 1.774 0.072 c 0.908 0 1.994 -0.024 2.909 -0.044 a 101.43 101.43 0 0 1 1.958 -0.034 c 0.146 0 0.266 0.002 0.357 0.006 c 2.069 0.087 2.91 0.647 3 2 c 0.023 0.36 -0.016 0.71 -0.117 1.04 l -0.313 1.023 l 0.985 -0.416 c 2.297 -0.97 6.345 -2.689 7.651 -3.319 c 1.225 -0.591 2.52 -0.916 3.649 -0.916 c 1.193 0 2.073 0.367 2.414 1.008 c 0.01 0.019 0.942 1.851 -2.093 3.628 a 784.929 784.929 0 0 1 -5.263 3.043 c -2.637 1.515 -4.719 2.711 -5.671 3.341 c -0.887 0.589 -2.109 0.664 -3.076 0.664 c -0.523 0 -1.058 -0.025 -1.588 -0.05 a 33.155 33.155 0 0 0 -1.58 -0.052 c -1.288 0 -3.22 0.146 -5.266 0.301 c -0.911 0.069 -1.841 0.14 -2.734 0.199 a 2.797 2.797 0 0 1 -0.186 0.006 Z"/>
<path class="msportalfx-svg-c01" opacity="0.2" fill="#ffffff" d="M 33.75 42.108 c 2.818 -1.19 6.437 -2.733 7.674 -3.33 c 1.158 -0.559 2.377 -0.866 3.433 -0.866 c 0.988 0 1.726 0.277 1.973 0.742 c 0.022 0.049 0.66 1.461 -1.904 2.962 a 760.073 760.073 0 0 1 -5.259 3.041 c -2.643 1.518 -4.729 2.717 -5.697 3.357 c -0.776 0.515 -1.904 0.581 -2.801 0.581 c -0.5 0 -1.009 -0.023 -1.516 -0.047 a 34.347 34.347 0 0 0 -1.652 -0.055 c -1.296 0 -3.218 0.145 -5.253 0.299 c -0.96 0.072 -1.889 0.143 -2.78 0.202 l -0.157 0.006 c -2.567 0 -5.988 -3.02 -6.976 -3.945 c -0.38 -0.355 -0.649 -0.606 -0.869 -0.8 C 9.819 42.375 7.605 41.5 5 41.5 c -1.429 0 -2.443 -0.004 -3 -0.006 V 34 h 6 c 0.91 0 1.772 -0.188 2.771 -0.404 C 12.007 33.328 13.524 33 15.5 33 c 2.717 0 4.027 1.838 5.185 3.46 c 0.725 1.016 1.351 1.893 2.237 2.034 c 0.34 0.054 0.912 0.078 1.854 0.078 c 0.86 0 1.88 -0.021 2.764 -0.041 l 0.311 -0.007 a 92.61 92.61 0 0 1 1.793 -0.03 c 0.137 0 0.25 0.002 0.336 0.006 c 2.245 0.094 2.471 0.75 2.522 1.533 c 0.02 0.3 -0.013 0.589 -0.096 0.859 l -0.665 1.808 s 1.318 -0.299 2.009 -0.592"/>
<path class="msportalfx-svg-c20" fill="#68217a" d="M 19.811 50 c -2.622 0 -5.762 -2.436 -7.659 -4.215 c -0.329 -0.308 -0.615 -0.576 -0.846 -0.778 C 9.354 43.297 7.35 42.5 5 42.5 c -2.275 0 -3.504 -0.009 -3.504 -0.009 a 0.5 0.5 0 0 1 -0.496 -0.5 V 33.5 a 0.5 0.5 0 0 1 0.5 -0.5 H 8 c 0.803 0 1.619 -0.177 2.563 -0.382 C 11.832 32.343 13.411 32 15.5 32 c 3.231 0 4.831 2.242 5.999 3.88 c 0.569 0.798 1.107 1.551 1.58 1.626 c 0.686 0.11 2.987 0.058 4.666 0.021 c 1.014 -0.022 1.89 -0.042 2.275 -0.026 c 1.644 0.069 3.343 0.416 3.479 2.467 c 0.03 0.464 -0.031 0.872 -0.138 1.22 c 2.198 -0.928 6.323 -2.68 7.629 -3.309 c 2.846 -1.374 5.871 -1.291 6.721 0.307 c 0.274 0.514 0.734 2.529 -2.281 4.295 a 785.507 785.507 0 0 1 -5.267 3.045 c -2.63 1.511 -4.707 2.704 -5.645 3.324 c -1.313 0.871 -3.183 0.779 -4.991 0.695 c -0.521 -0.025 -1.036 -0.05 -1.528 -0.05 c -1.266 0 -3.19 0.146 -5.228 0.3 c -0.913 0.069 -1.844 0.14 -2.739 0.199 a 4.048 4.048 0 0 1 -0.221 0.006 Z M 2 41.494 c 0.557 0.002 1.571 0.006 3 0.006 c 2.571 0 4.849 0.901 6.964 2.755 c 0.238 0.208 0.532 0.484 0.871 0.801 c 1.713 1.605 4.924 4.118 7.132 3.939 c 0.893 -0.059 1.82 -0.129 2.73 -0.198 c 2.057 -0.155 3.999 -0.303 5.303 -0.303 c 0.508 0 1.039 0.025 1.576 0.051 c 1.646 0.079 3.351 0.159 4.391 -0.53 c 0.965 -0.638 3.054 -1.838 5.699 -3.357 c 1.618 -0.93 3.425 -1.968 5.259 -3.041 c 1.516 -0.888 2.353 -2.12 1.905 -2.962 c -0.537 -1.006 -2.898 -1.084 -5.406 0.124 c -1.823 0.88 -8.79 3.8 -9.086 3.924 a 0.5 0.5 0 1 1 -0.515 -0.844 c 0.028 -0.024 0.755 -0.669 0.678 -1.825 c -0.06 -0.907 -0.492 -1.449 -2.521 -1.533 c -0.354 -0.017 -1.216 0.004 -2.213 0.026 c -1.908 0.044 -4.069 0.091 -4.846 -0.032 c -0.886 -0.142 -1.511 -1.019 -2.235 -2.034 C 19.585 34.919 18.217 33 15.5 33 c -1.981 0 -3.438 0.316 -4.725 0.596 C 9.774 33.813 8.91 34 8 34 H 2 v 7.494 Z"/>
<path class="msportalfx-svg-c20" fill="#68217a" d="M 24.644 43.517 c -1.974 0 -3.384 -0.236 -4.177 -0.932 l -3.077 -2.696 l 0.658 -0.752 l 3.078 2.696 c 1.051 0.92 5.578 0.575 7.284 0.463 c 2.714 -0.179 2.996 -0.314 4.641 -0.979 a 0.5 0.5 0 0 1 0.375 0.927 c -1.739 0.702 -2.145 0.864 -4.949 1.049 c -1.053 0.07 -2.985 0.224 -3.833 0.224 Z"/>
</g>
</svg>