<svg xmlns="http://www.w3.org/2000/svg" class="fxs-portal-svg" id="FxSymbol0-074" role="presentation" viewBox="0 0 50 50" focusable="false" xmlns:xlink="http://www.w3.org/1999/xlink" xmlns:svg="http://www.w3.org/2000/svg">
<g>
<title/>
<path class="msportalfx-svg-c19" fill="#0072c6" d="M 37.858 5.96 C 26.842 4.745 24.999 0 24.999 0 S 22.52 6.242 6.673 6.242 v 25.611 c 0 3.097 1.721 5.997 4.104 8.532 C 16.179 46.133 25 50.001 25 50.001 s 18.327 -8.029 18.327 -18.149 V 6.242 c -2.038 0 -3.851 -0.103 -5.469 -0.282 Z"/>
<path class="msportalfx-svg-c01" opacity="0.2" fill="#ffffff" d="M 29.533 16.543 L 37.858 5.96 C 26.842 4.745 24.999 0 24.999 0 S 22.52 6.242 6.673 6.242 v 25.611 c 0 3.097 1.721 5.997 4.104 8.532 l 6.154 -7.822 l 12.602 -16.02 Z"/>
<path class="msportalfx-svg-c15" fill="#59b4d9" d="M 13.971 29.998 h 0.03 V 15.001 l 20.113 -0.03 h 0.001 l -20.144 0.03 Z"/>
<path class="msportalfx-svg-c01" opacity="0.95" fill="#ffffff" d="M 36.429 13 H 13.413 c -0.782 0 -1.413 0.699 -1.413 1.48 v 16.05 c 0 0.776 0.631 1.468 1.413 1.468 h 8.573 L 21.98 32 c 0.795 2.981 -0.265 3.423 -4.897 3.429 H 17 V 37 h 16 v -1.571 h -0.083 c -4.632 -0.005 -5.692 -0.448 -4.897 -3.429 l -0.006 -0.002 h 8.415 c 0.78 0 1.571 -0.692 1.571 -1.468 V 14.48 c 0 -0.783 -0.791 -1.48 -1.571 -1.48 Z m -0.459 16.998 h -22 V 15.001 h 22 v 14.997 Z"/>
<path class="msportalfx-svg-c01" opacity="0.95" fill="#ffffff" d="M 25.014 22.045 a 0.143 0.143 0 0 1 -0.07 -0.02 l -4.578 -2.643 a 0.141 0.141 0 0 1 -0.069 -0.12 c 0 -0.049 0.027 -0.095 0.069 -0.12 l 4.55 -2.625 a 0.14 0.14 0 0 1 0.137 0 l 4.58 2.644 c 0.043 0.024 0.068 0.07 0.068 0.12 c 0 0.05 -0.025 0.095 -0.068 0.12 l -4.549 2.625 a 0.153 0.153 0 0 1 -0.07 0.019"/>
<path class="msportalfx-svg-c01" opacity="0.8" fill="#ffffff" d="M 24.357 28.468 a 0.13 0.13 0 0 1 -0.07 -0.019 l -4.564 -2.634 a 0.135 0.135 0 0 1 -0.071 -0.12 v -5.286 c 0 -0.05 0.027 -0.095 0.071 -0.12 a 0.138 0.138 0 0 1 0.139 0 l 4.564 2.633 a 0.144 0.144 0 0 1 0.068 0.121 v 5.286 c 0 0.05 -0.027 0.095 -0.068 0.12 a 0.153 0.153 0 0 1 -0.069 0.019"/>
<path class="msportalfx-svg-c01" opacity="0.6" fill="#ffffff" d="M 25.649 28.468 a 0.146 0.146 0 0 1 -0.072 -0.019 a 0.14 0.14 0 0 1 -0.067 -0.12 v -5.253 c 0 -0.049 0.027 -0.095 0.067 -0.12 l 4.564 -2.633 a 0.134 0.134 0 0 1 0.137 0 c 0.044 0.024 0.07 0.07 0.07 0.12 v 5.252 a 0.136 0.136 0 0 1 -0.07 0.12 l -4.562 2.634 a 0.128 0.128 0 0 1 -0.067 0.019"/>
</g>
</svg>