<svg xmlns="http://www.w3.org/2000/svg" class="fxs-portal-svg" id="FxSymbol0-075" role="presentation" viewBox="0 0 50 50" focusable="false" xmlns:xlink="http://www.w3.org/1999/xlink" xmlns:svg="http://www.w3.org/2000/svg">
<g>
<title/>
<path class="msportalfx-svg-c15" fill="#59b4d9" d="M 19.5 10.1 c 0.9 -5.7 5.8 -10 11.8 -10 c 6.6 0 11.9 5.4 11.9 12 c 0 0.8 -0.1 1.5 -0.2 2.2 c 3.9 0.4 6.9 4 6.9 8.3 c 0 4.6 -3.5 8.4 -7.7 8.4 h -22 C 14.6 31 10 26.2 10 20.4 c 0.1 -5.4 4.3 -9.8 9.5 -10.3 Z"/>
<path class="msportalfx-svg-c03" fill="#a0a1a2" d="M 41 22 c 0 -1.1 -0.9 -2 -2 -2 H 28 c -0.365 0 -0.704 0.106 -1 0.279 A 1.975 1.975 0 0 0 26 20 H 15 c -0.365 0 -0.704 0.106 -1 0.279 A 1.975 1.975 0 0 0 13 20 H 2 c -1.1 0 -2 0.9 -2 2 v 5 c 0 0.365 0.106 0.704 0.279 1 A 1.975 1.975 0 0 0 0 29 v 5 c 0 0.365 0.106 0.704 0.279 1 A 1.975 1.975 0 0 0 0 36 v 5 c 0 0.365 0.106 0.704 0.279 1 A 1.975 1.975 0 0 0 0 43 v 5 c 0 1.1 0.9 2 2 2 h 11 c 0.365 0 0.704 -0.106 1 -0.279 c 0.296 0.173 0.635 0.279 1 0.279 h 11 c 0.365 0 0.704 -0.106 1 -0.279 c 0.296 0.173 0.635 0.279 1 0.279 h 11 c 1.1 0 2 -0.9 2 -2 v -5 c 0 -0.365 -0.106 -0.704 -0.279 -1 c 0.173 -0.296 0.279 -0.635 0.279 -1 v -5 c 0 -0.365 -0.106 -0.704 -0.279 -1 c 0.173 -0.296 0.279 -0.635 0.279 -1 v -5 c 0 -0.365 -0.106 -0.704 -0.279 -1 c 0.173 -0.296 0.279 -0.635 0.279 -1 v -5 Z"/>
<path class="msportalfx-svg-c09" fill="#dd5900" d="M 15 22 h 11 v 5 H 15 Z"/>
<path class="msportalfx-svg-c08" fill="#ba141a" d="M 28 22 h 11 v 5 H 28 Z M 2 22 h 11 v 5 H 2 Z m 13 7 h 11 v 5 H 15 Z"/>
<path class="msportalfx-svg-c09" fill="#dd5900" d="M 2 36 h 11 v 5 H 2 Z"/>
<path class="msportalfx-svg-c08" fill="#ba141a" d="M 2 29 h 11 v 5 H 2 Z m 13 14 h 11 v 5 H 15 Z m 13 -7 h 11 v 5 H 28 Z m 0 -7 h 11 v 5 H 28 Z m -13 7 h 11 v 5 H 15 Z"/>
<path class="msportalfx-svg-c09" fill="#dd5900" d="M 28 43 h 11 v 5 H 28 Z"/>
<path class="msportalfx-svg-c08" fill="#ba141a" d="M 2 43 h 11 v 5 H 2 Z"/>
</g>
</svg>