<svg xmlns="http://www.w3.org/2000/svg" class="fxs-portal-svg" id="FxSymbol0-06d" role="presentation" viewBox="0 0 50 50" focusable="false" xmlns:xlink="http://www.w3.org/1999/xlink" xmlns:svg="http://www.w3.org/2000/svg">
<g>
<title/>
<path class="msportalfx-svg-c20" fill="#68217a" d="M 9.8 32.8 h 31 v 3.8 h -31 Z"/>
<path class="msportalfx-svg-c20" fill="#68217a" d="M 6.12 31.452 l 14.99 -14.99 l 2.687 2.687 l -14.99 14.99 Z m 22.859 -14.966 l 14.99 14.99 l -2.686 2.687 l -14.991 -14.99 Z"/>
<path class="msportalfx-svg-c14" fill="#7fba00" d="M 25 9.7 c -3.1 0 -5.6 2.5 -5.6 5.6 c 0 3.1 2.5 5.6 5.6 5.6 s 5.6 -2.5 5.6 -5.6 c 0 -3.1 -2.5 -5.6 -5.6 -5.6 Z m 0 7.4 c -1 0 -1.8 -0.8 -1.8 -1.8 s 0.8 -1.8 1.8 -1.8 s 1.8 0.8 1.8 1.8 s -0.8 1.8 -1.8 1.8 Z m -19.4 12 c -3.1 0 -5.6 2.5 -5.6 5.6 c 0 3.1 2.5 5.6 5.6 5.6 s 5.6 -2.5 5.6 -5.6 c 0 -3.1 -2.5 -5.6 -5.6 -5.6 Z m 0 7.4 c -1 0 -1.8 -0.8 -1.8 -1.8 s 0.8 -1.8 1.8 -1.8 s 1.8 0.8 1.8 1.8 s -0.8 1.8 -1.8 1.8 Z m 38.8 -7.4 c -3.1 0 -5.6 2.5 -5.6 5.6 c 0 3.1 2.5 5.6 5.6 5.6 s 5.6 -2.5 5.6 -5.6 c 0 -3.1 -2.5 -5.6 -5.6 -5.6 Z m 0 7.4 c -1 0 -1.8 -0.8 -1.8 -1.8 s 0.8 -1.8 1.8 -1.8 s 1.8 0.8 1.8 1.8 s -0.8 1.8 -1.8 1.8 Z"/>
</g>
</svg>