<svg xmlns="http://www.w3.org/2000/svg" class="fxs-portal-svg" id="FxSymbol0-076" role="presentation" viewBox="0 0 50 50" focusable="false" xmlns:xlink="http://www.w3.org/1999/xlink" xmlns:svg="http://www.w3.org/2000/svg">
<g>
<title/>
<path class="msportalfx-svg-c15" fill="#59b4d9" d="M 45.139 23.099 a 10.94 10.94 0 0 0 0.777 -4.041 c 0 -6.058 -4.905 -10.969 -10.956 -10.969 c -1.682 0 -3.27 0.391 -4.694 1.069 C 27.898 6.087 24.195 4.1 20.02 4.1 c -7.151 0 -12.948 5.804 -12.948 12.964 c 0 0.581 0.052 1.149 0.125 1.71 C 3.053 20.339 0.1 24.334 0.1 29.031 C 0.1 35.089 5.005 40 11.056 40 h 29.88 c 4.951 0 8.964 -4.018 8.964 -8.975 a 8.974 8.974 0 0 0 -4.761 -7.926 Z"/>
<path class="msportalfx-svg-c01" fill="#ffffff" d="M 18 20 h 14 v 20.05 H 18 Z"/>
<path class="msportalfx-svg-c01" opacity="0.4" fill="#ffffff" d="M 34.938 18.847 l -9.678 -5.689 s -0.412 -0.21 -0.596 -0.21 C 23.747 12.947 23 13 23 14.738 V 20 h 10 v 20 h 3 V 20.422 c 0 -0.7 -0.424 -1.324 -1.062 -1.575 Z"/>
<path class="msportalfx-svg-c19" fill="#0072c6" d="M 34.544 18.767 l -9.667 -5.684 c -0.431 -0.149 -0.877 0.184 -0.877 0.655 v 33.57 c 0 0.471 0.446 0.804 0.877 0.655 l 9.667 -5.684 a 0.687 0.687 0 0 0 0.456 -0.654 V 19.422 a 0.69 0.69 0 0 0 -0.456 -0.655 Z"/>
</g>
</svg>