<svg xmlns="http://www.w3.org/2000/svg" class="fxs-portal-svg" id="FxSymbol0-06f" role="presentation" viewBox="0 0 50 50" focusable="false" xmlns:xlink="http://www.w3.org/1999/xlink" xmlns:svg="http://www.w3.org/2000/svg">
<g>
<title/>
<path class="msportalfx-svg-c19" fill="#0072c6" d="M 38.2 6 c -11 -1.2 -12.9 -6 -12.9 -6 S 22.8 6.2 7 6.2 v 25.6 c 0 3.1 1.7 6 4.1 8.5 c 5.4 5.7 14.2 9.6 14.2 9.6 s 18.3 -8 18.3 -18.1 V 6.2 c -2 0 -3.8 -0.1 -5.4 -0.2 Z"/>
<path class="msportalfx-svg-c16" opacity="0.4" fill="#3999c6" d="M 29.9 16.5 L 38.2 6 c -11 -1.2 -12.9 -6 -12.9 -6 S 22.8 6.2 7 6.2 v 25.6 c 0 3.1 1.7 6 4.1 8.5 l 6.2 -7.8 l 12.6 -16 Z"/>
<g class="msportalfx-svg-c01" fill="#ffffff">
<path opacity="0.3" d="M 10.8 24.4 v 6.1 c 0 2.5 1.4 4.8 3.3 6.8 c 4.3 4.6 11.3 7.6 11.3 7.6 V 24.4 H 10.8 Z"/>
<path opacity="0.7" d="M 25.3 44.9 s 14.6 -6.4 14.6 -14.4 v -6.1 H 25.3 v 20.5 Z m 0 -39.8 s -2 5 -14.6 5 v 14.3 h 14.6 V 5.1 Z"/>
<path opacity="0.3" d="M 35.5 9.9 c -8.7 -1 -10.2 -4.7 -10.2 -4.7 v 19.2 h 14.6 V 10.1 c -1.6 0 -3.1 -0.1 -4.4 -0.2 Z"/>
</g>
</g>
</svg>