<svg xmlns="http://www.w3.org/2000/svg" class="" id="FxSymbol0-06e" role="presentation" viewBox="0 0 50 50" focusable="false" xmlns:xlink="http://www.w3.org/1999/xlink" xmlns:svg="http://www.w3.org/2000/svg">
<g>
<title/>
<path class="msportalfx-svg-c01" fill="#ffffff" d="M 31.9 1.1 c -9.174 0 -16.65 7.354 -16.878 16.475 A 12.827 12.827 0 0 1 21 16.1 c 7.124 0 12.9 5.776 12.9 12.9 c 0 2.117 -0.52 4.108 -1.423 5.871 C 41.527 34.563 48.8 27.125 48.8 18 c 0 -9.318 -7.582 -16.9 -16.9 -16.9 Z"/>
<g fill="#3898c5">
<path d="M 32.867 35.601 c 3.674 -3.221 7.594 -8.33 7.594 -17.589 S 36.604 3.441 32.832 0.399 l -1.529 1.502 c 3.531 2.846 6.796 6.768 6.796 16.111 c 0 9.375 -3.375 13.113 -6.829 16.139 l 1.597 1.45 Z"/>
<path d="M 16.112 16.941 h 31.775 v 2.118 H 16.112 Z M 32 10.084 c -5.212 0 -9.918 -1.453 -12.729 -3.618 l -1.27 1.27 C 21.134 10.254 26.23 11.9 32 11.9 s 10.866 -1.646 13.999 -4.165 l -1.27 -1.27 c -2.81 2.166 -7.517 3.619 -12.729 3.619 Z"/>
</g>
<path fill="#7a7b7b" d="M 10.925 35.075 l -10 10 l 0.002 0.002 a 2.825 2.825 0 0 0 3.996 3.996 l 0.002 0.002 l 10 -10 l -4 -4 Z"/>
<path opacity="0.4" fill="#1d1d1d" d="M 7 39 a 14.01 14.01 0 0 0 4 4 l 2.615 -2.615 l -4 -4 L 7 39 Z"/>
<circle class="msportalfx-svg-c01" fill="#ffffff" cx="20.725" cy="28.9" r="9"/>
<circle class="msportalfx-svg-c01" fill="#ffffff" cx="21" cy="29" r="11"/>
<path fill="#3898c5" d="M 25.921 17.077 c 0.215 -8.663 3.367 -12.428 6.775 -15.176 L 31.167 0.399 c -3.541 2.856 -7.156 7.715 -7.585 15.96 c 0.811 0.165 1.592 0.409 2.339 0.718 Z m 7.022 7.056 c 0.241 0.591 0.432 1.205 0.584 1.836 c 4.594 0.253 8.67 1.614 11.202 3.565 l 1.27 -1.27 c -2.96 -2.379 -7.679 -3.961 -13.056 -4.131 Z"/>
<path fill="#3898c5" d="M 32 0.1 C 22.131 0.1 14.1 8.131 14.1 18 c 0 0.037 0.005 0.073 0.006 0.11 a 12.877 12.877 0 0 1 2.297 -1.151 C 16.943 8.815 23.722 2.35 32 2.35 c 8.629 0 15.65 7.021 15.65 15.65 c 0 8.278 -6.465 15.057 -14.609 15.597 a 12.877 12.877 0 0 1 -1.151 2.297 c 0.037 0 0.073 0.006 0.11 0.006 c 9.869 0 17.9 -8.029 17.9 -17.9 C 49.9 8.131 41.869 0.1 32 0.1 Z"/>
<path class="msportalfx-svg-c14" fill="#7fba00" d="M 19.581 35 l -2.068 -6.107 l -1.588 3.131 H 13 v -1.569 h 1.941 l 2.865 -5.646 l 1.766 5.215 l 2.525 -7.539 l 2.07 6.097 l 1.932 -3.687 h 2.9 v 1.588 l -1.988 -0.002 l -3.136 6.181 l -1.768 -5.208 L 19.581 35 Z"/>
<path opacity="0.2" fill="#3898c5" d="M 13.49 32.49 c 0 -6.501 4.53 -11 11 -11 c 2.01 0 3.889 0.548 5.51 1.49 c -1.904 -3.279 -5.445 -5.49 -9.51 -5.49 c -6.075 0 -11 4.925 -11 11 c 0 4.065 2.211 7.606 5.49 9.51 a 10.932 10.932 0 0 1 -1.49 -5.51 Z"/>
<path fill="#7a7b7b" d="M 21 15.1 c -7.677 0 -13.9 6.223 -13.9 13.9 c 0 7.677 6.223 13.9 13.9 13.9 S 34.9 36.677 34.9 29 c 0 -7.677 -6.223 -13.9 -13.9 -13.9 Z m 0 24.2 c -5.689 0 -10.3 -4.611 -10.3 -10.3 S 15.311 18.7 21 18.7 S 31.3 23.312 31.3 29 S 26.689 39.3 21 39.3 Z"/>
</g>
</svg>