<svg xmlns="http://www.w3.org/2000/svg" class="fxs-portal-svg" id="FxSymbol0-073" role="presentation" viewBox="0 0 50 50" focusable="false" xmlns:xlink="http://www.w3.org/1999/xlink" xmlns:svg="http://www.w3.org/2000/svg">
<g>
<title/>
<path class="msportalfx-svg-c17" fill="#804998" d="M 41.681 36.313 L 39.199 46 l -8.605 -5.095 Z"/>
<path class="msportalfx-svg-c17" fill="#804998" d="M 24.025 25.996 s -0.475 0.862 -1 1 c 6.594 0 10.902 10.95 13.469 17.34 l 3.331 -0.962 c -2.623 -6.939 -5.8 -17.378 -15.8 -17.378 Z m 17.656 -12.317 l -2.482 -9.687 l -8.605 5.095 Z"/>
<path class="msportalfx-svg-c17" fill="#804998" d="M 24.025 23.996 s -0.475 -0.862 -1 -1 c 6.594 0 10.902 -10.95 13.469 -17.34 l 3.331 0.962 c -2.623 6.939 -5.8 17.378 -15.8 17.378 Z m 18.018 -5 l 8 6 l -8 6 Z"/>
<path class="msportalfx-svg-c17" fill="#804998" d="M 45.204 22.996 V 27 H 21 v -4.004 Z"/>
<path class="msportalfx-svg-c14" fill="#7fba00" d="M 4.754 38 H 19 a 4.754 4.754 0 0 0 4.754 -4.754 V 16.75 A 4.754 4.754 0 0 0 19 11.996 H 4.754 A 4.753 4.753 0 0 0 0 16.75 v 16.497 A 4.753 4.753 0 0 0 4.754 38 Z"/>
<path class="msportalfx-svg-c01" opacity="0.2" fill="#ffffff" d="M 4.754 38 L 19 11.996 H 4.754 A 4.753 4.753 0 0 0 0 16.75 v 16.497 A 4.753 4.753 0 0 0 4.754 38 Z"/>
<path class="msportalfx-svg-c01" fill="#ffffff" d="M 14 21.996 h 6 v 6 h -6 Z M 4 16 h 6 v 6 H 4 Z m 0 12 h 6 v 6 H 4 Z"/>
</g>
</svg>