<svg xmlns="http://www.w3.org/2000/svg" class="fxs-portal-svg" id="FxSymbol0-077" role="presentation" viewBox="0 0 50 50" focusable="false" xmlns:xlink="http://www.w3.org/1999/xlink" xmlns:svg="http://www.w3.org/2000/svg">
<g>
<title/>
<title>ServiceEndpointsPolicy</title>
<path class="msportalfx-svg-c01" fill="#ffffff" d="M 35.5 47 c -2.236 0 -4.5 -1.717 -4.5 -5 a 5.821 5.821 0 0 1 1.547 -4 H 10 V 9.9 a 7.824 7.824 0 0 1 8 -8 h 25.614 l -1.707 1.707 A 8.661 8.661 0 0 0 40 8.9 V 41 c 0 2.768 -1.179 6 -4.5 6 Z"/>
<path d="M 43 1 H 19 C 13 1 9 4.9 9 10.9 V 37 H 7.5 a 5.5 5.5 0 0 0 0 11 H 36 c 4 0 5 -4 5 -6 V 8.9 h 6.6 a 7.876 7.876 0 0 0 0.4 -2.3 C 48 3.5 45.8 1 43 1 Z m -4 7.9 V 42 c 0 2 -0.5 4 -3.5 4 c -1.7 0 -3.5 -1.3 -3.5 -4 a 5.03 5.03 0 0 1 4 -4.9 V 37 H 11 V 9.9 a 6.835 6.835 0 0 1 7 -7 h 23.2 a 9.618 9.618 0 0 0 -2.2 6 Z"/>
<path class="msportalfx-svg-c14" fill="#7fba00" d="M 21 18 a 2 2 0 1 1 -2 -2 a 2 2 0 0 1 2 2 Z m 10 -2 a 2 2 0 1 0 2 2 a 2 2 0 0 0 -2 -2 Z m -5.25 13.648 v -9.8 a 2 2 0 1 0 -1.5 0 v 9.8 a 2 2 0 1 0 1.5 0 Z"/>
<path class="msportalfx-svg-c15" fill="#59b4d9" d="M 20 26 a 1 1 0 0 1 -0.707 -0.293 l -7 -7 a 1 1 0 0 1 0 -1.414 l 7 -7 a 1 1 0 0 1 1.414 1.414 L 14.414 18 l 6.293 6.293 A 1 1 0 0 1 20 26 Z m 10.707 -0.293 l 7 -7 a 1 1 0 0 0 0 -1.414 l -7 -7 a 1 1 0 0 0 -1.414 1.414 L 35.586 18 l -6.293 6.293 a 1 1 0 1 0 1.414 1.414 Z"/>
</g>
</svg>