<svg xmlns="http://www.w3.org/2000/svg" class="fxs-portal-svg" id="FxSymbol0-0e4" role="presentation" viewBox="0 0 50 50" focusable="false" xmlns:xlink="http://www.w3.org/1999/xlink" xmlns:svg="http://www.w3.org/2000/svg">
<g>
<title/>
<path class="msportalfx-svg-c17" fill="#804998" d="M 50 35.5 V 14.588 L 35.368 0 H 14.662 L 0 15.029 v 20.397 L 14.632 50 h 20.736 Z"/>
<path class="msportalfx-svg-c01" opacity="0.8" fill="#ffffff" d="M 34.538 2 h -19.05 L 2 15.827 v 18.765 L 15.462 48 h 19.077 L 48 34.66 V 15.421 L 34.538 2 Z m -1.135 43.24 h -0.152 l -11.28 -11.446 l 2.382 -2.662 h -8.177 v 8.382 l 2.677 -2.882 l 8.868 8.608 H 16.602 L 4.76 33.446 V 16.95 l 3.322 -3.406 l 8.829 7.955 l -5.029 5.221 h 16.059 V 10.765 L 22.691 16 l -8.885 -8.323 l 2.846 -2.917 h 16.745 L 45.24 16.567 v 14.745 l -5.622 -5.298 l 4.118 -3.706 H 32.353 v 10.75 l 3.72 -3.691 l 6.368 6.915 l -9.038 8.958 Z"/>
<path class="msportalfx-svg-c01" opacity="0.2" fill="#ffffff" d="M 42.896 7.506 L 35.368 0 H 14.662 L 0 15.029 v 20.398 l 7.503 7.472 Z"/>
</g>
</svg>