<svg xmlns="http://www.w3.org/2000/svg" class="fxs-portal-svg" id="FxSymbol0-078" role="presentation" viewBox="0 0 50 50" focusable="false" xmlns:xlink="http://www.w3.org/1999/xlink" xmlns:svg="http://www.w3.org/2000/svg">
<g>
<title/>
<path class="msportalfx-svg-c15" fill="#59b4d9" d="M 39.606 12.8 l -0.033 0.002 C 39.226 6.284 33.735 1.1 26.992 1.1 c -4.928 0 -9.185 2.773 -11.26 6.806 A 12.215 12.215 0 0 0 13.05 7.6 C 6.45 7.6 1.1 12.838 1.1 19.3 C 1.1 25.762 6.45 31 13.05 31 h 26.556 c 5.133 0 9.294 -4.074 9.294 -9.1 s -4.161 -9.1 -9.294 -9.1 Z"/>
<path class="msportalfx-svg-c01" opacity="0.2" fill="#ffffff" d="M 39.606 12.8 l -0.033 0.002 C 39.226 6.284 33.735 1.1 26.992 1.1 c -4.928 0 -9.185 2.773 -11.26 6.806 A 12.215 12.215 0 0 0 13.05 7.6 C 6.45 7.6 1.1 12.838 1.1 19.3 C 1.1 25.762 6.45 31 13.05 31 h 26.556 c 5.133 0 9.294 -4.074 9.294 -9.1 s -4.161 -9.1 -9.294 -9.1 Z"/>
<path class="msportalfx-svg-c01" fill="#ffffff" d="M 26 48.15 c -8.905 0 -16.15 -7.245 -16.15 -16.15 S 17.095 15.85 26 15.85 S 42.15 23.095 42.15 32 S 34.905 48.15 26 48.15 Z"/>
<path class="msportalfx-svg-c17" fill="#804998" d="M 26 16.6 c 8.492 0 15.4 6.908 15.4 15.4 S 34.492 47.4 26 47.4 S 10.6 40.492 10.6 32 S 17.508 16.6 26 16.6 m 0 -1.5 c -9.334 0 -16.9 7.566 -16.9 16.9 S 16.666 48.9 26 48.9 S 42.9 41.334 42.9 32 S 35.334 15.1 26 15.1 Z"/>
<ellipse class="msportalfx-svg-c17" fill="#804998" transform="rotate(-70.001 22.222 23.916)" cx="22.223" cy="23.916" rx="3.182" ry="3.182"/>
<ellipse class="msportalfx-svg-c17" fill="#804998" transform="rotate(-70.001 35.389 33.223)" cx="35.39" cy="33.223" rx="3.182" ry="3.182"/>
<ellipse class="msportalfx-svg-c17" fill="#804998" transform="rotate(-70.001 19.801 38.837)" cx="19.802" cy="38.837" rx="3.182" ry="3.182"/>
<path class="msportalfx-svg-c17" fill="#804998" d="M 18.787 22.171 c -2.607 0 -5.121 0.541 -7.509 1.621 a 16.767 16.767 0 0 0 -1.085 2.308 a 16.764 16.764 0 0 1 8.594 -2.374 c 9.28 0 16.83 7.55 16.83 16.83 c 0 2.025 -0.361 4.012 -1.072 5.905 l -0.032 0.085 a 16.767 16.767 0 0 0 2.031 -1.418 c 0.372 -1.468 0.628 -3.049 0.628 -4.572 c 0 -10.138 -8.247 -18.385 -18.385 -18.385 Z"/>
<path class="msportalfx-svg-c17" fill="#804998" d="M 33.273 16.925 a 16.742 16.742 0 0 0 -2.447 -0.958 c -7.55 2.497 -12.604 9.461 -12.604 17.447 c 0 6.288 3.161 12.061 8.457 15.467 c 0.889 -0.039 1.76 -0.145 2.608 -0.317 l -0.084 -0.042 c -5.814 -2.861 -9.425 -8.65 -9.425 -15.108 c -0.001 -7.996 5.669 -14.909 13.495 -16.489 Z"/>
<path class="msportalfx-svg-c17" fill="#804998" d="M 42.185 36.432 c 0.15 -0.559 0.272 -1.128 0.364 -1.708 a 18.442 18.442 0 0 0 -9.524 -2.663 c -8.002 0 -15.175 5.07 -17.849 12.827 l -0.016 0.049 l 0.038 0.034 c 0.359 0.308 0.744 0.605 1.139 0.891 c 0.058 0.041 0.115 0.084 0.174 0.124 l 0.028 -0.09 c 2.331 -7.374 8.956 -12.187 16.486 -12.187 c 3.263 -0.001 6.407 0.948 9.16 2.723 Z"/>
</g>
</svg>