<svg xmlns="http://www.w3.org/2000/svg" class="fxs-portal-svg" id="FxSymbol0-06a" role="presentation" viewBox="0 0 50 50" focusable="false" xmlns:xlink="http://www.w3.org/1999/xlink" xmlns:svg="http://www.w3.org/2000/svg">
<g>
<title/>
<path class="msportalfx-svg-c03" fill="#a0a1a2" d="M 42.1 18.5 v -2.2 c 0 -4.4 -1.6 -8.5 -4.4 -11.4 C 35.1 1.9 29.3 0 25 0 S 14.9 1.9 12.3 4.9 c -2.7 2.9 -4.4 7 -4.4 11.4 v 2.2 l 7.9 0.9 v -2 c 0 -2.6 0.9 -5.9 2.4 -7.6 s 4.7 -2.5 6.8 -2.6 c 2.1 0 5.3 0.9 6.8 2.6 s 2.4 3.9 2.4 6.4 v 3.2 l 7.9 -0.9 Z"/>
<path class="msportalfx-svg-c15" fill="#59b4d9" d="M 7.9 18.5 c -3.9 0 -5.3 2.3 -5.3 5.3 v 20.9 c 0 2.6 1.6 5.3 4.6 5.3 h 35.6 c 3.4 0 4.6 -2.7 4.6 -5.3 V 23.8 c 0 -2.7 -1.1 -5.3 -5.3 -5.3 H 7.9 Z"/>
<path class="msportalfx-svg-c01" opacity="0.15" fill="#ffffff" d="M 34.1 18.5 H 7.9 c -3.9 0 -5.3 2.3 -5.3 5.3 v 20.9 c 0 2.6 1.6 5.3 4.6 5.3 h 6.7 l 20.2 -31.5 Z"/>
<path class="msportalfx-svg-c01" fill="#ffffff" d="M 19 27.1 l 5.8 -5.8 l 5.8 5.8 h -4.1 v 4.2 H 23 v -4.2 h -4 Z M 8.3 35.9 v -3.4 h 6 v -4 l 5.6 5.6 l -5.6 5.6 v -3.9 h -6 v 0.1 Z m 16.5 11.3 l -5.9 -5.9 H 23 v -4.1 h 3.5 v 4.1 h 4.2 l -5.9 5.9 Z m 16.5 -11.3 h -6 v 4 l -5.7 -5.7 l 5.7 -5.7 v 4 h 6 v 3.4 Z"/>
</g>
</svg>